<?xml version="1.0" encoding="UTF-8" standalone="no"?>
<!-- Created with Inkscape (http://www.inkscape.org/) -->

<svg
   xmlns:dc="http://purl.org/dc/elements/1.1/"
   xmlns:cc="http://creativecommons.org/ns#"
   xmlns:rdf="http://www.w3.org/1999/02/22-rdf-syntax-ns#"
   xmlns:svg="http://www.w3.org/2000/svg"
   xmlns="http://www.w3.org/2000/svg"
   xmlns:sodipodi="http://sodipodi.sourceforge.net/DTD/sodipodi-0.dtd"
   xmlns:inkscape="http://www.inkscape.org/namespaces/inkscape"
   width="210mm"
   height="297mm"
   viewBox="0 0 210 297"
   version="1.1"
   id="svg1228"
   inkscape:version="0.92.4 (5da689c313, 2019-01-14)"
   sodipodi:docname="phone-stand-final.svg">
  <defs
     id="defs1222" />
  <sodipodi:namedview
     id="base"
     pagecolor="#ffffff"
     bordercolor="#666666"
     borderopacity="1.0"
     inkscape:pageopacity="0.0"
     inkscape:pageshadow="2"
     inkscape:zoom="0.40023349"
     inkscape:cx="243.79911"
     inkscape:cy="248.37346"
     inkscape:document-units="mm"
     inkscape:current-layer="layer1"
     showgrid="false"
     inkscape:window-width="1920"
     inkscape:window-height="1001"
     inkscape:window-x="-9"
     inkscape:window-y="-9"
     inkscape:window-maximized="1" />
  <metadata
     id="metadata1225">
    <rdf:RDF>
      <cc:Work
         rdf:about="">
        <dc:format>image/svg+xml</dc:format>
        <dc:type
           rdf:resource="http://purl.org/dc/dcmitype/StillImage" />
        <dc:title></dc:title>
      </cc:Work>
    </rdf:RDF>
  </metadata>
  <g
     inkscape:label="Layer 1"
     inkscape:groupmode="layer"
     id="layer1">
    <path
       style="opacity:1;fill:none;fill-opacity:1;stroke:#000000;stroke-width:0.83984125;stroke-miterlimit:4;stroke-dasharray:none;stroke-dashoffset:0;stroke-opacity:1"
       d="m 8.434788,296.09721 c -3.936899,0 -7.106543,-3.16964 -7.106543,-7.10654 V 104.04331 c 0,-3.93692 3.169644,-7.106547 7.106543,-7.106547 H 68.38203 c 3.9369,0 7.10655,3.169627 7.10655,7.106547 v 184.94736 c 0,3.9369 -3.16965,7.10654 -7.10655,7.10654 h -2.39417 v -9.2356 H 11.778253 v 9.2356 z m 3.284554,-25.04291 h 19.317685 v -2.81792 H 11.719342 Z M 46.765781,270.999 H 66.08398 v -2.81844 H 46.765781 Z"
       id="rect817-5"
       inkscape:connector-curvature="0" />
    <path
       style="opacity:1;fill:none;fill-opacity:1;stroke:#000000;stroke-width:0.79699987;stroke-miterlimit:4;stroke-dasharray:none;stroke-dashoffset:0;stroke-opacity:1"
       d="m 90.94168,216.71369 v 19.24534 H 80.50304 v 47.85134 c 0,3.93702 3.16952,7.10654 7.10654,7.10654 h 10.47223 a 19.632849,19.749712 0 0 1 -0.0103,-0.29145 19.632849,19.749712 0 0 1 19.6329,-19.7497 19.632849,19.749712 0 0 1 19.63291,19.7497 19.632849,19.749712 0 0 1 -0.0145,0.29145 h 10.27689 c 3.93702,0 7.10655,-3.16952 7.10655,-7.10654 v -47.87201 h -9.22425 v -19.22467 h -19.53474 v 19.2903 h -15.64349 v -19.2903 z"
       id="rect913"
       inkscape:connector-curvature="0" />
    <path
       style="fill:#000000;stroke-width:0.20320867"
       d="m 31.539775,106.80023 2.012678,-0.002 -0.0016,-1.48234 -0.0016,-1.48233 1.894279,-0.002 1.894289,-0.002 0.0016,1.48233 0.0016,1.48234 2.012659,-0.002 2.012678,-0.002 -0.0016,-1.48234 -0.0016,-1.48234 1.894279,-0.002 1.894279,-0.002 0.0016,1.48234 0.0016,1.48234 2.01268,-0.002 2.012678,-0.002 0.0016,1.48235 0.0016,1.48234 -2.012678,0.002 -2.012677,0.002 0.0016,1.39515 0.0016,1.39514 2.01268,-0.002 2.01268,-0.002 0.0016,1.48233 0.0016,1.48235 -2.012678,0.002 -2.01268,0.002 0.0016,1.39514 0.0016,1.39515 -1.894276,0.002 -1.894279,0.002 -0.0016,-1.39514 -0.0016,-1.39514 -2.01268,0.002 -2.012659,0.002 0.0016,1.39515 0.0016,1.39514 -1.894287,0.002 -1.894279,0.002 -0.0016,-1.39515 -0.0016,-1.39515 -2.012681,0.002 -2.012677,0.002 -0.0016,-1.48234 -0.0016,-1.48233 2.012677,-0.002 2.012681,-0.002 -0.0016,-1.39515 -0.0016,-1.39514 -2.012681,0.002 -2.012677,0.002 -0.0016,-1.48235 -0.0016,-1.48234 z m 3.910227,2.96039 1.894287,-0.002 0.0016,1.39514 0.0016,1.39515 2.012659,-0.002 2.012677,-0.002 -0.0016,-1.39515 -0.0016,-1.39514 -2.012677,0.002 -2.012659,0.002 -0.0016,-1.48235 -0.0016,-1.48234 -1.894287,0.002 -1.894279,0.002 0.0016,1.48234 0.0016,1.48235 z m -5.557065,44.91241 c 1.270127,-3.66759 6.211245,-6.00243 11.343148,-5.36003 3.379118,0.42298 5.781831,1.67723 7.171931,3.74384 2.025912,3.01186 1.372034,6.36032 -1.682679,8.61696 -0.682657,0.50431 -1.34226,0.91705 -1.465781,0.91718 -0.201999,2.2e-4 -1.939573,-1.98005 -1.93983,-2.21079 -5.5e-5,-0.0523 0.417058,-0.40317 0.926934,-0.77956 2.034365,-1.50178 2.215316,-4.1948 0.399425,-5.94437 -0.873649,-0.84172 -2.733802,-1.54096 -4.38854,-1.64964 -3.860792,-0.25355 -6.881763,1.67106 -6.88489,4.38627 -0.0024,1.48239 0.42976,2.34846 1.598359,3.20839 l 1.015534,0.74731 -0.890302,1.12394 c -0.489667,0.61818 -0.992269,1.12557 -1.116917,1.12755 -0.124638,0.002 -0.874255,-0.48618 -1.665846,-1.08478 -1.797431,-1.35923 -2.498545,-2.57864 -2.630466,-4.57493 -0.05258,-0.79656 0.03735,-1.76927 0.20992,-2.26734 z m 0.03286,92.29495 c 0.495848,-1.46159 1.98728,-2.87439 3.711115,-3.51544 0.859258,-0.31954 0.790702,-0.36209 2.04193,1.26766 l 0.586171,0.76353 -0.983224,0.54957 c -1.296931,0.72496 -1.810075,1.51156 -1.809144,2.77328 0.0013,1.56046 0.615122,2.21415 2.078062,2.21254 1.066069,-10e-4 1.637993,-0.62271 2.662409,-2.89338 0.53222,-1.17973 1.279107,-2.46227 1.659689,-2.85009 0.958456,-0.9766 2.349228,-1.4733 4.130908,-1.47527 2.353098,-0.003 4.088003,0.87252 5.11951,2.58236 1.272265,2.10889 0.307131,4.91728 -2.190932,6.37529 -0.651503,0.38025 -1.276348,0.69146 -1.388507,0.69158 -0.214403,2.4e-4 -2.004402,-2.2484 -1.855203,-2.33056 0.04747,-0.0262 0.419351,-0.21715 0.826312,-0.42444 1.882034,-0.95861 2.003946,-3.54309 0.191058,-4.04858 -1.395841,-0.38921 -2.291212,0.35346 -3.392741,2.81409 -1.493224,3.33556 -2.862485,4.36789 -5.797725,4.37113 -2.452968,0.003 -4.093461,-0.80829 -5.147667,-2.54482 -0.59477,-0.97972 -0.821838,-3.1986 -0.441941,-4.31845 z m 7.684355,-110.87636 7.813894,-0.009 0.0016,1.48233 0.0016,1.48235 2.012681,-0.002 2.012677,-0.002 0.0048,4.36688 0.0048,4.36688 -1.953535,-0.0484 -1.953535,-0.0486 -0.06816,-4.31615 -0.06816,-4.31617 -5.797108,0.006 -5.797098,0.006 0.0048,4.35984 0.0048,4.35983 -2.01268,0.002 -2.012677,0.002 -0.0064,-5.84217 -0.0064,-5.84217 z m -5.737987,57.38175 2.01268,-0.002 -0.0016,-1.39515 -0.0016,-1.39514 5.801246,-0.006 5.801217,-0.006 0.0016,1.39514 0.0016,1.39515 2.012678,-0.002 2.012677,-0.002 0.0048,4.35983 0.0048,4.35983 -2.012678,0.002 -2.01268,0.002 -0.0048,-4.35983 -0.0048,-4.35981 -5.801217,0.006 -5.801246,0.006 0.0048,4.35983 0.0048,4.35983 -2.01268,0.002 -2.012678,0.002 -0.0048,-4.35984 -0.0048,-4.35982 z m 0.03076,27.9029 2.01268,-0.002 -0.0016,-1.39515 -0.0016,-1.39514 5.801247,-0.006 5.801217,-0.006 0.0016,1.39514 0.0016,1.39515 -5.801217,0.006 -5.801244,0.006 0.0048,4.35983 0.0048,4.35983 -2.01268,0.002 -2.012678,0.002 -0.0048,-4.35983 -0.0048,-4.35984 z m 5.933263,-95.05092 7.813916,-0.009 -0.0021,-1.91833 -0.0021,-1.91832 1.77588,-0.002 1.775899,-0.002 0.0058,5.23178 0.0058,5.2318 -1.775899,0.002 -1.775878,0.002 -0.0021,-1.91833 -0.0021,-1.91833 -7.813916,0.009 -7.813905,0.009 -0.0016,-1.39515 -0.0016,-1.39513 z m 1.817817,38.01574 9.589794,-0.0106 0.0016,1.39515 0.0016,1.39514 -3.788579,0.004 -3.788556,0.004 0.003,2.70309 0.003,2.7031 3.788558,-0.004 3.788579,-0.004 0.0013,1.30795 0.0013,1.30795 -9.589794,0.0106 -9.589804,0.0106 -0.0013,-1.30795 -0.0013,-1.30794 3.906938,-0.004 3.906967,-0.004 -0.003,-2.70309 -0.003,-2.7031 -3.906967,0.004 -3.906939,0.004 -0.0016,-1.39515 -0.0016,-1.39514 z m 0.0331,13.60265 9.607534,-0.0106 -0.0731,3.44434 c -0.0714,3.35774 -0.08938,3.46696 -0.715193,4.34298 -2.324735,3.25393 -8.599429,3.33386 -11.031424,0.14052 -0.204856,-0.26899 -0.618707,-0.13476 -3.747751,1.21558 l -3.517469,1.51797 -0.07137,-1.33724 c -0.03931,-0.73547 -0.02408,-1.42799 0.0335,-1.53892 0.05768,-0.11094 1.553414,-0.81452 3.32394,-1.56354 l 3.2191,-1.36185 -0.0011,-1.02783 -0.0011,-1.02785 -3.314999,0.004 -3.314978,0.004 -0.0016,-1.39515 -0.0016,-1.39514 9.607574,-0.0106 z m 0.703709,6.45748 c 0.197842,0.28115 0.672455,0.62988 1.054637,0.77495 1.419503,0.53885 3.240284,0.17542 3.90983,-0.78042 0.243039,-0.34697 0.358056,-1.02057 0.356876,-2.09016 l -0.0016,-1.5782 -2.841419,0.003 -2.841418,0.003 0.0016,1.5782 c 0.0013,1.06958 0.1177,1.74293 0.361474,2.08936 z m -0.672772,21.61982 9.607556,-0.0106 -0.0731,3.44435 c -0.08024,3.77751 -0.218313,4.1961 -1.763945,5.34764 -1.780678,1.32665 -5.071539,1.39869 -7.005236,0.15334 -0.374936,-0.24146 -0.500703,-0.20376 -1.430186,0.42876 -2.35008,1.59921 -5.923489,1.3019 -7.8895,-0.6564 -0.907486,-0.90391 -1.042522,-1.58071 -1.04798,-5.25224 l -0.0048,-3.44427 z m -5.57159,7.03217 c 0.638077,0.59612 1.658641,0.74345 2.676668,0.3864 1.11539,-0.39121 1.345245,-0.88597 1.343033,-2.89084 l -0.0019,-1.73572 -2.249459,0.002 -2.249437,0.002 0.0021,1.8948 c 0.0019,1.63457 0.06756,1.95601 0.479022,2.3404 z m 7.59251,-0.73001 c 0.140964,0.19349 0.620723,0.46353 1.066202,0.60008 0.701997,0.21518 0.917818,0.21495 1.619358,-0.002 1.125429,-0.34768 1.320594,-0.72301 1.318596,-2.53579 l -0.0016,-1.58101 -2.131079,0.002 -2.13106,0.002 0.0016,1.58101 c 0.0011,0.86955 0.117096,1.73931 0.257979,1.9328 z m -2.008299,21.25198 9.589794,-0.0106 0.0016,1.39514 0.0016,1.39515 -7.813916,0.009 -7.813897,0.009 0.003,2.7031 0.003,2.70307 -1.775899,0.002 -1.775878,0.002 -0.0045,-4.09823 -0.0045,-4.09825 z m -1.955841,-91.61249 c 0.08673,-0.064 0.992391,-0.11737 2.01255,-0.1185 l 1.854811,-0.002 0.0016,1.48234 0.0016,1.48235 -2.012659,0.002 -2.012677,0.002 -0.0016,-1.36609 c -7.93e-4,-0.75134 0.06954,-1.41848 0.156234,-1.48251 z m 1.914884,54.46674 2.012659,-0.002 0.0016,1.39515 0.0016,1.39514 -2.012656,0.002 -2.01268,0.002 -0.0016,-1.39514 -0.0016,-1.39515 z m 0.03076,27.90291 2.012659,-0.002 0.0016,1.39516 0.0016,1.39513 -2.012659,0.002 -2.012678,0.002 -0.0016,-1.39513 -0.0016,-1.39515 z m 5.955945,-2.855 c 0.08673,-0.064 0.992402,-0.11737 2.012554,-0.11849 l 1.854805,-0.002 0.0032,2.87749 0.0032,2.87749 -2.012677,0.002 -2.01268,0.002 -0.003,-2.76122 c -0.0016,-1.51868 0.068,-2.81362 0.154697,-2.87766 z"
       id="path1205-4"
       inkscape:connector-curvature="0" />
  </g>
</svg>
