<?xml version="1.0" encoding="UTF-8" standalone="no"?>
<!-- Created with Inkscape (http://www.inkscape.org/) -->

<svg
   xmlns:dc="http://purl.org/dc/elements/1.1/"
   xmlns:cc="http://creativecommons.org/ns#"
   xmlns:rdf="http://www.w3.org/1999/02/22-rdf-syntax-ns#"
   xmlns:svg="http://www.w3.org/2000/svg"
   xmlns="http://www.w3.org/2000/svg"
   xmlns:sodipodi="http://sodipodi.sourceforge.net/DTD/sodipodi-0.dtd"
   xmlns:inkscape="http://www.inkscape.org/namespaces/inkscape"
   width="200mm"
   height="300mm"
   viewBox="0 0 200 300"
   version="1.1"
   id="svg8"
   inkscape:version="0.92.4 (5da689c313, 2019-01-14)"
   sodipodi:docname="phone-stand.svg">
  <defs
     id="defs2" />
  <sodipodi:namedview
     id="base"
     pagecolor="#ffffff"
     bordercolor="#666666"
     borderopacity="1.0"
     inkscape:pageopacity="0.0"
     inkscape:pageshadow="2"
     inkscape:zoom="0.81088764"
     inkscape:cx="386.26587"
     inkscape:cy="383.02433"
     inkscape:document-units="mm"
     inkscape:current-layer="layer1"
     showgrid="false"
     showguides="true"
     inkscape:guide-bbox="true"
     inkscape:window-width="1920"
     inkscape:window-height="1001"
     inkscape:window-x="-9"
     inkscape:window-y="-9"
     inkscape:window-maximized="1" />
  <metadata
     id="metadata5">
    <rdf:RDF>
      <cc:Work
         rdf:about="">
        <dc:format>image/svg+xml</dc:format>
        <dc:type
           rdf:resource="http://purl.org/dc/dcmitype/StillImage" />
        <dc:title />
      </cc:Work>
    </rdf:RDF>
  </metadata>
  <g
     inkscape:label="Layer 1"
     inkscape:groupmode="layer"
     id="layer1"
     transform="translate(0,3)">
    <path
       style="opacity:1;fill:none;fill-opacity:1;stroke:#000000;stroke-width:0.80000001;stroke-miterlimit:4;stroke-dasharray:none;stroke-dashoffset:0;stroke-opacity:1"
       d="m -271.13816,7.2350908 c -3.93689,0 -7.10654,3.1691262 -7.10654,7.1060252 V 199.28849 c 0,3.9369 3.16965,7.10652 7.10654,7.10652 h 59.94725 c 3.93689,0 7.10654,-3.16962 7.10654,-7.10652 V 14.341116 c 0,-3.936899 -3.16965,-7.1060252 -7.10654,-7.1060252 h -2.39417 v 9.2350932 h -54.20961 V 7.2350908 Z M -232.7591,29.74896 h 19.77708 v 3.77703 h -19.77708 z m -35.27744,0.110072 h 19.77709 v 3.777546 h -19.77709 z"
       id="rect817"
       inkscape:connector-curvature="0" />
    <path
       style="opacity:1;fill:none;fill-opacity:1;stroke:#ff0000;stroke-width:0.2;stroke-miterlimit:4;stroke-dasharray:none;stroke-dashoffset:0;stroke-opacity:1"
       d="m 7.3418633,297.25984 c -3.936899,0 -7.10654258,-3.16964 -7.10654258,-7.10654 V 105.20594 c 0,-3.93692 3.16964358,-7.106548 7.10654258,-7.106548 H 67.289107 c 3.9369,0 7.106544,3.169628 7.106544,7.106548 V 290.1533 c 0,3.9369 -3.169644,7.10654 -7.106544,7.10654 h -2.394169 v -9.2356 h -54.20961 v 9.2356 z m 3.2845537,-25.04291 h 19.317684 v -2.81792 H 10.626417 Z m 35.046438,-0.0553 h 19.318203 v -2.81844 H 45.672855 Z"
       id="rect817-5"
       inkscape:connector-curvature="0" />
    <path
       inkscape:connector-curvature="0"
       style="opacity:1;fill:none;fill-opacity:1;stroke:#000000;stroke-width:0.83984125;stroke-miterlimit:4;stroke-dasharray:none;stroke-dashoffset:0;stroke-opacity:1"
       d="m -366.38218,-119.44483 c -3.9369,0 -7.10654,3.16912 -7.10654,7.10602 V 72.608564 c 0,3.9369 3.16964,7.10653 7.10654,7.10653 h 59.94725 c 3.93689,0 7.10654,-3.16963 7.10654,-7.10653 V -112.33881 c 0,-3.9369 -3.16965,-7.10602 -7.10654,-7.10602 h -2.39417 v 9.23509 h -54.20961 v -9.23509 z m 38.37905,22.513865 h 19.77709 v 3.77703 h -19.77709 z m -35.27743,0.110072 h 19.77709 v 3.777546 h -19.77709 z"
       id="rect817-3" />
    <path
       style="opacity:1;fill:none;fill-opacity:1;stroke:#ff0000;stroke-width:0.2;stroke-miterlimit:4;stroke-dasharray:none;stroke-dashoffset:0;stroke-opacity:1"
       d="m 98.154704,209.80109 v 19.24534 h -10.43864 v 47.85134 c 0,3.93702 3.169523,7.10654 7.10654,7.10654 h 10.472226 a 19.632849,19.749712 0 0 1 -0.0103,-0.29145 19.632849,19.749712 0 0 1 19.63291,-19.7497 19.632849,19.749712 0 0 1 19.63291,19.7497 19.632849,19.749712 0 0 1 -0.0145,0.29145 h 10.27689 c 3.93702,0 7.10655,-3.16952 7.10655,-7.10654 v -47.87201 h -9.22424 v -19.22467 h -19.53474 v 19.2903 h -15.64349 v -19.2903 z"
       id="rect913"
       inkscape:connector-curvature="0" />
    <rect
       style="opacity:1;fill:none;fill-opacity:1;stroke:#000000;stroke-width:0.83984125;stroke-miterlimit:4;stroke-dasharray:none;stroke-dashoffset:0;stroke-opacity:1"
       id="rect817-5-5"
       width="74.160164"
       height="199.16016"
       x="-288.56754"
       y="9.505497"
       rx="7.1063142"
       transform="scale(-1,1)" />
    <rect
       style="opacity:1;fill:none;fill-opacity:1;stroke:#000000;stroke-width:0.7901175;stroke-miterlimit:4;stroke-dasharray:none;stroke-dashoffset:0;stroke-opacity:1"
       id="rect823-3-4"
       width="54.209881"
       height="9.2098827"
       x="224.85713"
       y="9.531147"
       rx="0" />
    <path
       style="opacity:1;fill:none;fill-opacity:1;stroke:#000000;stroke-width:0.83984125;stroke-miterlimit:4;stroke-dasharray:none;stroke-dashoffset:0;stroke-opacity:1"
       d="m -166.00123,-24.150963 c -3.9369,0 -7.10654,3.169645 -7.10654,7.106544 V 167.90295 c 0,3.93691 3.16964,7.10654 7.10654,7.10654 h 59.94725 c 3.9369,0 7.106541,-3.16963 7.106541,-7.10654 V -17.044419 c 0,-3.936899 -3.169641,-7.106544 -7.106541,-7.106544 h -2.39417 v 9.235612 h -54.20961 v -9.235612 z"
       id="rect817-5-0"
       inkscape:connector-curvature="0" />
    <path
       style="opacity:1;fill:none;fill-opacity:1;stroke:#000000;stroke-width:0.83984125;stroke-miterlimit:4;stroke-dasharray:none;stroke-dashoffset:0;stroke-opacity:1"
       d="m -416.70101,102.88641 c -3.9369,0 -7.10654,3.16965 -7.10654,7.10655 v 184.94737 c 0,3.93691 3.16964,7.10654 7.10654,7.10654 h 59.94724 c 3.9369,0 7.10655,-3.16963 7.10655,-7.10654 V 109.99296 c 0,-3.9369 -3.16965,-7.10655 -7.10655,-7.10655 h -2.39417 v 9.23562 h -54.2096 v -9.23562 z"
       id="rect817-5-1"
       inkscape:connector-curvature="0" />
    <rect
       style="opacity:1;fill:none;fill-opacity:1;stroke:#000000;stroke-width:0.68193448;stroke-miterlimit:4;stroke-dasharray:none;stroke-dashoffset:0;stroke-opacity:1"
       id="rect969-4"
       width="19.318064"
       height="2.8180654"
       x="-413.41663"
       y="127.92955" />
    <rect
       style="opacity:1;fill:none;fill-opacity:1;stroke:#000000;stroke-width:0.79700005;stroke-miterlimit:4;stroke-dasharray:none;stroke-dashoffset:0;stroke-opacity:1"
       id="rect913-8"
       width="74.203186"
       height="74.203186"
       x="328.44339"
       y="67.309494"
       ry="7.1065288" />
    <rect
       style="opacity:1;fill:none;fill-opacity:1;stroke:#000000;stroke-width:0.75453889;stroke-miterlimit:4;stroke-dasharray:none;stroke-dashoffset:0;stroke-opacity:1"
       id="rect1006-73"
       width="10.438261"
       height="19.245461"
       x="328.44339"
       y="67.309494"
       ry="4.3122315"
       rx="0" />
    <path
       inkscape:connector-curvature="0"
       style="opacity:1;fill:none;fill-opacity:1;stroke:#000000;stroke-width:0.79699999;stroke-miterlimit:4;stroke-dasharray:none;stroke-dashoffset:0;stroke-opacity:1"
       d="m 391.79107,168.0174 v 19.24534 h -10.43864 v 47.85134 c 0,3.93702 3.16953,7.10655 7.10655,7.10655 h 59.99013 c 3.93702,0 7.10655,-3.16953 7.10655,-7.10655 v -59.99013 c 0,-3.93702 -3.16953,-7.10655 -7.10655,-7.10655 z"
       id="rect913-7" />
    <rect
       style="opacity:1;fill:none;fill-opacity:1;stroke:#000000;stroke-width:0.75453895;stroke-miterlimit:4;stroke-dasharray:none;stroke-dashoffset:0;stroke-opacity:1"
       id="rect1006-7-4"
       width="10.438261"
       height="19.245461"
       x="445.14825"
       y="167.98"
       ry="4.3122315"
       rx="0" />
    <path
       style="opacity:1;fill:none;fill-opacity:1;stroke:#000000;stroke-width:0.79699987;stroke-miterlimit:4;stroke-dasharray:none;stroke-dashoffset:0;stroke-opacity:1"
       d="m 297.59308,213.95385 v 19.24534 h -10.43865 v 47.85134 c 0,3.93702 3.16952,7.10654 7.10654,7.10654 h 59.99014 c 3.93702,0 7.10655,-3.16952 7.10655,-7.10654 v -47.87202 h -9.22424 v -19.22466 z"
       id="rect913-72"
       inkscape:connector-curvature="0" />
    <rect
       style="opacity:1;fill:none;fill-opacity:1;stroke:#000000;stroke-width:0.76446766;stroke-miterlimit:4;stroke-dasharray:none;stroke-dashoffset:0;stroke-opacity:1"
       id="rect1063-1"
       width="15.643423"
       height="19.235533"
       x="316.95526"
       y="214.00867"
       ry="4.1265888"
       rx="0" />
    <path
       style="opacity:1;fill:none;fill-opacity:1;stroke:#000000;stroke-width:0.79699987;stroke-miterlimit:4;stroke-dasharray:none;stroke-dashoffset:0;stroke-opacity:1"
       d="m -199.15159,228.66642 v 19.24534 h -10.43864 v 47.85135 c 0,3.93701 3.16952,7.10654 7.10654,7.10654 h 59.99015 c 3.93701,0 7.10653,-3.16953 7.10653,-7.10654 v -47.87202 h -9.22424 v -19.22467 h -19.53473 v 19.2903 h -15.64349 v -19.2903 z"
       id="rect913-4"
       inkscape:connector-curvature="0" />
    <ellipse
       style="opacity:1;fill:none;fill-opacity:1;stroke:#000000;stroke-width:0.79700005;stroke-miterlimit:4;stroke-dasharray:none;stroke-dashoffset:0;stroke-opacity:1"
       id="path1162-7"
       cx="-172.38867"
       cy="302.57858"
       rx="19.632849"
       ry="19.749714" />
    <path
       style="fill:none;stroke-width:0.2;fill-opacity:1;stroke:#ff0000;stroke-opacity:1;stroke-miterlimit:4;stroke-dasharray:none"
       d="m 30.446849,107.96286 2.012679,-0.002 -0.0016,-1.48234 -0.0016,-1.48233 1.894279,-0.002 1.894289,-0.002 0.0016,1.48233 0.0016,1.48234 2.012658,-0.002 2.012679,-0.002 -0.0016,-1.48234 -0.0016,-1.48234 1.894279,-0.002 1.894279,-0.002 0.0016,1.48234 0.0016,1.48234 2.012679,-0.002 2.012678,-0.002 0.0016,1.48235 0.0016,1.48234 -2.012679,0.002 -2.012678,0.002 0.0015,1.39515 0.0015,1.39514 2.012679,-0.002 2.012679,-0.002 0.0016,1.48233 0.0016,1.48235 -2.012678,0.002 -2.012679,0.002 0.0015,1.39514 0.0015,1.39515 -1.894278,0.002 -1.894279,0.002 -0.0015,-1.39514 -0.0015,-1.39514 -2.012679,0.002 -2.012658,0.002 0.0015,1.39515 0.0015,1.39514 -1.894289,0.002 -1.894279,0.002 -0.0015,-1.39515 -0.0015,-1.39515 -2.012679,0.002 -2.012679,0.002 -0.0016,-1.48234 -0.0016,-1.48233 2.012678,-0.002 2.012679,-0.002 -0.0015,-1.39515 -0.0015,-1.39514 -2.012679,0.002 -2.012679,0.002 -0.0016,-1.48235 -0.0016,-1.48234 z m 3.910227,2.96039 1.894288,-0.002 0.0015,1.39514 0.0015,1.39515 2.012659,-0.002 2.012678,-0.002 -0.0015,-1.39515 -0.0015,-1.39514 -2.012679,0.002 -2.012659,0.002 -0.0016,-1.48235 -0.0016,-1.48234 -1.894289,0.002 -1.894279,0.002 0.0016,1.48234 0.0016,1.48235 z m -5.557064,44.91241 c 1.270126,-3.66759 6.211245,-6.00243 11.343147,-5.36003 3.379118,0.42298 5.781832,1.67723 7.171932,3.74384 2.025912,3.01186 1.372033,6.36032 -1.68268,8.61696 -0.682655,0.50431 -1.34226,0.91705 -1.46578,0.91718 -0.202,2.2e-4 -1.939574,-1.98005 -1.939829,-2.21079 -5.7e-5,-0.0523 0.417056,-0.40317 0.926931,-0.77956 2.034366,-1.50178 2.215317,-4.1948 0.399426,-5.94437 -0.873648,-0.84172 -2.7338,-1.54096 -4.388541,-1.64964 -3.860792,-0.25355 -6.881762,1.67106 -6.884888,4.38627 -0.0024,1.48239 0.42976,2.34846 1.598358,3.20839 l 1.015535,0.74731 -0.890301,1.12394 c -0.489669,0.61818 -0.99227,1.12557 -1.116918,1.12755 -0.124638,0.002 -0.874256,-0.48618 -1.665847,-1.08478 -1.79743,-1.35923 -2.498545,-2.57864 -2.630466,-4.57493 -0.05258,-0.79656 0.03735,-1.76927 0.209921,-2.26734 z m 0.03286,92.29495 c 0.495849,-1.46159 1.987282,-2.87439 3.711116,-3.51544 0.859258,-0.31954 0.790701,-0.36209 2.041929,1.26766 l 0.586172,0.76353 -0.983225,0.54957 c -1.296931,0.72496 -1.810074,1.51156 -1.809143,2.77328 0.0013,1.56046 0.615122,2.21415 2.078061,2.21254 1.066069,-0.001 1.637994,-0.62271 2.662411,-2.89338 0.53222,-1.17973 1.279106,-2.46227 1.659689,-2.85009 0.958454,-0.9766 2.349227,-1.4733 4.130906,-1.47527 2.353098,-0.003 4.088004,0.87252 5.11951,2.58236 1.272266,2.10889 0.307132,4.91728 -2.190932,6.37529 -0.651501,0.38025 -1.276348,0.69146 -1.388508,0.69158 -0.2144,2.4e-4 -2.0044,-2.2484 -1.855201,-2.33056 0.04747,-0.0262 0.419351,-0.21715 0.826313,-0.42444 1.882034,-0.95861 2.003944,-3.54309 0.191056,-4.04858 -1.39584,-0.38921 -2.291212,0.35346 -3.39274,2.81409 -1.493223,3.33556 -2.862485,4.36789 -5.797724,4.37113 -2.452968,0.003 -4.093463,-0.80829 -5.147669,-2.54482 -0.59477,-0.97972 -0.821837,-3.1986 -0.441941,-4.31845 z m 7.684355,-110.87636 7.813895,-0.009 0.0016,1.48233 0.0016,1.48235 2.012679,-0.002 2.012678,-0.002 0.0048,4.36688 0.0048,4.36688 -1.953535,-0.0484 -1.953534,-0.0486 -0.06816,-4.31615 -0.06816,-4.31617 -5.797107,0.006 -5.797096,0.006 0.0048,4.35984 0.0048,4.35983 -2.012679,0.002 -2.012679,0.002 -0.0064,-5.84217 -0.0064,-5.84217 z m -5.737986,57.38175 2.012679,-0.002 -0.0015,-1.39515 -0.0015,-1.39514 5.801247,-0.006 5.801216,-0.006 0.0015,1.39514 0.0015,1.39515 2.012679,-0.002 2.012678,-0.002 0.0048,4.35983 0.0048,4.35983 -2.012678,0.002 -2.012679,0.002 -0.0048,-4.35983 -0.0048,-4.35982 -5.801217,0.006 -5.801246,0.006 0.0048,4.35983 0.0048,4.35983 -2.012679,0.002 -2.012679,0.002 -0.0048,-4.35984 -0.0048,-4.35982 z m 0.03076,27.9029 2.012679,-0.002 -0.0015,-1.39515 -0.0015,-1.39514 5.801247,-0.006 5.801216,-0.006 0.0015,1.39514 0.0015,1.39515 -5.801217,0.006 -5.801246,0.006 0.0048,4.35983 0.0048,4.35983 -2.012679,0.002 -2.012678,0.002 -0.0048,-4.35983 -0.0048,-4.35984 z m 5.933263,-95.05092 7.813915,-0.009 -0.0021,-1.91833 -0.0021,-1.91832 1.775879,-0.002 1.775899,-0.002 0.0058,5.23178 0.0058,5.2318 -1.775899,0.002 -1.775879,0.002 -0.0021,-1.91833 -0.0021,-1.91833 -7.813916,0.009 -7.813905,0.009 -0.0015,-1.39515 -0.0015,-1.39513 z m 1.817816,38.01574 9.589794,-0.0106 0.0015,1.39515 0.0015,1.39514 -3.788578,0.004 -3.788557,0.004 0.003,2.70309 0.003,2.7031 3.788558,-0.004 3.788578,-0.004 0.0014,1.30795 0.0014,1.30795 -9.589794,0.0106 -9.589804,0.0106 -0.0014,-1.30795 -0.0014,-1.30794 3.906938,-0.004 3.906968,-0.004 -0.003,-2.70309 -0.003,-2.7031 -3.906968,0.004 -3.906937,0.004 -0.0015,-1.39515 -0.0015,-1.39514 z m 0.0331,13.60265 9.607534,-0.0106 -0.0731,3.44434 c -0.0714,3.35774 -0.08938,3.46696 -0.715192,4.34298 -2.324734,3.25393 -8.599429,3.33386 -11.031422,0.14052 -0.204856,-0.26899 -0.618709,-0.13476 -3.747752,1.21558 l -3.517468,1.51797 -0.07137,-1.33724 c -0.03931,-0.73547 -0.02407,-1.42799 0.0335,-1.53892 0.05768,-0.11094 1.553412,-0.81452 3.323938,-1.56354 l 3.2191,-1.36185 -0.0011,-1.02783 -0.0011,-1.02785 -3.314998,0.004 -3.314978,0.004 -0.0015,-1.39515 -0.0015,-1.39514 9.607574,-0.0106 z m 0.703711,6.45748 c 0.19784,0.28115 0.672454,0.62988 1.054635,0.77495 1.419505,0.53885 3.240285,0.17542 3.909831,-0.78042 0.243038,-0.34697 0.358055,-1.02057 0.356876,-2.09016 l -0.0017,-1.5782 -2.841418,0.003 -2.841418,0.003 0.0017,1.5782 c 0.0012,1.06958 0.117701,1.74293 0.361474,2.08936 z m -0.672773,21.61982 9.607554,-0.0106 -0.0731,3.44435 c -0.08024,3.77751 -0.218313,4.1961 -1.763945,5.34764 -1.780678,1.32665 -5.07154,1.39869 -7.005235,0.15334 -0.374936,-0.24146 -0.500705,-0.20376 -1.430188,0.42876 -2.350078,1.59921 -5.923488,1.3019 -7.889498,-0.6564 -0.907488,-0.90391 -1.042524,-1.58071 -1.047982,-5.25224 l -0.0048,-3.44427 z m -5.57159,7.03217 c 0.638077,0.59612 1.65864,0.74345 2.676667,0.3864 1.11539,-0.39121 1.345244,-0.88597 1.343034,-2.89084 l -0.0019,-1.73572 -2.249459,0.002 -2.249438,0.002 0.0021,1.8948 c 0.0018,1.63457 0.06756,1.95601 0.479021,2.3404 z m 7.592509,-0.73001 c 0.140964,0.19349 0.620722,0.46353 1.066203,0.60008 0.701997,0.21518 0.917817,0.21495 1.619359,-0.002 1.125427,-0.34768 1.320593,-0.72301 1.318595,-2.53579 l -0.0017,-1.58101 -2.131078,0.002 -2.131059,0.002 0.0017,1.58101 c 9.59e-4,0.86955 0.117098,1.73931 0.257981,1.9328 z m -2.008299,21.25198 9.589794,-0.0106 0.0015,1.39514 0.0015,1.39515 -7.813915,0.009 -7.813896,0.009 0.003,2.7031 0.003,2.70307 -1.775899,0.002 -1.775879,0.002 -0.0045,-4.09822 -0.0045,-4.09825 z m -1.955841,-91.61249 c 0.08673,-0.064 0.992391,-0.11737 2.012551,-0.1185 l 1.854809,-0.002 0.0016,1.48234 0.0016,1.48235 -2.012658,0.002 -2.012679,0.002 -0.0015,-1.36609 c -8.29e-4,-0.75134 0.06954,-1.41848 0.156235,-1.48251 z m 1.914885,54.46674 2.012659,-0.002 0.0015,1.39515 0.0015,1.39514 -2.012658,0.002 -2.012679,0.002 -0.0015,-1.39514 -0.0015,-1.39515 z m 0.03076,27.90291 2.012659,-0.002 0.0015,1.39516 0.0015,1.39513 -2.012658,0.002 -2.012679,0.002 -0.0015,-1.39513 -0.0015,-1.39515 z m 5.955946,-2.855 c 0.08673,-0.064 0.992401,-0.11737 2.012551,-0.11849 l 1.854808,-0.002 0.0032,2.87749 0.0032,2.87749 -2.012679,0.002 -2.012679,0.002 -0.003,-2.76122 c -0.0017,-1.51868 0.068,-2.81362 0.154697,-2.87766 z"
       id="path1205-4"
       inkscape:connector-curvature="0" />
  </g>
</svg>
