<?xml version="1.0" encoding="UTF-8" standalone="no"?>
<!-- Created with Inkscape (http://www.inkscape.org/) -->

<svg
   xmlns:dc="http://purl.org/dc/elements/1.1/"
   xmlns:cc="http://creativecommons.org/ns#"
   xmlns:rdf="http://www.w3.org/1999/02/22-rdf-syntax-ns#"
   xmlns:svg="http://www.w3.org/2000/svg"
   xmlns="http://www.w3.org/2000/svg"
   xmlns:sodipodi="http://sodipodi.sourceforge.net/DTD/sodipodi-0.dtd"
   xmlns:inkscape="http://www.inkscape.org/namespaces/inkscape"
   width="490mm"
   height="290mm"
   viewBox="0 0 490 290"
   version="1.1"
   id="svg878"
   sodipodi:docname="phone-stand-final3.svg"
   inkscape:version="0.92.4 (5da689c313, 2019-01-14)">
  <defs
     id="defs872" />
  <sodipodi:namedview
     id="base"
     pagecolor="#ffffff"
     bordercolor="#666666"
     borderopacity="1.0"
     inkscape:pageopacity="0.0"
     inkscape:pageshadow="2"
     inkscape:zoom="1.9710181"
     inkscape:cx="181.46057"
     inkscape:cy="296.95303"
     inkscape:document-units="mm"
     inkscape:current-layer="layer1"
     showgrid="false"
     inkscape:window-width="1920"
     inkscape:window-height="1001"
     inkscape:window-x="-9"
     inkscape:window-y="-9"
     inkscape:window-maximized="1" />
  <metadata
     id="metadata875">
    <rdf:RDF>
      <cc:Work
         rdf:about="">
        <dc:format>image/svg+xml</dc:format>
        <dc:type
           rdf:resource="http://purl.org/dc/dcmitype/StillImage" />
        <dc:title></dc:title>
      </cc:Work>
    </rdf:RDF>
  </metadata>
  <g
     inkscape:label="Layer 1"
     inkscape:groupmode="layer"
     id="layer1"
     transform="translate(0,-7)">
    <path
       style="opacity:1;fill:none;fill-opacity:1;stroke:#ff0000;stroke-width:0.2;stroke-miterlimit:4;stroke-dasharray:none;stroke-dashoffset:0;stroke-opacity:1"
       d="m 7.5496165,206.61324 c -3.9368992,0 -7.10654214,-3.16964 -7.10654214,-7.10654 V 14.559328 c 0,-3.93692 3.16964294,-7.1065463 7.10654214,-7.1065463 H 67.496861 c 3.9369,0 7.106545,3.1696263 7.106545,7.1065463 V 199.5067 c 0,3.9369 -3.169645,7.10654 -7.106545,7.10654 h -2.394169 v -9.2356 H 10.893081 v 9.2356 z"
       id="path24"
       inkscape:connector-curvature="0" />
    <path
       style="opacity:1;fill:none;fill-opacity:1;stroke:#ff0000;stroke-width:0.222064;stroke-miterlimit:4;stroke-dasharray:none;stroke-dashoffset:0;stroke-opacity:1"
       d="m 10.845202,181.5593 h 19.295621 v -3.47794 H 10.845202 Z"
       id="path22"
       inkscape:connector-curvature="0" />
    <path
       style="opacity:1;fill:none;fill-opacity:1;stroke:#ff0000;stroke-width:0.2220442;stroke-miterlimit:4;stroke-dasharray:none;stroke-dashoffset:0;stroke-opacity:1"
       d="m 45.89163,181.50401 h 19.29616 v -3.47796 H 45.89163 Z"
       id="rect817-5"
       inkscape:connector-curvature="0" />
    <path
       style="opacity:1;fill:none;fill-opacity:1;stroke:#ff0000;stroke-width:0.2;stroke-miterlimit:4;stroke-dasharray:none;stroke-dashoffset:0;stroke-opacity:1"
       d="m 10.893081,206.61324 v 19.24534 H 0.454445 v 47.85134 c 0,3.93702 3.16953,7.10654 7.10654,7.10654 h 10.472216 a 19.632849,19.749712 0 0 1 -0.0103,-0.29145 19.632849,19.749712 0 0 1 19.63292,-19.7497 19.632849,19.749712 0 0 1 19.63291,19.7497 19.632849,19.749712 0 0 1 -0.0145,0.29145 h 10.2769 c 3.93702,0 7.10655,-3.16952 7.10655,-7.10654 v -47.87201 h -9.22425 v -19.22467 h -19.53474 v 19.2903 h -15.64349 v -19.2903 z"
       id="rect913"
       inkscape:connector-curvature="0" />
    <path
       style="fill:none;fill-opacity:1;stroke:#ff0000;stroke-width:0.2;stroke-miterlimit:4;stroke-dasharray:none;stroke-opacity:1"
       d="m 30.654603,17.316248 2.012678,-0.002 -0.0016,-1.48234 -0.0016,-1.48233 1.894279,-0.002 1.894289,-0.002 0.0016,1.48233 0.0016,1.48234 2.012658,-0.002 2.012678,-0.002 -0.0016,-1.48234 -0.0016,-1.48234 1.894279,-0.002 1.894279,-0.002 0.0016,1.48234 0.0016,1.48234 2.01268,-0.002 2.012678,-0.002 0.0016,1.48235 0.0016,1.48234 -2.01268,0.002 -2.012678,0.002 0.0016,1.39515 0.0016,1.39514 2.012678,-0.002 2.01268,-0.002 0.0016,1.48233 0.0016,1.48235 -2.012678,0.002 -2.01268,0.002 0.0016,1.39514 0.0016,1.39515 -1.894276,0.002 -1.894279,0.002 -0.0016,-1.39514 -0.0016,-1.39514 -2.012681,0.002 -2.012655,0.002 0.0016,1.39515 0.0016,1.39514 -1.894287,0.002 -1.894279,0.002 -0.0016,-1.39515 -0.0016,-1.39515 -2.01268,0.002 -2.012678,0.002 -0.0016,-1.48234 -0.0016,-1.48233 2.012678,-0.002 2.01268,-0.002 -0.0016,-1.39515 -0.0016,-1.39514 -2.012678,0.002 -2.01268,0.002 -0.0016,-1.48235 -0.0016,-1.48234 z m 3.910227,2.96039 1.894287,-0.002 0.0016,1.39514 0.0016,1.39515 2.012658,-0.002 2.012677,-0.002 -0.0016,-1.39515 -0.0016,-1.39514 -2.012677,0.002 -2.012658,0.002 -0.0016,-1.48235 -0.0016,-1.48234 -1.894287,0.002 -1.894279,0.002 0.0016,1.48234 0.0016,1.48235 z m -5.557065,44.91242 c 1.270127,-3.66759 6.211245,-6.00243 11.343147,-5.36003 3.379118,0.42298 5.781831,1.67723 7.171931,3.74384 2.025912,3.01186 1.372034,6.36032 -1.682679,8.61696 -0.682654,0.50431 -1.34226,0.91705 -1.465781,0.91718 -0.201999,2.2e-4 -1.939573,-1.98005 -1.939827,-2.21079 -5.8e-5,-0.0523 0.417055,-0.40317 0.926931,-0.77956 2.034365,-1.50178 2.215316,-4.1948 0.399425,-5.94437 -0.873649,-0.84172 -2.733799,-1.54096 -4.38854,-1.64964 -3.860791,-0.25355 -6.881762,1.67106 -6.884889,4.38627 -0.0024,1.48239 0.42976,2.34846 1.598359,3.20839 l 1.015534,0.74731 -0.890299,1.12394 c -0.48967,0.61818 -0.992272,1.12557 -1.11692,1.12755 -0.124637,0.002 -0.874255,-0.48618 -1.665846,-1.08478 -1.797431,-1.35923 -2.498545,-2.57864 -2.630466,-4.57493 -0.05258,-0.79656 0.03735,-1.76927 0.20992,-2.26734 z m 0.03286,92.294952 c 0.495848,-1.46159 1.98728,-2.87439 3.711115,-3.51544 0.859258,-0.31954 0.790702,-0.36209 2.04193,1.26766 l 0.586171,0.76353 -0.983223,0.54957 c -1.296932,0.72496 -1.810076,1.51156 -1.809145,2.77328 0.0013,1.56046 0.615122,2.21415 2.078062,2.21254 1.066069,-10e-4 1.637993,-0.62271 2.662411,-2.89338 0.53222,-1.17973 1.279104,-2.46227 1.659689,-2.85009 0.958453,-0.9766 2.349225,-1.4733 4.130905,-1.47527 2.353098,-0.003 4.088003,0.87252 5.11951,2.58236 1.272265,2.10889 0.307131,4.91728 -2.190932,6.37529 -0.651502,0.38025 -1.276348,0.69146 -1.388507,0.69158 -0.2144,2.4e-4 -2.004402,-2.2484 -1.855203,-2.33056 0.04747,-0.0262 0.419351,-0.21715 0.826315,-0.42444 1.882034,-0.95861 2.003943,-3.54309 0.191056,-4.04858 -1.395842,-0.38921 -2.291213,0.35346 -3.392742,2.81409 -1.493221,3.33556 -2.862485,4.36789 -5.797724,4.37113 -2.452968,0.003 -4.093461,-0.80829 -5.147667,-2.54482 -0.59477,-0.97972 -0.821838,-3.1986 -0.441941,-4.31845 z m 7.684355,-110.876372 7.813894,-0.009 0.0016,1.48233 0.0016,1.48236 2.012677,-0.002 2.012678,-0.002 0.0048,4.36688 0.0048,4.36688 -1.953535,-0.0484 -1.953535,-0.0486 -0.06816,-4.31616 -0.06816,-4.31616 -5.797108,0.006 -5.797094,0.006 0.0048,4.35984 0.0048,4.35982 -2.01268,0.002 -2.012677,0.002 -0.0064,-5.84217 -0.0064,-5.84217 z m -5.737987,57.381762 2.01268,-0.002 -0.0016,-1.39515 -0.0016,-1.39514 5.801245,-0.006 5.801217,-0.006 0.0016,1.39514 0.0016,1.39515 2.012678,-0.002 2.01268,-0.002 0.0048,4.35982 0.0048,4.35983 -2.012678,0.002 -2.01268,0.002 -0.0048,-4.35983 -0.0048,-4.35982 -5.801217,0.006 -5.801245,0.006 0.0048,4.35983 0.0048,4.35983 -2.012677,0.002 -2.012681,0.002 -0.0048,-4.35984 -0.0048,-4.35982 z m 0.03076,27.9029 2.012681,-0.002 -0.0016,-1.39515 -0.0016,-1.39514 5.801245,-0.006 5.801217,-0.006 0.0016,1.39514 0.0016,1.39515 -5.801217,0.006 -5.801245,0.006 0.0048,4.35983 0.0048,4.35983 -2.01268,0.002 -2.012677,0.002 -0.0048,-4.35983 -0.0048,-4.35984 z m 5.933263,-95.050932 7.813915,-0.009 -0.0021,-1.91833 -0.0021,-1.91832 1.775878,-0.002 1.775899,-0.002 0.0058,5.23178 0.0058,5.2318 -1.7759,0.002 -1.775878,0.002 -0.0021,-1.91833 -0.0021,-1.91833 -7.813915,0.009 -7.813905,0.009 -0.0016,-1.39515 -0.0016,-1.39513 z m 1.817816,38.01575 9.589794,-0.0106 0.0016,1.39515 0.0016,1.39514 -3.788579,0.004 -3.788556,0.004 0.003,2.703092 0.003,2.7031 3.788558,-0.004 3.788579,-0.004 0.0013,1.30795 0.0013,1.30795 -9.589794,0.0106 -9.589803,0.0106 -0.0013,-1.30795 -0.0013,-1.30794 3.906938,-0.004 3.906967,-0.004 -0.003,-2.70309 -0.003,-2.703102 -3.906967,0.004 -3.906936,0.004 -0.0016,-1.39515 -0.0016,-1.39514 z m 0.0331,13.602652 9.607534,-0.0106 -0.0731,3.44434 c -0.0714,3.35774 -0.08938,3.46696 -0.715193,4.34298 -2.324735,3.25393 -8.599429,3.33386 -11.031423,0.14052 -0.204853,-0.26899 -0.618707,-0.13476 -3.747751,1.21558 l -3.517466,1.51797 -0.07137,-1.33724 c -0.03931,-0.73547 -0.02408,-1.42799 0.0335,-1.53892 0.05768,-0.11094 1.553414,-0.81452 3.32394,-1.56354 l 3.2191,-1.36185 -0.0011,-1.02783 -0.0011,-1.02785 -3.314997,0.004 -3.314977,0.004 -0.0016,-1.39515 -0.0016,-1.39514 9.607572,-0.0106 z m 0.703712,6.45748 c 0.197839,0.28115 0.672452,0.62988 1.054634,0.77495 1.419506,0.53885 3.240284,0.17542 3.90983,-0.78042 0.243039,-0.34697 0.358056,-1.02057 0.356876,-2.09016 l -0.0016,-1.5782 -2.841418,0.003 -2.841419,0.003 0.0016,1.5782 c 0.0013,1.06958 0.1177,1.74293 0.361474,2.08936 z m -0.672775,21.61982 9.607556,-0.0106 -0.0731,3.44435 c -0.08024,3.77751 -0.218313,4.1961 -1.763945,5.34764 -1.780678,1.32665 -5.071539,1.39869 -7.005233,0.15334 -0.374938,-0.24146 -0.500706,-0.20376 -1.430189,0.42876 -2.350076,1.59921 -5.923488,1.3019 -7.889499,-0.6564 -0.907486,-0.90391 -1.042522,-1.58071 -1.04798,-5.25224 l -0.0048,-3.44427 z m -5.571589,7.03217 c 0.638077,0.59612 1.658641,0.74345 2.676668,0.3864 1.11539,-0.39121 1.345244,-0.88597 1.343032,-2.89084 l -0.0019,-1.73572 -2.249458,0.002 -2.249437,0.002 0.0021,1.8948 c 0.0019,1.63457 0.06756,1.95601 0.479022,2.3404 z m 7.592509,-0.73001 c 0.140964,0.19349 0.620723,0.46353 1.066202,0.60008 0.701997,0.21518 0.917818,0.21495 1.619361,-0.002 1.125426,-0.34768 1.320591,-0.72301 1.318593,-2.53579 l -0.0016,-1.58101 -2.131079,0.002 -2.13106,0.002 0.0016,1.58101 c 0.0011,0.86955 0.117096,1.73931 0.257979,1.9328 z m -2.008299,21.25198 9.589794,-0.0106 0.0016,1.39514 0.0016,1.39515 -7.813916,0.009 -7.813894,0.009 0.003,2.7031 0.003,2.70307 -1.775899,0.002 -1.775878,0.002 -0.0045,-4.09822 -0.0045,-4.09825 z M 36.88965,52.478718 c 0.08673,-0.064 0.99239,-0.11737 2.012552,-0.1185 l 1.854808,-0.002 0.0016,1.48234 0.0016,1.48235 -2.012656,0.002 -2.012679,0.002 -0.0016,-1.36609 c -7.93e-4,-0.75134 0.06954,-1.41848 0.156237,-1.48251 z m 1.914884,54.466742 2.012658,-0.002 0.0016,1.39515 0.0016,1.39514 -2.012656,0.002 -2.012679,0.002 -0.0016,-1.39514 -0.0016,-1.39515 z m 0.03076,27.90291 2.012659,-0.002 0.0016,1.39516 0.0016,1.39513 -2.012656,0.002 -2.01268,0.002 -0.0016,-1.39513 -0.0016,-1.39515 z m 5.955948,-2.855 c 0.08673,-0.064 0.992399,-0.11737 2.012551,-0.11849 l 1.854808,-0.002 0.0032,2.87749 0.0032,2.87749 -2.012677,0.002 -2.012681,0.002 -0.003,-2.76122 c -0.0016,-1.51868 0.068,-2.81362 0.154699,-2.87766 z"
       id="path1205-4"
       inkscape:connector-curvature="0" />
    <text
       xml:space="preserve"
       style="font-style:normal;font-weight:normal;font-size:10.58333302px;line-height:1.25;font-family:sans-serif;letter-spacing:0px;word-spacing:0px;fill:#000000;fill-opacity:1;stroke:none;stroke-width:0.26458332"
       x="31.545668"
       y="244.64761"
       id="text837"><tspan
         sodipodi:role="line"
         id="tspan835"
         x="31.545668"
         y="254.01138"
         style="stroke-width:0.26458332" /></text>
    <path
       style="fill:#000000;fill-opacity:1;stroke-width:0.01203332"
       d="m 38.029073,192.44041 c -0.285033,-0.0243 -0.551024,-0.13176 -0.759876,-0.30705 -0.164797,-0.13832 -0.275694,-0.29702 -0.34571,-0.49474 -0.03358,-0.0948 -0.03575,-0.11352 -0.03575,-0.30845 0,-0.19388 0.0022,-0.21396 0.03498,-0.30607 0.08396,-0.23657 0.24548,-0.44077 0.460708,-0.58246 0.08408,-0.0553 0.3218,-0.16578 0.356874,-0.16578 0.01605,0 0.01819,-0.0482 0.01497,-0.33485 l -0.0038,-0.33485 -0.04519,-0.0747 c -0.04132,-0.0683 -0.112536,-0.12994 -0.8327,-0.72042 -0.502122,-0.4117 -0.806817,-0.66973 -0.840777,-0.71203 -0.0748,-0.0931 -0.137618,-0.20118 -0.184534,-0.31736 -0.07651,-0.18946 -0.07849,-0.21563 -0.07861,-1.04312 l -1.16e-4,-0.75281 -0.07716,-0.0432 c -0.04244,-0.0237 -0.108948,-0.073 -0.147797,-0.10948 -0.380492,-0.35704 -0.25558,-0.93544 0.248104,-1.14882 0.249634,-0.10575 0.558021,-0.094 0.800639,0.0304 0.09305,0.0477 0.229436,0.16624 0.284393,0.24709 0.227331,0.33441 0.113752,0.7666 -0.259302,0.9867 l -0.07522,0.0444 0.004,0.75352 c 0.0039,0.70647 0.0057,0.75702 0.02852,0.8096 0.01341,0.0309 0.0379,0.0748 0.05442,0.0977 0.02741,0.038 1.099407,0.9292 1.128182,0.93788 0.0079,0.002 0.01125,-0.97371 0.0092,-2.70309 l -0.0033,-2.70683 -0.332415,-0.006 -0.332416,-0.006 0.526067,-0.79304 c 0.289337,-0.43616 0.528971,-0.79312 0.532522,-0.79325 0.0036,-1.1e-4 0.242857,0.35675 0.531793,0.79304 l 0.52534,0.79325 -0.331687,0.006 -0.331689,0.006 -0.0033,1.9834 c -0.002,1.23801 0.0013,1.98198 0.0089,1.97964 0.0067,-0.002 0.260934,-0.20866 0.564979,-0.45911 0.594283,-0.48952 0.60708,-0.50233 0.636276,-0.63694 0.0072,-0.0335 0.01309,-0.23404 0.01309,-0.45144 v -0.39104 h -0.225756 -0.225926 v -0.72904 -0.72905 h 0.832703 0.832696 v 0.72905 0.72904 h -0.222695 -0.222702 v 0.45706 0.45706 l -0.03551,0.11189 c -0.04288,0.13521 -0.137737,0.30728 -0.231221,0.41952 -0.04912,0.0589 -0.28788,0.26289 -0.830632,0.70941 -0.418933,0.34466 -0.782955,0.65011 -0.808944,0.67878 -0.0912,0.10063 -0.08831,0.0613 -0.08831,1.20306 v 1.02379 l 0.02797,0.007 c 0.06113,0.0139 0.279834,0.11478 0.352888,0.16279 0.361044,0.23726 0.548126,0.60452 0.508575,0.99834 -0.04626,0.46051 -0.427551,0.85581 -0.938602,0.97309 -0.08398,0.0193 -0.315061,0.0468 -0.357491,0.0427 -0.0071,-5e-4 -0.05649,-0.005 -0.109734,-0.01 z"
       id="path850-6"
       inkscape:connector-curvature="0" />
    <flowRoot
       xml:space="preserve"
       id="flowRoot875"
       style="fill:black;fill-opacity:1;stroke:none;font-family:sans-serif;font-style:normal;font-weight:normal;font-size:40px;line-height:1.25;letter-spacing:0px;word-spacing:0px"><flowRegion
         id="flowRegion877"><rect
           id="rect879"
           width="222.42627"
           height="111.93064"
           x="63.857864"
           y="829.86896" /></flowRegion><flowPara
         id="flowPara881"></flowPara></flowRoot>    <path
       style="fill:#000000;fill-opacity:1;stroke-width:0.06610674"
       d="m 36.855853,254.86152 c -2.578124,-0.40159 -5.003648,-2.0778 -6.693128,-4.62542 -0.536832,-0.80951 -1.170772,-2.19341 -1.435208,-3.1331 -0.179648,-0.63842 -0.213816,-0.7056 -0.423628,-0.83294 -0.190544,-0.11566 -0.237312,-0.19066 -0.283284,-0.45426 -0.08925,-0.51179 -0.08198,-2.70659 0.01104,-3.33559 0.07968,-0.53874 0.09353,-0.57031 0.307728,-0.70163 0.206992,-0.12692 0.243984,-0.20246 0.479588,-0.97948 0.425644,-1.4038 0.926568,-2.42717 1.717204,-3.50819 1.449072,-1.98127 3.516808,-3.32299 5.797316,-3.76177 0.663496,-0.12766 0.930612,-0.14296 1.922804,-0.11021 1.220284,0.0403 1.769276,0.14225 2.771656,0.51478 2.833476,1.05305 5.13058,3.65834 6.070752,6.88521 0.205516,0.70538 0.256312,0.81317 0.454788,0.9651 0.25572,0.19575 0.262296,0.21403 0.361956,1.00651 0.07321,0.58216 0.04558,2.70015 -0.04055,3.10826 -0.02808,0.13295 -0.1085,0.21925 -0.273812,0.29377 -0.20262,0.0913 -0.239468,0.14343 -0.274144,0.38768 -0.02204,0.15521 -0.126764,0.57556 -0.23274,0.93412 -1.095976,3.70808 -3.834924,6.42181 -7.2808,7.21376 -0.753272,0.17312 -2.264804,0.2413 -2.957544,0.1334 z m 2.74578,-5.35177 c 0.774888,-0.2199 1.73442,-0.64324 2.516288,-1.11017 1.173384,-0.70075 2.524712,-1.79575 2.89984,-2.34979 l 0.164756,-0.24333 -0.12286,-1.78006 c -0.09956,-1.44252 -0.145048,-1.82274 -0.239896,-2.0052 -0.254116,-0.48885 -0.17894,-0.46896 -3.617676,-0.9569 l -3.163792,-0.44892 -3.176508,0.43272 c -3.493692,0.47594 -3.553868,0.49158 -3.77792,0.98175 -0.08832,0.19322 -0.140192,0.63746 -0.233316,1.99824 -0.06905,1.00906 -0.09727,1.79709 -0.06665,1.86152 0.124544,0.26216 0.973456,1.07241 1.68466,1.60795 1.340391,1.00932 2.947903,1.80673 4.259004,2.11269 0.801428,0.18702 2.009792,0.14476 2.874076,-0.1005 z m -5.444748,-3.19593 c -0.653312,-0.25417 -1.048376,-0.94146 -0.992436,-1.72652 0.01672,-0.23468 0.07532,-0.52453 0.130212,-0.6441 0.126676,-0.27596 0.43578,-0.62559 0.677616,-0.76648 0.273588,-0.15936 0.805248,-0.20239 1.1526,-0.0933 0.382272,0.1201 0.891104,0.6754 1.000276,1.09165 0.247892,0.94513 -0.194332,1.89483 -1.009964,2.16894 -0.394448,0.13258 -0.55276,0.12758 -0.958304,-0.0302 z m 6.542308,0.0303 c -0.781448,-0.27489 -1.230052,-1.22087 -1.006744,-2.12293 0.114164,-0.46117 0.600648,-1.00915 1.010116,-1.13778 0.347352,-0.10912 0.879012,-0.0661 1.1526,0.0933 1.197648,0.69767 1.039408,2.73228 -0.245948,3.16229 -0.385544,0.12897 -0.555248,0.12993 -0.910024,0.005 z m -2.271056,-7.82499 c 0.813736,-0.5589 0.463608,-1.96382 -0.489636,-1.96469 -0.509576,-4.6e-4 -0.927712,0.47376 -0.927712,1.05219 0,0.80658 0.811188,1.32883 1.417348,0.9125 z m -0.763556,-6.46011 c -0.72626,-0.61555 -1.265548,-1.4197 -1.476308,-2.20136 -0.140032,-0.51935 -0.184908,-1.50933 -0.09167,-2.02236 l 0.04801,-0.26416 0.269773,0.20909 c 0.148372,0.115 0.435812,0.41322 0.638756,0.66271 0.636372,0.78234 0.89676,1.57905 0.88436,2.70584 -0.0041,0.36814 -0.02508,0.75919 -0.04671,0.86898 l -0.03936,0.19963 z"
       id="path910"
       inkscape:connector-curvature="0" />
  </g>
</svg>
