<?xml version="1.0" encoding="UTF-8" standalone="no"?>
<!-- Created with Inkscape (http://www.inkscape.org/) -->

<svg
   xmlns:osb="http://www.openswatchbook.org/uri/2009/osb"
   xmlns:dc="http://purl.org/dc/elements/1.1/"
   xmlns:cc="http://creativecommons.org/ns#"
   xmlns:rdf="http://www.w3.org/1999/02/22-rdf-syntax-ns#"
   xmlns:svg="http://www.w3.org/2000/svg"
   xmlns="http://www.w3.org/2000/svg"
   xmlns:sodipodi="http://sodipodi.sourceforge.net/DTD/sodipodi-0.dtd"
   xmlns:inkscape="http://www.inkscape.org/namespaces/inkscape"
   width="210mm"
   height="297mm"
   viewBox="0 0 210 297"
   version="1.1"
   id="svg8"
   inkscape:version="0.92.4 (5da689c313, 2019-01-14)"
   sodipodi:docname="shield.svg">
  <defs
     id="defs2">
    <linearGradient
       inkscape:collect="always"
       id="linearGradient4777"
       osb:paint="gradient">
      <stop
         style="stop-color:#000000;stop-opacity:1;"
         offset="0"
         id="stop4773" />
      <stop
         style="stop-color:#000000;stop-opacity:0;"
         offset="1"
         id="stop4775" />
    </linearGradient>
  </defs>
  <sodipodi:namedview
     id="base"
     pagecolor="#ffffff"
     bordercolor="#666666"
     borderopacity="1.0"
     inkscape:pageopacity="0.0"
     inkscape:pageshadow="2"
     inkscape:zoom="0.32"
     inkscape:cx="-514.83114"
     inkscape:cy="563.7901"
     inkscape:document-units="mm"
     inkscape:current-layer="layer1"
     showgrid="false"
     showguides="false"
     inkscape:window-width="1920"
     inkscape:window-height="1001"
     inkscape:window-x="-9"
     inkscape:window-y="-9"
     inkscape:window-maximized="1" />
  <metadata
     id="metadata5">
    <rdf:RDF>
      <cc:Work
         rdf:about="">
        <dc:format>image/svg+xml</dc:format>
        <dc:type
           rdf:resource="http://purl.org/dc/dcmitype/StillImage" />
        <dc:title></dc:title>
      </cc:Work>
    </rdf:RDF>
  </metadata>
  <g
     inkscape:label="Layer 1"
     inkscape:groupmode="layer"
     id="layer1">
    <path
       style="fill:#000000;stroke-width:0.362331"
       d="m -158.60689,228.83513 c -15.9734,-9.30777 -33.12085,-25.00517 -47.45822,-43.44501 -25.57747,-32.89615 -39.26692,-75.29653 -37.34229,-115.660458 0.34367,-7.20747 0.7759,-11.005924 1.44398,-12.689684 0.40094,-1.01047 0.45309,-1.02826 10.01133,-3.41498 18.77689,-4.68863 33.24229,-9.66672 55.89231,-19.23469 19.17908,-8.101761 22.00596,-9.237091 22.87993,-9.189101 0.47087,0.0259 5.55115,2.22065 11.28951,4.877321 5.73837,2.65667 12.68201,5.78951 15.43038,6.96185 15.72165,6.7063 32.519584,12.17561 51.493519,16.76601 4.60424,1.1139 8.57885,2.14818 8.83247,2.29837 0.78726,0.46622 1.1681,6.086594 1.20201,17.738774 0.0334,11.51031 -0.34737,18.136726 -1.59007,27.664978 -4.40702,33.79015 -17.244395,62.67949 -39.716829,89.37913 -14.36468,17.06675 -33.0206,33.2332 -45.02467,39.01649 -1.61761,0.77932 -2.98644,1.40836 -3.04184,1.39789 -0.0554,-0.0107 -1.99111,-1.12058 -4.30152,-2.46689 z m 9.59665,-21.50208 c 9.40084,-4.80989 14.59199,-8.49933 22.87456,-16.2573 8.81992,-8.26129 21.02968,-22.01118 26.07695,-29.36623 13.917604,-20.28122 21.361189,-48.36756 23.051679,-86.979288 l 0.24846,-5.67488 -9.026875,-2.6213 c -4.96479,-1.44172 -17.092714,-5.172014 -26.950984,-8.289544 -16.28,-5.1483 -17.96555,-5.61395 -18.37581,-5.07636 -0.2484,0.32553 -2.06199,3.53682 -4.03015,7.13616 -1.96817,3.599374 -3.85962,6.685884 -4.20323,6.858934 -0.3436,0.17303 -6.81538,0.37285 -14.38177,0.444 l -13.75703,0.12937 -0.96411,-0.86685 c -0.53027,-0.47677 -2.57057,-3.80216 -4.53398,-7.389734 -3.10408,-5.6718 -3.67052,-6.50218 -4.34147,-6.36425 -0.42438,0.0873 -5.35218,1.54943 -10.95065,3.24927 -5.5985,1.69985 -17.00511,4.97353 -25.34804,7.274844 l -15.16897,4.18421 -0.31226,1.37497 c -0.51632,2.27354 -0.055,19.99395 0.64514,24.783796 2.88146,19.711592 9.56522,39.767092 19.79873,59.408732 12.19453,23.40555 23.29578,36.579 40.50958,48.07125 3.52401,2.35268 13.65767,8.31274 14.14323,8.31822 0.21937,0.004 2.46802,-1.05414 4.997,-2.34806 z m -23.10272,-17.3816 c -4.39184,-4.1829 -7.33664,-8.08175 -8.19429,-10.84909 -1.08268,-3.4934 -0.84827,-3.43422 4.15493,1.04896 4.82598,4.32434 6.23079,5.41613 6.96901,5.41613 0.23056,0 1.14247,-0.99752 2.02645,-2.21673 0.884,-1.21922 1.7826,-2.33402 1.99692,-2.47733 0.62906,-0.42065 3.60436,-0.28015 5.13355,0.24241 2.85567,0.97592 3.5852,2.52555 2.01131,4.27247 -0.6476,0.7188 -1.2882,0.96911 -2.88017,1.12542 l -2.04734,0.20104 -1.83921,2.81376 c -1.01156,1.54759 -2.18326,3.12508 -2.60375,3.50554 -0.76415,0.69139 -0.76654,0.68985 -4.72741,-3.08258 z m 30.86961,1.63058 c -0.81655,-0.98986 -1.94685,-2.58829 -2.51178,-3.5521 -1.01965,-1.73961 -1.0408,-1.7524 -2.90117,-1.75274 -1.56981,-2.6e-4 -2.0355,-0.1619 -2.86863,-0.99517 -1.29418,-1.29434 -1.25747,-2.27701 0.12681,-3.39306 1.06455,-0.85832 2.36322,-1.25936 4.43087,-1.36821 2.41457,-0.12725 2.74949,0.0478 4.18881,2.18855 1.99766,2.9712 2.20133,3.08865 3.66377,2.11307 0.66883,-0.44614 3.21119,-2.6556 5.64973,-4.90988 3.86548,-3.57343 4.45002,-3.99538 4.56118,-3.2924 0.19483,1.23218 -0.91737,4.04965 -2.55982,6.48465 -1.44372,2.14035 -8.39751,9.30359 -9.66056,9.95151 -0.50831,0.26076 -0.92972,-0.0324 -2.11912,-1.47422 z m -13.53237,-11.04413 c -1.6485,-1.87723 -1.80434,-2.46644 -1.14479,-4.32793 0.7924,-2.23641 0.74795,-2.80038 -0.34219,-4.33964 -1.00981,-1.42581 -0.96741,-2.14425 0.22159,-3.75577 0.6221,-0.84317 0.65982,-1.17802 0.30901,-2.74531 -0.3725,-1.66439 -0.582,-1.91108 -3.10019,-3.65051 -1.48537,-1.02604 -3.00768,-2.03953 -3.3829,-2.25218 -0.61756,-0.34999 -0.53417,-0.48054 0.87983,-1.37717 0.85916,-0.54481 1.56207,-1.17977 1.56207,-1.41104 0,-1.47832 1.30308,-4.22525 2.7259,-5.74635 0.88447,-0.94554 1.88652,-2.23789 2.22676,-2.87187 0.34022,-0.63399 0.73924,-1.14648 0.88669,-1.13888 0.14749,0.008 0.81284,0.68592 1.47866,1.50738 0.66579,0.82145 1.78482,2.17765 2.48675,3.01376 0.87665,1.04426 1.42103,2.19208 1.73881,3.66635 0.37031,1.71791 0.65501,2.2415 1.42677,2.6239 2.08541,1.03333 2.02691,1.38579 -0.49093,2.95768 -3.23382,2.01888 -4.35485,3.22679 -4.59644,4.95275 -0.15695,1.12177 -0.0291,1.64478 0.58491,2.39283 0.9827,1.1971 0.9969,2.4763 0.0442,3.97366 -0.88657,1.39334 -0.95828,3.52361 -0.15554,4.62171 0.53855,0.73679 0.52361,0.9162 -0.19444,2.33749 -0.42774,0.84669 -1.08592,1.8067 -1.4626,2.13333 -0.64766,0.56166 -0.74013,0.53099 -1.70185,-0.56419 z m -19.56775,-6.65966 c -0.94397,-0.96702 -1.71631,-1.90757 -1.71631,-2.09013 0,-0.59706 1.11174,-0.76252 5.12426,-0.76252 h 3.95325 l 2.22734,-3.45811 2.22733,-3.4581 1.79938,-0.11026 1.79937,-0.11025 -0.21572,1.27374 c -0.1226,0.72433 -1.02323,2.33757 -2.08788,3.74018 -1.02969,1.35653 -1.87216,2.54865 -1.87216,2.64919 0,0.1006 0.46786,0.18276 1.0397,0.18276 0.57182,0 1.35083,0.21802 1.73112,0.48447 0.61095,0.42805 0.63678,0.61088 0.22194,1.57057 -0.53585,1.23956 -1.43932,1.73172 -1.75086,0.95377 -0.17105,-0.42711 -1.10359,-0.52605 -4.95804,-0.52605 -4.42228,0 -4.76345,0.0486 -4.98233,0.70935 -0.12927,0.39015 -0.36751,0.70937 -0.52951,0.70937 -0.16201,0 -1.06691,-0.7912 -2.01088,-1.7582 z m 38.44466,1.04857 c -0.21883,-0.66066 -0.56057,-0.70908 -5.00348,-0.70908 -4.14674,0 -4.81923,0.0811 -5.15707,0.62069 -0.35939,0.57419 -0.4439,0.55799 -1.12882,-0.21665 -0.8346,-0.94389 -0.96267,-2.00392 -0.29024,-2.40214 0.24755,-0.14668 1.00962,-0.35552 1.69346,-0.46428 l 1.24334,-0.19772 -2.0636,-2.75451 c -1.42125,-1.89711 -2.06361,-3.08999 -2.06361,-3.83224 0,-1.06224 0.0249,-1.07617 1.73041,-0.96963 l 1.73041,0.10822 2.20492,3.45812 2.20495,3.45811 h 3.99255 c 4.79451,0 5.30896,0.129 4.7414,1.18817 -0.5157,0.96246 -2.1594,2.6732 -2.97685,3.09825 -0.47216,0.24551 -0.67974,0.15228 -0.85777,-0.3852 z m -42.82089,-10.81657 c -0.13963,-0.1381 0.55804,-1.24119 1.55047,-2.45126 0.99244,-1.21008 2.57048,-3.38826 3.50674,-4.8404 l 1.70231,-2.64024 -1.004,-0.77206 -1.00399,-0.77206 -3.14026,2.81526 c -1.72714,1.5484 -3.90506,3.30651 -4.83983,3.90692 -1.59847,1.02673 -1.86464,1.08274 -4.47566,0.94151 -4.09875,-0.22161 -8.93222,-2.61765 -6.74895,-3.34551 5.5586,-1.85324 16.00265,-6.63477 16.00265,-7.32641 0,-0.19652 -0.24708,-0.61891 -0.54909,-0.93867 -0.50765,-0.53751 -0.79402,-0.52219 -3.79618,0.20303 -3.58638,0.86636 -9.85223,1.56386 -14.04869,1.56386 -3.05039,0 -4.65813,-0.70602 -6.58833,-2.89312 -1.15026,-1.3034 -2.97329,-4.84169 -2.65278,-5.14877 0.11107,-0.10644 3.00145,0.14247 6.42302,0.55319 6.90616,0.82898 18.44896,1.6029 19.00404,1.27418 0.1965,-0.11633 0.35727,-0.65852 0.35727,-1.2048 v -0.99324 l -6.19997,-0.7895 c -8.64754,-1.10113 -16.37428,-2.3706 -19.76489,-3.24724 -2.71372,-0.70165 -2.93845,-0.83691 -3.97665,-2.39349 -1.20549,-1.80739 -1.73881,-3.65102 -2.05274,-7.09599 -0.15683,-1.72107 -0.0964,-2.20951 0.25567,-2.06551 0.25361,0.10382 2.9596,1.29728 6.01331,2.6523 3.05371,1.35507 7.42317,3.12171 9.7099,3.92591 3.77606,1.32799 16.80599,5.10065 16.96886,4.91314 0.0373,-0.043 0.51477,-0.9305 1.06094,-1.97223 0.94998,-1.81188 3.68995,-5.02219 4.28641,-5.02219 0.15632,0 -0.0516,0.99755 -0.46203,2.21676 -0.4687,1.39234 -0.81181,3.60175 -0.92261,5.94088 -0.16954,3.58015 -0.135,3.79933 0.89396,5.66938 1.46246,2.65797 3.47474,3.82795 7.53494,4.38089 3.00335,0.40904 3.06816,0.4391 3.77994,1.75336 0.6101,1.12649 0.65519,1.49683 0.28625,2.35031 -0.65209,1.50851 -2.45625,2.29936 -4.76138,2.08712 l -1.9027,-0.17517 -0.2227,1.27737 c -0.6731,3.86074 -1.555,5.36027 -3.85919,6.56197 -1.86301,0.9716 -5.805,1.65325 -6.36406,1.10052 z m 44.13189,-0.93619 c -2.04875,-0.98099 -2.42485,-1.32721 -3.17859,-2.9261 -0.47018,-0.99739 -0.96393,-2.53841 -1.09721,-3.42445 l -0.24237,-1.61101 -2.2956,0.14002 c -2.1359,0.13022 -2.37842,0.066 -3.48591,-0.92541 -1.36776,-1.22425 -1.49765,-2.24426 -0.48787,-3.831 0.61472,-0.96596 0.96292,-1.12838 2.86727,-1.33758 4.94788,-0.54352 8.08807,-2.6131 9.03475,-5.95445 0.59167,-2.0883 0.2377,-7.0114 -0.70888,-9.85928 -0.41867,-1.25961 -0.68367,-2.3645 -0.58889,-2.45532 0.38248,-0.3665 3.46924,3.19762 4.39725,5.07729 0.75258,1.52434 1.14371,1.96407 1.62015,1.82149 0.34544,-0.10322 2.87673,-0.81705 5.62508,-1.58591 9.62983,-2.69399 15.78371,-4.92541 22.53112,-8.16993 2.054734,-0.98804 3.843104,-1.79644 3.974134,-1.79644 0.5855,0 -0.12805,5.92503 -0.91784,7.62121 -1.52346,3.27181 -2.2672,3.65352 -9.987524,5.12541 -3.19078,0.60835 -19.27539,2.85929 -20.43162,2.85929 -0.1927,0 -0.35035,0.56823 -0.35035,1.26273 v 1.26273 l 4.53431,-0.2298 c 3.92042,-0.19871 13.09733,-1.05257 19.43462,-1.80828 l 1.94512,-0.23194 -0.54209,1.47222 c -0.83519,2.26826 -2.70147,4.61658 -4.57258,5.75361 -1.49445,0.90816 -2.03617,1.03102 -4.54612,1.03102 -4.29912,0 -9.9297,-0.63888 -13.73754,-1.55876 l -3.40764,-0.82317 -0.64622,0.74761 c -0.60761,0.70295 -0.60861,0.77588 -0.0175,1.22069 1.68249,1.26438 10.17265,4.99664 15.80556,6.94807 0.70697,0.24491 0.69528,0.29377 -0.25942,1.08516 -1.51376,1.25478 -4.83714,2.31142 -7.27003,2.31142 -2.6736,0 -4.35161,-0.95376 -8.67434,-4.93033 l -3.06242,-2.81716 -1.00863,0.58645 c -0.55475,0.32254 -1.00865,0.70476 -1.00865,0.8494 0,0.51018 3.42242,5.56879 5.18804,7.66834 0.98343,1.16943 1.68975,2.22038 1.56964,2.3355 -0.64505,0.61806 -3.82365,0.13967 -6.00196,-0.90337 z m -20.49832,-20.4341 c -0.48089,-0.73152 -1.16225,-1.86491 -1.5141,-2.51862 l -0.63973,-1.18856 -0.89651,0.80703 c -0.64369,0.57947 -0.89651,0.66183 -0.89651,0.29213 0,-0.28322 -0.26912,-0.88306 -0.59801,-1.33303 l -0.59803,-0.81813 -1.29264,1.18255 -1.29264,1.18255 0.24957,-1.24138 c 0.13725,-0.68276 0.73146,-2.20549 1.32046,-3.38386 0.91198,-1.8245 1.42282,-2.35748 3.44192,-3.59091 2.03702,-1.24437 2.40735,-1.634 2.62896,-2.76594 0.34877,-1.78135 0.99665,-3.0727 1.46635,-2.92268 0.21257,0.0677 0.70295,1.07146 1.08976,2.23015 0.63201,1.89325 0.9222,2.25006 2.86387,3.52122 1.75413,1.14841 2.40754,1.87172 3.47332,3.84501 0.722,1.33679 1.31274,2.82653 1.31274,3.31057 v 0.88006 l -1.47855,-1.12207 -1.47854,-1.1221 -0.32752,0.82628 c -0.18014,0.45445 -0.39078,1.14158 -0.46807,1.52696 -0.12244,0.6106 -0.23603,0.55614 -0.88339,-0.42357 l -0.74289,-1.12425 -1.41847,2.64032 c -0.78014,1.45217 -1.64987,2.64032 -1.93272,2.64032 -0.28285,0 -0.90773,-0.59854 -1.38863,-1.33005 z m -51.14625,-21.69393 c -4.877,-1.71155 -16.92962,-6.11049 -17.13156,-6.25262 -0.39888,-0.28073 2.45875,-10.23881 3.8632,-13.46223 7.02132,-16.115018 16.33465,-26.510448 30.14606,-33.648748 1.74717,-0.90301 3.26521,-1.64184 3.37339,-1.64184 0.10819,0 -1.99622,2.11478 -4.67648,4.6995 -8.0571,7.76992 -12.63637,13.73102 -16.68829,21.724096 -2.14304,4.2275 -5.95743,14.263362 -5.56433,14.640052 0.19972,0.19138 5.0912,1.84879 5.46281,1.85099 0.14291,8e-4 0.7801,-0.72306 1.41599,-1.60867 2.50111,-3.48329 7.26747,-5.3412 12.93102,-5.04042 1.73814,0.0924 3.43222,0.27971 3.76465,0.41647 0.46838,0.19268 1.49493,-0.91206 4.5616,-4.909102 2.68676,-3.50182 3.89165,-5.35928 3.753,-5.78554 -0.11233,-0.34529 -0.36992,-1.745036 -0.57246,-3.110556 -0.73668,-4.96702 0.85097,-9.07766 4.32035,-11.18592 2.27673,-1.38352 4.12719,-1.85523 7.32108,-1.8662 4.21728,-0.0145 7.61845,1.81341 9.10717,4.89449 0.62528,1.2941 0.9342,3.01478 0.54127,3.01478 -0.0883,0 -1.01551,-0.5093 -2.06056,-1.1318 -2.61067,-1.55506 -5.54286,-1.78107 -7.4028,-0.5706 -3.06269,1.99326 -3.87579,5.86771 -2.04968,9.766766 l 1.00776,2.15177 -7.8919,10.346352 c -7.3013,9.57198 -7.9618,10.33124 -8.82529,10.14497 -5.14093,-1.10893 -6.17622,-1.06819 -8.74107,0.34414 -1.99657,1.09943 -3.4106,2.93351 -4.37332,5.67257 l -0.78525,2.23408 z m 99.96269,1.30017 c -1.31992,-4.04262 -1.52045,-4.41308 -3.32475,-6.14197 -2.58675,-2.47864 -4.56483,-2.96286 -8.59435,-2.10384 -2.35646,0.50236 -2.88129,0.5232 -3.12423,0.1241 -0.16062,-0.2638 -3.69897,-4.94667 -7.86311,-10.40642 l -7.57112,-9.926812 0.92835,-1.75541 c 0.52028,-0.98387 1.00446,-2.622576 1.10156,-3.728356 0.14661,-1.6697 0.0123,-2.26904 -0.87424,-3.8997 -1.35803,-2.49809 -2.83856,-3.30918 -5.71357,-3.1301 -1.57127,0.0979 -2.54074,0.41559 -3.99316,1.30864 -1.05494,0.64867 -2.00598,1.09517 -2.1134,0.99223 -0.3625,-0.34733 0.57082,-2.92878 1.49094,-4.12383 2.59057,-3.36455 8.13595,-4.65279 13.1539,-3.05575 2.94426,0.93705 5.67827,3.61341 6.5077,6.37044 0.61722,2.05164 0.5982,5.65019 -0.047,8.894456 -0.18735,0.94211 0.25359,1.68606 3.61042,6.09156 3.71576,4.876532 3.85523,5.011632 4.93428,4.779062 0.61076,-0.13165 2.85941,-0.22857 4.99702,-0.21536 3.43586,0.0212 4.15413,0.13962 6.19417,1.02131 2.14871,0.92864 4.78941,3.16865 5.84746,4.96018 0.36588,0.61952 0.49642,0.61145 3.098874,-0.19168 1.49427,-0.46116 2.79265,-1.02765 2.88525,-1.25887 0.30191,-0.75391 -3.19198,-10.126032 -5.400274,-14.485962 -3.99274,-7.882866 -9.16586,-14.550196 -17.18848,-22.153096 -2.35886,-2.23546 -4.23066,-4.12018 -4.15959,-4.18829 0.21403,-0.20509 6.87125,3.43127 9.68532,5.29041 10.21154,6.74631 18.244154,16.7931 23.636474,29.563278 0.74134,1.75566 1.49456,3.51133 1.6738,3.90147 0.39462,0.8589 2.23631,8.63922 2.23166,9.42771 -0.003,0.40212 -2.2287,1.37847 -7.86895,3.45097 -12.810924,4.70728 -13.978724,5.08632 -14.140924,4.58956 z m -70.99953,-4.25645 c 0.19899,-0.24385 5.31861,-6.66796 11.37694,-14.27582 6.05833,-7.607872 11.28769,-14.105858 11.62082,-14.439978 0.56592,-0.56762 1.30964,0.27951 11.33993,12.916668 5.90385,7.43828 11.20675,14.13574 11.78421,14.8833 l 1.04992,1.35918 h -23.76681 c -18.95963,0 -23.69362,-0.0896 -23.40501,-0.44335 z m 22.24617,-2.38008 c -0.23964,-0.66171 -8.27024,-10.27071 -8.52205,-10.19706 -0.14046,0.0411 -2.10032,2.42891 -4.35523,5.30623 l -4.09982,5.2315 h 8.55023 c 5.30474,0 8.50343,-0.12935 8.42687,-0.34067 z m 19.30939,0.13897 c 0,-0.54556 -8.6193,-10.47457 -8.86441,-10.21136 -0.15607,0.16759 -2.06089,2.5791 -4.23292,5.35888 l -3.94919,5.05417 h 8.52328 c 4.68778,0 8.52324,-0.0908 8.52324,-0.20169 z m -9.88431,-12.30074 c -5.52127,-6.971572 -8.43647,-10.214332 -8.787,-9.774312 -3.58607,4.50153 -5.14682,6.482562 -6.44336,8.178262 l -1.55934,2.0394 h 8.57041 c 6.79681,0 8.49775,-0.0917 8.21929,-0.44335 z m 3.48802,-42.203622 c 0.93656,-1.63215 0.94513,-1.70243 0.29188,-2.39409 -0.80648,-0.85391 -3.20316,-0.97304 -3.87895,-0.19282 -0.29365,0.33905 -0.36238,1.01761 -0.19769,1.95164 0.21658,1.228444 0.16745,1.400624 -0.34576,1.211914 -1.28212,-0.471434 -1.77496,-2.948794 -0.83234,-4.184044 0.41286,-0.54102 0.35415,-0.88316 -0.39217,-2.28453 -1.37667,-2.58507 -0.64302,-4.55474 2.00894,-5.39338 1.46874,-0.46448 3.23836,0.0437 3.82788,1.09916 0.31373,0.5617 0.19831,0.60671 -1.12104,0.43713 -0.90925,-0.11688 -1.6841,-0.0193 -2.02953,0.25533 -0.62343,0.49576 -0.73213,2.02836 -0.20096,2.83329 0.38268,0.57987 5.22834,1.85448 5.6348,1.48219 0.32679,-0.29927 8.07396,-14.61015 8.07016,-14.90749 -0.001,-0.1226 -1.04261,-0.64436 -2.31343,-1.15948 -1.2708,-0.51511 -2.91669,-1.18817 -3.65751,-1.49568 l -1.34696,-0.55911 -0.91142,1.31834 c -0.5013,0.72509 -1.56084,1.64423 -2.35455,2.04252 -1.16703,0.58564 -1.46562,0.94629 -1.56088,1.88524 -0.0648,0.63858 0.0805,1.39004 0.32293,1.66991 0.58016,0.66983 2.19871,0.64814 3.2289,-0.0433 1.20735,-0.81032 1.03441,0.0491 -0.25932,1.28876 -1.53602,1.47185 -3.05097,1.40362 -4.73855,-0.21342 -1.22114,-1.17011 -1.29322,-1.36466 -1.12548,-3.03739 0.16132,-1.60783 0.073,-1.88896 -0.87916,-2.80133 -1.10836,-1.06204 -1.31911,-2.06721 -0.67522,-3.22011 0.57351,-1.0268 1.53684,-0.89662 1.25747,0.16992 -0.26776,1.02235 0.9072,2.33615 2.08932,2.33615 0.92754,0 3.17447,-2.0472 2.70636,-2.46579 -0.18088,-0.16175 -3.05163,-1.43136 -6.37947,-2.82138 l -6.05061,-2.5273 -5.42398,2.35059 c -2.9832,1.29283 -5.80684,2.54089 -6.27479,2.77347 l -0.85081,0.42288 0.78512,0.95642 c 1.52674,1.85982 4.79074,0.85004 4.22567,-1.30728 -0.3012,-1.14993 0.31654,-1.2278 1.11161,-0.14012 0.85772,1.1734 0.70273,2.22802 -0.49626,3.37691 -0.94969,0.91 -1.05081,1.21171 -0.88333,2.63544 0.2257,1.91889 -0.25752,2.92004 -1.86183,3.8574 -1.63938,0.95783 -2.72213,0.86403 -3.98395,-0.34506 -1.37333,-1.31594 -1.3959,-1.94032 -0.0432,-1.19645 1.3907,0.76479 2.9445,0.38884 3.25248,-0.78697 0.39227,-1.49763 -0.11528,-2.43467 -1.69264,-3.12538 -0.81399,-0.35642 -1.76756,-1.11455 -2.11908,-1.68473 -0.35151,-0.57017 -0.78485,-1.03669 -0.96302,-1.03669 -0.17815,0 -1.89261,0.66182 -3.8099,1.47071 l -3.48599,1.47071 3.93169,7.30761 c 2.16243,4.01918 4.05079,7.43185 4.19635,7.58369 0.331,0.34528 4.68644,-0.60432 5.40963,-1.17945 0.70109,-0.55753 0.68624,-2.61306 -0.0229,-3.17704 -0.3705,-0.29464 -1.07971,-0.36307 -2.11656,-0.20419 l -1.55935,0.23892 0.88558,-0.90326 c 1.57996,-1.61151 5.00131,-0.94346 5.90781,1.15356 0.48769,1.12821 0.25956,2.53674 -0.65902,4.06866 -0.47884,0.79858 -0.50408,1.11327 -0.13472,1.67991 0.62452,0.95822 0.56965,2.51954 -0.12172,3.46541 -0.92488,1.265264 -1.34685,0.960554 -1.07505,-0.77627 0.21077,-1.34662 0.13996,-1.61834 -0.5082,-1.95074 -1.16633,-0.59811 -2.5771,-0.45838 -3.40771,0.33752 l -0.75525,0.72369 1.00215,1.76433 1.00213,1.764324 10.69338,-0.094 10.69338,-0.094 z m -15.94056,-2.10418 c -1.89521,-1.01631 -1.26848,-3.48522 0.88473,-3.48522 0.82463,0 1.21819,0.22786 1.53148,0.88669 0.79371,1.66921 -0.8509,3.43792 -2.41621,2.59853 z m 7.16079,0.14037 c -0.75544,-0.21825 -1.48059,-1.14621 -1.48059,-1.89467 0,-1.74738 3.01792,-2.42341 3.76883,-0.84424 0.75402,1.58575 -0.61361,3.22274 -2.28824,2.73891 z m -7.90082,-17.75201 c -0.76457,-0.80953 -0.7741,-1.45534 -0.0365,-2.46458 1.06544,-1.45756 3.49545,-0.58599 3.49545,1.25373 0,1.67571 -2.26966,2.47021 -3.45906,1.21085 z m 7.18059,0.13976 c -0.24241,-0.27986 -0.38772,-1.03511 -0.32294,-1.67832 0.23278,-2.31099 3.63421,-2.06195 3.63421,0.26608 0,1.6176 -2.28815,2.5935 -3.31127,1.41224 z"
       id="path901-1-1"
       inkscape:connector-curvature="0" />
    <path
       style="fill:none;fill-opacity:1;stroke:#ff0000;stroke-width:0.36233106;stroke-opacity:1"
       d="m -158.60689,228.83513 c -15.97341,-9.30776 -33.12085,-25.00517 -47.45821,-43.445 -25.57748,-32.89615 -39.26693,-75.29653 -37.3423,-115.660455 0.34367,-7.207467 0.7759,-11.005926 1.44398,-12.689684 0.40094,-1.01047 0.45309,-1.028261 10.01133,-3.414977 18.77689,-4.688627 33.24229,-9.666721 55.8923,-19.234696 19.17909,-8.101757 22.00597,-9.237086 22.87995,-9.189096 0.47086,0.02587 5.55114,2.220647 11.28951,4.877317 5.73837,2.656675 12.68201,5.789509 15.43038,6.961853 15.72165,6.7063 32.519577,12.175614 51.493492,16.76601 4.60424,1.113906 8.57885,2.148181 8.83247,2.298372 0.78726,0.466219 1.1681,6.086591 1.20201,17.73877 0.0334,11.510311 -0.34737,18.136732 -1.59007,27.664976 -4.40702,33.79015 -17.244375,62.67949 -39.716802,89.37913 -14.36468,17.06674 -33.0206,33.23319 -45.02468,39.01648 -1.6176,0.77933 -2.98643,1.40836 -3.04184,1.39789 -0.0554,-0.0107 -1.9911,-1.12058 -4.30152,-2.46689 z"
       id="path4840"
       inkscape:connector-curvature="0" />
    <path
       style="fill:none;fill-opacity:1;stroke:#ff0000;stroke-width:0.36233106;stroke-opacity:1"
       d="m 522.93348,169.93669 c -15.9734,-9.30776 -33.12085,-25.00517 -47.45821,-43.445 -25.57748,-32.896144 -39.26693,-75.296524 -37.3423,-115.660449 0.34367,-7.2074698 0.7759,-11.00592978 1.44398,-12.6896878 0.40094,-1.010471 0.45309,-1.028261 10.01133,-3.4149769 18.77689,-4.6886281 33.24229,-9.6667223 55.89231,-19.2346933 19.17908,-8.10176 22.00596,-9.23709 22.87994,-9.1891 0.47086,0.0259 5.55114,2.22065 11.28951,4.87732 5.73837,2.65667 12.68201,5.78951 15.43038,6.96185 15.72165,6.7063 32.51959,12.1756142 51.49351,16.7660103 4.60424,1.1139069 8.57885,2.1481809 8.83247,2.2983719 0.78726,0.46622 1.1681,6.086596 1.20201,17.7387658 0.0334,11.51032 -0.34737,18.13674 -1.59007,27.664985 -4.40702,33.79015 -17.24438,62.679484 -39.71682,89.379124 -14.36468,17.06674 -33.0206,33.23319 -45.02468,39.01648 -1.6176,0.77933 -2.98643,1.40836 -3.04184,1.39789 -0.0554,-0.0107 -1.9911,-1.12058 -4.30152,-2.46689 z m 9.59665,-21.50208 c 9.40085,-4.80989 14.592,-8.49932 22.87457,-16.25729 8.81992,-8.26129 21.02968,-22.01118 26.07695,-29.36623 13.91761,-20.281214 21.36118,-48.367554 23.05167,-86.979289 l 0.24846,-5.67487 -9.02686,-2.6213098 c -4.96479,-1.44172 -17.09272,-5.17201 -26.95099,-8.28953598 -16.28,-5.14830192 -17.96555,-5.61394992 -18.37581,-5.07635892 -0.2484,0.32553 -2.06199,3.5368149 -4.03015,7.1361649 -1.96817,3.59936 -3.85962,6.68587 -4.20323,6.85892 -0.3436,0.17303 -6.81538,0.37285 -14.38177,0.44401 l -13.75704,0.12936 -0.96411,-0.86685 c -0.53027,-0.47677 -2.57057,-3.80216 -4.53398,-7.38972698 -3.10408,-5.67180392 -3.67052,-6.50217692 -4.34147,-6.36424692 -0.42438,0.08726 -5.35218,1.5494229 -10.95065,3.2492709 -5.5985,1.69984402 -17.00511,4.973533 -25.34804,7.274843 l -15.16897,4.1842 -0.31226,1.3749698 c -0.51632,2.27354 -0.055,19.99396 0.64514,24.783815 2.88146,19.71158 9.56522,39.76708 19.79873,59.408718 12.19453,23.405546 23.29578,36.578996 40.50958,48.071236 3.52402,2.35268 13.65767,8.31274 14.14323,8.31822 0.21938,0.004 2.46802,-1.05414 4.997,-2.34806 z m -23.10272,-17.38159 c -4.39184,-4.1829 -7.33664,-8.08175 -8.19429,-10.84909 -1.08268,-3.4934 -0.84827,-3.43422 4.15493,1.04896 4.82599,4.32434 6.23079,5.41613 6.96902,5.41613 0.23055,0 1.14246,-0.99752 2.02644,-2.21673 0.884,-1.21922 1.78261,-2.33402 1.99692,-2.47733 0.62906,-0.42065 3.60436,-0.28015 5.13355,0.24241 2.85567,0.97592 3.5852,2.52555 2.01131,4.27247 -0.6476,0.7188 -1.2882,0.96911 -2.88017,1.12542 l -2.04734,0.20104 -1.8392,2.81376 c -1.01156,1.54759 -2.18327,3.12508 -2.60376,3.50554 -0.76415,0.69139 -0.76654,0.68985 -4.72741,-3.08258 z m 30.86962,1.63058 c -0.81655,-0.98986 -1.94685,-2.58829 -2.51179,-3.5521 -1.01965,-1.73961 -1.0408,-1.7524 -2.90117,-1.75274 -1.56981,-2.6e-4 -2.0355,-0.1619 -2.86862,-0.99517 -1.29418,-1.29434 -1.25748,-2.27701 0.1268,-3.39306 1.06455,-0.85832 2.36322,-1.25936 4.43087,-1.36821 2.41458,-0.12725 2.7495,0.0478 4.18882,2.18855 1.99766,2.9712 2.20133,3.08865 3.66377,2.11307 0.66883,-0.44614 3.21119,-2.6556 5.64973,-4.90988 3.86548,-3.57343 4.45002,-3.99538 4.56118,-3.2924 0.19483,1.23218 -0.91737,4.04965 -2.55982,6.48465 -1.44372,2.14035 -8.39751,9.30359 -9.66056,9.95151 -0.50831,0.26076 -0.92972,-0.0324 -2.11912,-1.47422 z m -13.53238,-11.04413 c -1.6485,-1.87723 -1.80433,-2.46644 -1.14478,-4.32793 0.79239,-2.23641 0.74794,-2.80038 -0.3422,-4.33964 -1.00981,-1.42581 -0.9674,-2.14425 0.22159,-3.75577 0.6221,-0.84317 0.65982,-1.17802 0.30902,-2.74531 -0.37251,-1.66439 -0.58201,-1.91108 -3.1002,-3.65051 -1.48536,-1.02604 -3.00768,-2.03953 -3.3829,-2.25218 -0.61756,-0.34999 -0.53417,-0.48054 0.87983,-1.377166 0.85916,-0.54481 1.56208,-1.17977 1.56208,-1.41104 0,-1.47832 1.30307,-4.225248 2.72589,-5.746348 0.88447,-0.94554 1.88653,-2.23789 2.22676,-2.87187 0.34022,-0.63399 0.73924,-1.14648 0.88669,-1.13888 0.14749,0.008 0.81284,0.68592 1.47867,1.50738 0.66578,0.82145 1.78481,2.17765 2.48675,3.01376 0.87664,1.04426 1.42102,2.192078 1.7388,3.666348 0.37032,1.71791 0.65502,2.2415 1.42677,2.6239 2.08541,1.03333 2.02692,1.385786 -0.49093,2.957676 -3.23382,2.01888 -4.35484,3.22679 -4.59644,4.95275 -0.15695,1.12177 -0.0291,1.64478 0.58491,2.39283 0.9827,1.1971 0.9969,2.4763 0.0442,3.97366 -0.88657,1.39334 -0.95828,3.52361 -0.15554,4.62171 0.53855,0.73679 0.52361,0.9162 -0.19444,2.33749 -0.42774,0.84669 -1.08592,1.8067 -1.4626,2.13333 -0.64766,0.56166 -0.74013,0.53099 -1.70185,-0.56419 z m -19.56775,-6.65966 c -0.94397,-0.96702 -1.71631,-1.90757 -1.71631,-2.09013 0,-0.59706 1.11174,-0.76252 5.12426,-0.76252 h 3.95325 l 2.22734,-3.45811 2.22734,-3.4581 1.79937,-0.11026 1.79937,-0.11025 -0.21572,1.27374 c -0.1226,0.72433 -1.02322,2.33757 -2.08788,3.74018 -1.02969,1.35653 -1.87216,2.54865 -1.87216,2.64919 0,0.1006 0.46786,0.18276 1.03971,0.18276 0.57182,0 1.35083,0.21802 1.73111,0.48447 0.61095,0.42805 0.63678,0.61088 0.22194,1.57057 -0.53585,1.23956 -1.43932,1.73172 -1.75085,0.95377 -0.17106,-0.42711 -1.10359,-0.52605 -4.95804,-0.52605 -4.42229,0 -4.76345,0.0486 -4.98234,0.70935 -0.12927,0.39015 -0.36751,0.70937 -0.5295,0.70937 -0.16202,0 -1.06692,-0.7912 -2.01089,-1.7582 z m 38.44467,1.04857 c -0.21883,-0.66066 -0.56057,-0.70908 -5.00348,-0.70908 -4.14675,0 -4.81924,0.0811 -5.15708,0.62069 -0.35939,0.57419 -0.4439,0.55799 -1.12881,-0.21665 -0.83461,-0.94389 -0.96268,-2.00392 -0.29024,-2.40214 0.24754,-0.14668 1.00961,-0.35552 1.69346,-0.46428 l 1.24333,-0.19772 -2.0636,-2.75451 c -1.42124,-1.89711 -2.06361,-3.08999 -2.06361,-3.83224 0,-1.06224 0.0249,-1.07617 1.73041,-0.96963 l 1.73041,0.10822 2.20493,3.45812 2.20495,3.45811 h 3.99255 c 4.79451,0 5.30896,0.129 4.7414,1.18817 -0.5157,0.96246 -2.1594,2.6732 -2.97685,3.09825 -0.47216,0.24551 -0.67974,0.15228 -0.85777,-0.3852 z m -42.8209,-10.81657 c -0.13963,-0.1381 0.55804,-1.24119 1.55047,-2.45126 0.99245,-1.21008 2.57048,-3.388256 3.50674,-4.840396 l 1.70231,-2.64024 -1.004,-0.77206 -1.00398,-0.772058 -3.14026,2.815258 c -1.72715,1.5484 -3.90507,3.30651 -4.83983,3.906916 -1.59848,1.02673 -1.86465,1.08274 -4.47566,0.94151 -4.09875,-0.22161 -8.93223,-2.617646 -6.74896,-3.345506 5.5586,-1.85324 16.00265,-6.634768 16.00265,-7.326408 0,-0.19652 -0.24708,-0.61891 -0.54909,-0.93867 -0.50765,-0.53751 -0.79402,-0.52219 -3.79618,0.20303 -3.58638,0.86636 -9.85223,1.56386 -14.04869,1.56386 -3.05039,0 -4.65813,-0.70602 -6.58832,-2.89312 -1.15026,-1.3034 -2.9733,-4.84169 -2.65279,-5.14877 0.11107,-0.10644 3.00145,0.14247 6.42302,0.55319 6.90616,0.82898 18.44896,1.6029 19.00405,1.27418 0.19649,-0.11633 0.35727,-0.65852 0.35727,-1.2048 v -0.99324 l -6.19998,-0.7895 c -8.64754,-1.10113 -16.37427,-2.3706 -19.76489,-3.24724 -2.71372,-0.70165 -2.93845,-0.83691 -3.97665,-2.39349 -1.20549,-1.80739 -1.73881,-3.65102 -2.05274,-7.09599 -0.15683,-1.72107 -0.0964,-2.20951 0.25567,-2.06551 0.25361,0.10382 2.9596,1.29728 6.01331,2.6523 3.05371,1.35507 7.42317,3.12171 9.7099,3.92591 3.77606,1.32799 16.806,5.10065 16.96886,4.91314 0.0373,-0.043 0.51478,-0.9305 1.06094,-1.97223 0.94999,-1.81188 3.68995,-5.02219 4.28642,-5.02219 0.15631,0 -0.0516,0.99755 -0.46204,2.21676 -0.46869,1.39234 -0.81181,3.60175 -0.92261,5.94088 -0.16954,3.58015 -0.135,3.79933 0.89397,5.66938 1.46245,2.65797 3.47473,3.82795 7.53493,4.38089 3.00335,0.40904 3.06817,0.4391 3.77994,1.75336 0.6101,1.12649 0.6552,1.49683 0.28625,2.35031 -0.65208,1.508508 -2.45625,2.299358 -4.76138,2.087118 l -1.9027,-0.17517 -0.2227,1.27737 c -0.6731,3.860736 -1.555,5.360266 -3.85919,6.561966 -1.86301,0.9716 -5.805,1.65325 -6.36406,1.10052 z m 44.1319,-0.93619 c -2.04875,-0.98099 -2.42485,-1.32721 -3.17859,-2.9261 -0.47018,-0.99739 -0.96393,-2.538406 -1.09721,-3.424446 l -0.24237,-1.61101 -2.2956,0.14002 c -2.1359,0.13022 -2.37842,0.066 -3.48592,-0.92541 -1.36776,-1.224248 -1.49765,-2.244258 -0.48787,-3.830998 0.61472,-0.96596 0.96292,-1.12838 2.86728,-1.33758 4.94788,-0.54352 8.08807,-2.6131 9.03475,-5.95445 0.59167,-2.0883 0.2377,-7.0114 -0.70888,-9.85928 -0.41867,-1.25961 -0.68367,-2.3645 -0.58889,-2.45532 0.38248,-0.3665 3.46924,3.19762 4.39725,5.07729 0.75258,1.52434 1.14371,1.96407 1.62015,1.82149 0.34544,-0.10322 2.87673,-0.81705 5.62508,-1.58591 9.62983,-2.69399 15.78371,-4.92541 22.53112,-8.16993 2.05474,-0.98804 3.84311,-1.79644 3.97414,-1.79644 0.5855,0 -0.12805,5.92503 -0.91784,7.62121 -1.52346,3.27181 -2.2672,3.65352 -9.98753,5.12541 -3.19078,0.60835 -19.27539,2.85929 -20.43162,2.85929 -0.1927,0 -0.35035,0.56823 -0.35035,1.26273 v 1.26273 l 4.53431,-0.2298 c 3.92042,-0.19871 13.09733,-1.05257 19.43462,-1.80828 l 1.94512,-0.23194 -0.54209,1.47222 c -0.83519,2.26826 -2.70147,4.61658 -4.57258,5.75361 -1.49445,0.90816 -2.03617,1.03102 -4.54612,1.03102 -4.29912,0 -9.9297,-0.63888 -13.73754,-1.55876 l -3.40764,-0.82317 -0.64622,0.74761 c -0.60761,0.70295 -0.60861,0.77588 -0.0175,1.22069 1.68249,1.26438 10.17266,4.996638 15.80556,6.948068 0.70698,0.24491 0.69528,0.29377 -0.25942,1.08516 -1.51376,1.254776 -4.83713,2.311416 -7.27003,2.311416 -2.67359,0 -4.35161,-0.95376 -8.67434,-4.930326 l -3.06242,-2.817158 -1.00862,0.58645 c -0.55476,0.322538 -1.00865,0.704758 -1.00865,0.849398 0,0.51018 3.42242,5.568786 5.18804,7.668336 0.98343,1.16943 1.68974,2.22038 1.56963,2.3355 -0.64505,0.61806 -3.82365,0.13967 -6.00196,-0.90337 z M 526.45425,83.841526 c -0.4809,-0.73152 -1.16226,-1.86491 -1.51411,-2.51862 l -0.63972,-1.18856 -0.89652,0.80703 c -0.64369,0.57947 -0.89651,0.66183 -0.89651,0.29213 0,-0.28322 -0.26912,-0.88306 -0.59801,-1.33303 l -0.59803,-0.81813 -1.29264,1.18255 -1.29263,1.18255 0.24956,-1.24138 c 0.13725,-0.68276 0.73147,-2.20549 1.32047,-3.38386 0.91197,-1.8245 1.42281,-2.35748 3.44191,-3.59091 2.03702,-1.24437 2.40735,-1.634 2.62897,-2.76594 0.34876,-1.78135 0.99664,-3.0727 1.46635,-2.92268 0.21256,0.0677 0.70295,1.07146 1.08975,2.23015 0.63201,1.89325 0.9222,2.25006 2.86387,3.52122 1.75413,1.14841 2.40754,1.87172 3.47332,3.84501 0.72201,1.33679 1.31275,2.82653 1.31275,3.31057 v 0.88006 l -1.47855,-1.12207 -1.47855,-1.1221 -0.32752,0.82628 c -0.18013,0.45445 -0.39077,1.14158 -0.46806,1.52696 -0.12245,0.6106 -0.23603,0.55614 -0.8834,-0.42357 l -0.74288,-1.12425 -1.41848,2.64032 c -0.78014,1.45217 -1.64987,2.64032 -1.93272,2.64032 -0.28285,0 -0.90773,-0.59854 -1.38862,-1.33005 z m -51.14626,-21.69393 c -4.877,-1.71155 -16.92962,-6.11049 -17.13156,-6.25262 -0.39888,-0.28073 2.45875,-10.23881 3.8632,-13.46224 7.02132,-16.115015 16.33465,-26.510445 30.14606,-33.6487448 1.74717,-0.90301 3.26521,-1.64184 3.37339,-1.64184 0.10819,0 -1.99622,2.11478 -4.67648,4.6994998 -8.0571,7.76992 -12.63637,13.73102 -16.68829,21.72411 -2.14304,4.227505 -5.95743,14.263355 -5.56433,14.640045 0.19972,0.19138 5.0912,1.84879 5.46281,1.85099 0.14291,7.9e-4 0.7801,-0.72306 1.416,-1.60867 2.5011,-3.48329 7.26746,-5.3412 12.93101,-5.04042 1.73814,0.0924 3.43222,0.27971 3.76465,0.41647 0.46839,0.19268 1.49493,-0.91206 4.5616,-4.9091 2.68676,-3.50181 3.89165,-5.359285 3.753,-5.785535 -0.11232,-0.3453 -0.36992,-1.74504 -0.57246,-3.11056 -0.73668,-4.96702 0.85097,-9.07767 4.32035,-11.18593 2.27673,-1.38352 4.12719,-1.85522 7.32108,-1.8662 4.21728,-0.0145 7.61845,1.81341 9.10717,4.89449 0.62528,1.2941 0.9342,3.01478 0.54127,3.01478 -0.0883,0 -1.0155,-0.5093 -2.06056,-1.13179 -2.61067,-1.55507 -5.54286,-1.78108 -7.4028,-0.57061 -3.06269,1.99326 -3.87579,5.86772 -2.04968,9.76677 l 1.00776,2.151785 -7.8919,10.34634 c -7.3013,9.57198 -7.9618,10.33124 -8.82529,10.14497 -5.14093,-1.10893 -6.17622,-1.06819 -8.74107,0.34413 -1.99657,1.09944 -3.41059,2.93352 -4.37332,5.67258 l -0.78525,2.23408 z m 99.9627,1.30017 c -1.31992,-4.04262 -1.52045,-4.41308 -3.32475,-6.14197 -2.58675,-2.47864 -4.56483,-2.96286 -8.59435,-2.10384 -2.35646,0.50236 -2.88129,0.5232 -3.12423,0.1241 -0.16062,-0.2638 -3.69897,-4.94667 -7.86311,-10.40642 l -7.57112,-9.9268 0.92835,-1.755415 c 0.52028,-0.98388 1.00446,-2.62258 1.10156,-3.72836 0.14661,-1.66971 0.0123,-2.26905 -0.87424,-3.8997 -1.35803,-2.49809 -2.83856,-3.30919 -5.71357,-3.13011 -1.57127,0.0979 -2.54075,0.41559 -3.99317,1.30864 -1.05494,0.64867 -2.00597,1.09517 -2.1134,0.99223 -0.3625,-0.34733 0.57082,-2.92878 1.49094,-4.12382 2.59058,-3.36456 8.13596,-4.6528 13.15391,-3.05576 2.94426,0.93705 5.67827,3.61341 6.5077,6.37045 0.61722,2.05163 0.5982,5.65018 -0.047,8.89446 -0.18735,0.94211 0.25359,1.68606 3.61042,6.091565 3.71576,4.87652 3.85523,5.01162 4.93428,4.77905 0.61076,-0.13165 2.85941,-0.22857 4.99702,-0.21536 3.43586,0.0212 4.15413,0.13962 6.19417,1.02131 2.14871,0.92864 4.78941,3.16865 5.84746,4.96018 0.36588,0.61952 0.49642,0.61145 3.09888,-0.19168 1.49427,-0.46116 2.79265,-1.02765 2.88525,-1.25887 0.30191,-0.75391 -3.19198,-10.12602 -5.40028,-14.485965 -3.99274,-7.88287 -9.16586,-14.55019 -17.18848,-22.1531 -2.35886,-2.2354598 -4.23066,-4.1201798 -4.15959,-4.1882898 0.21403,-0.20509 6.87125,3.4312698 9.68532,5.2904098 10.21154,6.74632 18.24416,16.7931 23.63648,29.563275 0.74134,1.75567 1.49456,3.51134 1.6738,3.90148 0.39462,0.8589 2.23631,8.63922 2.23166,9.42771 -0.003,0.40212 -2.2287,1.37847 -7.86895,3.45097 -12.81093,4.70727 -13.97873,5.08632 -14.14093,4.58956 z m -70.99953,-4.25645 c 0.19898,-0.24385 5.3186,-6.66796 11.37694,-14.27582 6.05832,-7.60786 11.28768,-14.105855 11.62082,-14.439975 0.56592,-0.56762 1.30964,0.27951 11.33993,12.916665 5.90385,7.43828 11.20675,14.13573 11.78421,14.8833 l 1.04992,1.35918 h -23.76681 c -18.95964,0 -23.69363,-0.0896 -23.40501,-0.44335 z m 22.24616,-2.38008 c -0.23964,-0.66171 -8.27024,-10.27071 -8.52204,-10.19706 -0.14047,0.0411 -2.10033,2.42891 -4.35524,5.30623 l -4.09982,5.2315 h 8.55023 c 5.30474,0 8.50343,-0.12936 8.42687,-0.34067 z m 19.3094,0.13897 c 0,-0.54556 -8.61931,-10.47457 -8.86442,-10.21136 -0.15607,0.16759 -2.06089,2.5791 -4.23292,5.35888 l -3.94919,5.05417 h 8.52328 c 4.68779,0 8.52325,-0.0908 8.52325,-0.20169 z m -9.88432,-12.30074 c -5.52126,-6.97156 -8.43647,-10.214335 -8.787,-9.7743 -3.58607,4.50152 -5.14682,6.48254 -6.44336,8.17825 l -1.55933,2.0394 h 8.57041 c 6.79681,0 8.49775,-0.0917 8.21928,-0.44335 z m 3.48803,-42.2036248 c 0.93656,-1.63214198 0.94513,-1.70242898 0.29188,-2.39408098 -0.80648,-0.853911 -3.20317,-0.973045 -3.87895,-0.192823 -0.29366,0.339045 -0.36239,1.017606 -0.1977,1.95163398 0.21658,1.22844 0.16745,1.40062 -0.34576,1.21191 -1.28211,-0.47143 -1.77496,-2.94879298 -0.83234,-4.18404 0.41287,-0.541022 0.35415,-0.88316 -0.39217,-2.284529 -1.37667,-2.5850709 -0.64302,-4.554737 2.00894,-5.393379 1.46874,-0.464477 3.23837,0.04371 3.82789,1.099158 0.31373,0.561705 0.19831,0.606708 -1.12104,0.437131 -0.90926,-0.11688 -1.68411,-0.01931 -2.02954,0.255331 -0.62343,0.4957631 -0.73213,2.0283641 -0.20095,2.833296 0.38268,0.579866 5.22834,1.854475 5.6348,1.482182 0.32679,-0.299267 8.07396,-14.6101522 8.07016,-14.9074832 -0.001,-0.122607 -1.04261,-0.64436 -2.31343,-1.15948 -1.2708,-0.515116 -2.91669,-1.188175 -3.65751,-1.495686 l -1.34696,-0.559113 -0.91142,1.318346 c -0.5013,0.725093 -1.56084,1.644226 -2.35455,2.04252 -1.16703,0.585634 -1.46562,0.946284 -1.56088,1.885236 -0.0648,0.638585 0.0805,1.39004 0.32293,1.669913 0.58016,0.669833 2.19871,0.648143 3.2289,-0.0433 1.20735,-0.810316 1.03441,0.04906 -0.25932,1.288764 -1.53602,1.471845 -3.05097,1.403611 -4.73855,-0.213425 -1.22115,-1.170112 -1.29323,-1.364662 -1.12549,-3.037391 0.16133,-1.607831 0.073,-1.888957 -0.87916,-2.80133 -1.10835,-1.062042 -1.31911,-2.067205 -0.67522,-3.220104 0.57352,-1.026805 1.53684,-0.896625 1.25747,0.169917 -0.26775,1.022344 0.9072,2.33615 2.08933,2.33615 0.92754,0 3.17447,-2.047206 2.70636,-2.465796 -0.18088,-0.161742 -3.05163,-1.431356 -6.37948,-2.821376 l -6.0506,-2.5273 -5.42398,2.35059 c -2.98321,1.29283 -5.80685,2.540887 -6.2748,2.773467 l -0.85081,0.422879 0.78513,0.956428 c 1.52673,1.859813 4.79073,0.850039 4.22566,-1.307279 -0.3012,-1.149935 0.31654,-1.227805 1.11161,-0.140126 0.85772,1.173399 0.70273,2.228021 -0.49626,3.376913 -0.94968,0.910002 -1.05081,1.211708 -0.88333,2.635443 0.2257,1.918888 -0.25752,2.92004 -1.86182,3.857399 -1.63939,0.957823 -2.72214,0.864031 -3.98396,-0.345063 -1.37333,-1.315936 -1.39589,-1.940323 -0.0432,-1.196454 1.39071,0.764794 2.94451,0.388844 3.25249,-0.786966 0.39227,-1.49763 -0.11528,-2.434673 -1.69264,-3.125385 -0.814,-0.35642 -1.76756,-1.114545 -2.11908,-1.684723 -0.35151,-0.570177 -0.78485,-1.036688 -0.96302,-1.036688 -0.17815,0 -1.89261,0.661818 -3.8099,1.470707 l -3.48599,1.470711 3.93168,7.307611 c 2.16244,4.0191743 4.05079,7.4318412 4.19635,7.5836832 0.33101,0.345279 4.68644,-0.604321 5.40964,-1.179444 0.70109,-0.557535 0.68624,-2.6130559 -0.0229,-3.177045 -0.3705,-0.294637 -1.07972,-0.363069 -2.11656,-0.204192 l -1.55936,0.238921 0.8856,-0.903255 c 1.57995,-1.611507 5.0013,-0.943457 5.9078,1.153557 0.48769,1.1282091 0.25956,2.536745 -0.65903,4.068664 -0.47883,0.798576 -0.50407,1.113264 -0.13471,1.679911 0.62452,0.95822102 0.56964,2.519534 -0.12172,3.465414 -0.92488,1.26526 -1.34685,0.96054 -1.07505,-0.77627 0.21077,-1.34662398 0.13995,-1.61834898 -0.5082,-1.95074498 -1.16633,-0.598111 -2.57711,-0.458388 -3.40771,0.337519 l -0.75526,0.723691 1.00216,1.76432498 1.00212,1.76433 10.69339,-0.094 10.69337,-0.094 z M 523.48986,0.34165822 c -1.89521,-1.016301 -1.26847,-3.48521602 0.88473,-3.48521602 0.82463,0 1.2182,0.227859 1.53148,0.886688 0.79371,1.66921402 -0.8509,3.437921 -2.41621,2.59852802 z m 7.16079,0.140372 c -0.75544,-0.218249 -1.48059,-1.146212 -1.48059,-1.89466202 0,-1.747383 3.01793,-2.42342 3.76883,-0.844246 0.75402,1.58575402 -0.6136,3.22273902 -2.28824,2.73890802 z M 522.74984,-17.269974 c -0.76458,-0.809532 -0.7741,-1.455347 -0.0365,-2.464578 1.06544,-1.457566 3.49545,-0.585994 3.49545,1.253721 0,1.675717 -2.26966,2.470214 -3.45906,1.210857 z m 7.18059,0.139759 c -0.24242,-0.279866 -0.38772,-1.035112 -0.32294,-1.678323 0.23277,-2.310984 3.6342,-2.061953 3.6342,0.266077 0,1.617608 -2.28814,2.593501 -3.31126,1.412246 z"
       id="path901-1-1-9-3-5"
       inkscape:connector-curvature="0" />
    <path
       style="fill:#000000;stroke-width:0.36233103"
       d="M 328.47476,168.53423 C 312.50136,159.22646 295.35391,143.52906 281.01654,125.08922 255.43907,92.19307 241.74962,49.79269 243.67425,9.4287699 c 0.34367,-7.20747 0.7759,-11.00592 1.44398,-12.68968 0.40094,-1.01047 0.45309,-1.02826 10.01133,-3.41498 18.77688,-4.6886299 33.24229,-9.6667199 55.89231,-19.2346899 19.17908,-8.10176 22.00596,-9.23709 22.87993,-9.1891 0.47087,0.0259 5.55115,2.22065 11.28951,4.87732 5.73837,2.65667 12.68201,5.78951 15.43038,6.96185 15.72165,6.7063 32.51959,12.17561 51.49352,16.7660099 4.60424,1.1139 8.57885,2.14818 8.83247,2.29837 0.78726,0.46622 1.1681,6.08659 1.20201,17.7387701 0.0334,11.51031 -0.34737,18.13673 -1.59007,27.66497 -4.40702,33.79015 -17.24439,62.67949 -39.71683,89.37913 -14.36468,17.06675 -33.0206,33.2332 -45.02467,39.01649 -1.61761,0.77932 -2.98644,1.40836 -3.04184,1.39789 -0.0554,-0.0107 -1.99111,-1.12058 -4.30152,-2.46689 z m 9.59665,-21.50208 c 9.40084,-4.80989 14.59199,-8.49933 22.87456,-16.2573 8.81992,-8.26129 21.02968,-22.01118 26.07695,-29.36623 13.91761,-20.28122 21.36119,-48.36756 23.05168,-86.97928 l 0.24846,-5.6748801 -9.02687,-2.6213 c -4.96479,-1.44172 -17.09272,-5.17200996 -26.95099,-8.28954 -16.28,-5.1483 -17.96555,-5.61395 -18.37581,-5.07636 -0.2484,0.32553 -2.06199,3.53682 -4.03015,7.13616004 -1.96817,3.59936996 -3.85962,6.68587996 -4.20323,6.85892996 -0.3436,0.17303 -6.81538,0.37285 -14.38177,0.444 l -13.75703,0.12937 -0.96411,-0.86685 c -0.53027,-0.47677 -2.57057,-3.80216 -4.53398,-7.38972996 -3.10408,-5.67180004 -3.67052,-6.50218004 -4.34147,-6.36425004 -0.42438,0.0873 -5.35218,1.54943 -10.95065,3.24927 -5.59851,1.69985 -17.00511,4.97353004 -25.34805,7.27484 l -15.16896,4.18421 -0.31226,1.37497 c -0.51632,2.2735401 -0.055,19.9939501 0.64514,24.7838001 2.88146,19.71158 9.56522,39.76708 19.79873,59.40872 12.19453,23.40555 23.29578,36.579 40.50958,48.07125 3.52401,2.35268 13.65767,8.31274 14.14323,8.31822 0.21937,0.004 2.46802,-1.05414 4.997,-2.34806 z m -23.10272,-17.3816 c -4.39184,-4.1829 -7.33664,-8.08175 -8.19429,-10.84909 -1.08268,-3.4934 -0.84827,-3.43422 4.15493,1.04896 4.82598,4.32434 6.23079,5.41613 6.96901,5.41613 0.23056,0 1.14247,-0.99752 2.02645,-2.21673 0.884,-1.21922 1.7826,-2.33402 1.99692,-2.47733 0.62906,-0.42065 3.60436,-0.28015 5.13355,0.24241 2.85567,0.97592 3.5852,2.52555 2.01131,4.27247 -0.6476,0.7188 -1.2882,0.96911 -2.88017,1.12542 l -2.04734,0.20104 -1.83921,2.81376 c -1.01156,1.54759 -2.18326,3.12508 -2.60375,3.50554 -0.76415,0.69139 -0.76654,0.68985 -4.72741,-3.08258 z m 30.86961,1.63058 c -0.81655,-0.98986 -1.94685,-2.58829 -2.51178,-3.5521 -1.01965,-1.73961 -1.0408,-1.7524 -2.90117,-1.75274 -1.56981,-2.6e-4 -2.0355,-0.1619 -2.86863,-0.99517 -1.29418,-1.29434 -1.25747,-2.27701 0.12681,-3.39306 1.06455,-0.85832 2.36322,-1.25936 4.43087,-1.36821 2.41457,-0.12725 2.74949,0.0478 4.18881,2.18855 1.99766,2.9712 2.20133,3.08865 3.66377,2.11307 0.66883,-0.44614 3.21119,-2.6556 5.64973,-4.90988 3.86548,-3.57343 4.45002,-3.99538 4.56118,-3.2924 0.19483,1.23218 -0.91737,4.04965 -2.55982,6.48465 -1.44372,2.14035 -8.39751,9.30359 -9.66056,9.95151 -0.50831,0.26076 -0.92972,-0.0324 -2.11912,-1.47422 z M 332.30593,120.237 c -1.6485,-1.87723 -1.80434,-2.46644 -1.14479,-4.32793 0.7924,-2.23641 0.74795,-2.80038 -0.34219,-4.33964 -1.00981,-1.42581 -0.96741,-2.14425 0.22159,-3.75577 0.6221,-0.84317 0.65982,-1.17802 0.30901,-2.74531 -0.3725,-1.66439 -0.582,-1.91108 -3.10019,-3.65051 -1.48537,-1.02604 -3.00768,-2.03953 -3.3829,-2.25218 -0.61756,-0.34999 -0.53417,-0.48054 0.87983,-1.37717 0.85916,-0.54481 1.56207,-1.17977 1.56207,-1.41104 0,-1.47832 1.30308,-4.22525 2.7259,-5.74635 0.88447,-0.94554 1.88652,-2.23789 2.22676,-2.87187 0.34022,-0.63399 0.73924,-1.14648 0.88669,-1.13888 0.14749,0.008 0.81284,0.68592 1.47866,1.50738 0.66579,0.82145 1.78482,2.17765 2.48675,3.01376 0.87665,1.04426 1.42103,2.19208 1.73881,3.66635 0.37031,1.71791 0.65501,2.2415 1.42677,2.6239 2.08541,1.03333 2.02691,1.38579 -0.49093,2.95768 -3.23382,2.01888 -4.35485,3.22679 -4.59644,4.95275 -0.15695,1.12177 -0.0291,1.64478 0.58491,2.39283 0.9827,1.1971 0.9969,2.4763 0.0442,3.97366 -0.88658,1.39334 -0.95829,3.52361 -0.15554,4.62171 0.53855,0.73679 0.52361,0.9162 -0.19444,2.33749 -0.42775,0.84669 -1.08593,1.8067 -1.46261,2.13333 -0.64766,0.56166 -0.74012,0.53099 -1.70185,-0.56419 z m -19.56775,-6.65966 c -0.94397,-0.96702 -1.71631,-1.90757 -1.71631,-2.09013 0,-0.59706 1.11174,-0.76252 5.12426,-0.76252 h 3.95325 l 2.22734,-3.45811 2.22733,-3.4581 1.79938,-0.11026 1.79937,-0.11025 -0.21572,1.27374 c -0.1226,0.72433 -1.02323,2.33757 -2.08788,3.74018 -1.02969,1.35653 -1.87216,2.54865 -1.87216,2.64919 0,0.1006 0.46786,0.18276 1.0397,0.18276 0.57182,0 1.35083,0.21802 1.73112,0.48447 0.61095,0.42805 0.63678,0.61088 0.22194,1.57057 -0.53585,1.23956 -1.43932,1.73172 -1.75086,0.95377 -0.17105,-0.42711 -1.10359,-0.52605 -4.95804,-0.52605 -4.42228,0 -4.76345,0.0486 -4.98233,0.70935 -0.12927,0.39015 -0.36751,0.70937 -0.52951,0.70937 -0.16201,0 -1.06691,-0.7912 -2.01088,-1.7582 z m 38.44466,1.04857 c -0.21883,-0.66066 -0.56057,-0.70908 -5.00348,-0.70908 -4.14674,0 -4.81923,0.0811 -5.15707,0.62069 -0.35939,0.57419 -0.4439,0.55799 -1.12882,-0.21665 -0.8346,-0.94389 -0.96267,-2.00392 -0.29024,-2.40214 0.24755,-0.14668 1.00962,-0.35552 1.69346,-0.46428 l 1.24334,-0.19772 -2.0636,-2.75451 c -1.42125,-1.89711 -2.06361,-3.08999 -2.06361,-3.83224 0,-1.06224 0.0249,-1.07617 1.73041,-0.96963 l 1.73041,0.10822 2.20492,3.45812 2.20495,3.45811 h 3.99255 c 4.79451,0 5.30896,0.129 4.7414,1.18817 -0.5157,0.96246 -2.1594,2.6732 -2.97685,3.09825 -0.47216,0.24551 -0.67974,0.15228 -0.85777,-0.3852 z m -42.82089,-10.81657 c -0.13963,-0.1381 0.55803,-1.24119 1.55047,-2.45126 0.99244,-1.21008 2.57048,-3.38826 3.50674,-4.8404 l 1.70231,-2.64024 -1.004,-0.77206 -1.00399,-0.77206 -3.14026,2.81526 c -1.72714,1.5484 -3.90507,3.30651 -4.83983,3.90692 -1.59847,1.02673 -1.86464,1.08274 -4.47566,0.94151 -4.09875,-0.22161 -8.93222,-2.61765 -6.74895,-3.34551 5.55859,-1.85324 16.00265,-6.63477 16.00265,-7.32641 0,-0.19652 -0.24708,-0.61891 -0.54909,-0.93867 -0.50765,-0.53751 -0.79402,-0.52219 -3.79618,0.20303 -3.58638,0.86636 -9.85223,1.56386 -14.04869,1.56386 -3.05039,0 -4.65813,-0.70602 -6.58833,-2.89312 -1.15026,-1.3034 -2.9733,-4.84169 -2.65278,-5.14877 0.11107,-0.10644 3.00145,0.14247 6.42302,0.55319 6.90616,0.82898 18.44895,1.6029 19.00404,1.27418 0.1965,-0.11633 0.35727,-0.65852 0.35727,-1.2048 v -0.99324 l -6.19997,-0.7895 c -8.64754,-1.10113 -16.37428,-2.3706 -19.76489,-3.24724 -2.71372,-0.70165 -2.93845,-0.83691 -3.97666,-2.39349 -1.20548,-1.80739 -1.7388,-3.65102 -2.05273,-7.09599 -0.15683,-1.72107 -0.0964,-2.20951 0.25567,-2.06551 0.2536,0.10382 2.9596,1.29728 6.01331,2.6523 3.05371,1.35507 7.42316,3.12171 9.70989,3.92591 3.77607,1.32799 16.806,5.10065 16.96887,4.91314 0.0373,-0.043 0.51477,-0.9305 1.06094,-1.97223 0.94998,-1.81188 3.68995,-5.02219 4.28641,-5.02219 0.15632,0 -0.0516,0.99755 -0.46203,2.21676 -0.4687,1.39234 -0.81181,3.60175 -0.92261,5.94088 -0.16954,3.58015 -0.135,3.79933 0.89396,5.66938 1.46246,2.65797 3.47474,3.82795 7.53494,4.38089 3.00335,0.40904 3.06816,0.4391 3.77994,1.75336 0.6101,1.12649 0.65519,1.49683 0.28625,2.35031 -0.65209,1.50851 -2.45625,2.29936 -4.76138,2.08712 l -1.9027,-0.17517 -0.2227,1.27737 c -0.6731,3.86074 -1.555,5.36027 -3.85919,6.56197 -1.86301,0.9716 -5.805,1.65325 -6.36406,1.10052 z m 44.13189,-0.93619 c -2.04875,-0.98099 -2.42485,-1.32721 -3.17859,-2.9261 -0.47018,-0.99739 -0.96393,-2.53841 -1.09721,-3.42445 l -0.24237,-1.61101 -2.2956,0.14002 c -2.1359,0.13022 -2.37842,0.066 -3.48591,-0.92541 -1.36776,-1.22425 -1.49765,-2.24426 -0.48787,-3.831 0.61472,-0.96596 0.96292,-1.12838 2.86727,-1.33758 4.94788,-0.54352 8.08807,-2.6131 9.03475,-5.95445 0.59167,-2.0883 0.2377,-7.0114 -0.70888,-9.85928 -0.41867,-1.25961 -0.68367,-2.3645 -0.58889,-2.45532 0.38248,-0.3665 3.46924,3.19762 4.39725,5.07729 0.75258,1.52434 1.14371,1.96407 1.62015,1.82149 0.34544,-0.10322 2.87673,-0.81705 5.62508,-1.58591 9.62983,-2.69399 15.78371,-4.92541 22.53112,-8.16993 2.05474,-0.98804 3.84311,-1.79644 3.97414,-1.79644 0.5855,0 -0.12805,5.92503 -0.91784,7.62121 -1.52346,3.27181 -2.2672,3.65352 -9.98753,5.12541 -3.19078,0.60835 -19.27539,2.85929 -20.43162,2.85929 -0.1927,0 -0.35035,0.56823 -0.35035,1.26273 v 1.26273 l 4.53431,-0.2298 c 3.92042,-0.19871 13.09733,-1.05257 19.43462,-1.80828 l 1.94512,-0.23194 -0.54209,1.47222 c -0.83519,2.26826 -2.70147,4.61658 -4.57258,5.75361 -1.49445,0.90816 -2.03617,1.03102 -4.54612,1.03102 -4.29912,0 -9.9297,-0.63888 -13.73754,-1.55876 l -3.40764,-0.82317 -0.64622,0.74761 c -0.60761,0.70295 -0.60861,0.77588 -0.0175,1.22069 1.68249,1.26438 10.17265,4.99664 15.80556,6.94807 0.70697,0.24491 0.69528,0.29377 -0.25942,1.08516 -1.51376,1.25478 -4.83714,2.31142 -7.27003,2.31142 -2.6736,0 -4.35161,-0.95376 -8.67434,-4.93033 l -3.06242,-2.81716 -1.00863,0.58645 c -0.55475,0.32254 -1.00865,0.70476 -1.00865,0.8494 0,0.51018 3.42242,5.56879 5.18804,7.66834 0.98343,1.16943 1.68975,2.22038 1.56964,2.3355 -0.64505,0.61806 -3.82365,0.13967 -6.00196,-0.90337 z m -20.49832,-20.4341 c -0.48089,-0.73152 -1.16225,-1.86491 -1.5141,-2.51862 l -0.63973,-1.18856 -0.89651,0.80703 c -0.64369,0.57947 -0.89651,0.66183 -0.89651,0.29213 0,-0.28322 -0.26912,-0.88306 -0.59801,-1.33303 l -0.59803,-0.81813 -1.29264,1.18255 -1.29264,1.18255 0.24957,-1.24138 c 0.13725,-0.68276 0.73146,-2.20549 1.32046,-3.38386 0.91198,-1.8245 1.42282,-2.35748 3.44192,-3.59091 2.03702,-1.24437 2.40735,-1.634 2.62896,-2.76594 0.34877,-1.78135 0.99665,-3.0727 1.46635,-2.92268 0.21257,0.0677 0.70295,1.07146 1.08976,2.23015 0.63201,1.89325 0.9222,2.25006 2.86387,3.52122 1.75413,1.14841 2.40754,1.87172 3.47332,3.84501 0.722,1.33679 1.31274,2.82653 1.31274,3.31057 v 0.88006 l -1.47855,-1.12207 -1.47854,-1.1221 -0.32752,0.82628 c -0.18014,0.45445 -0.39078,1.14158 -0.46807,1.52696 -0.12244,0.6106 -0.23603,0.55614 -0.88339,-0.42357 l -0.74289,-1.12425 -1.41847,2.64032 c -0.78014,1.45217 -1.64987,2.64032 -1.93272,2.64032 -0.28285,0 -0.90773,-0.59854 -1.38863,-1.33005 z M 280.84926,60.74512 c -4.87699,-1.71155 -16.92961,-6.11049 -17.13155,-6.25262 -0.39888,-0.28073 2.45875,-10.23881 3.8632,-13.46223 7.02131,-16.11501 16.33465,-26.51044 30.14606,-33.6487401 1.74717,-0.90301 3.26521,-1.64184 3.37339,-1.64184 0.10818,0 -1.99622,2.11478 -4.67648,4.6995001 -8.0571,7.76992 -12.63637,13.73102 -16.68829,21.7241 -2.14304,4.2275 -5.95743,14.26335 -5.56433,14.64004 0.19972,0.19138 5.0912,1.84879 5.46281,1.85099 0.1429,8e-4 0.7801,-0.72306 1.41599,-1.60867 2.50111,-3.48329 7.26747,-5.3412 12.93102,-5.04042 1.73814,0.0924 3.43222,0.27971 3.76465,0.41647 0.46838,0.19268 1.49493,-0.91206 4.5616,-4.90909 2.68676,-3.50182 3.89165,-5.35928 3.753,-5.78554 -0.11233,-0.34529 -0.36992,-1.74504 -0.57246,-3.11056 -0.73668,-4.96702 0.85097,-9.07766 4.32034,-11.18592 2.27674,-1.38352 4.1272,-1.85523 7.32109,-1.8662 4.21728,-0.0145 7.61845,1.81341 9.10717,4.89449 0.62528,1.2941 0.9342,3.01478 0.54127,3.01478 -0.0883,0 -1.01551,-0.5093 -2.06056,-1.1318 -2.61067,-1.55506 -5.54286,-1.78107 -7.4028,-0.5706 -3.06269,1.99326 -3.87579,5.86771 -2.04968,9.76677 l 1.00776,2.15177 -7.8919,10.34634 c -7.3013,9.57198 -7.9618,10.33124 -8.82529,10.14497 -5.14093,-1.10893 -6.17622,-1.06819 -8.74107,0.34414 -1.99657,1.09943 -3.4106,2.93351 -4.37332,5.67257 l -0.78526,2.23408 z m 99.9627,1.30017 c -1.31992,-4.04262 -1.52045,-4.41308 -3.32475,-6.14197 -2.58675,-2.47864 -4.56483,-2.96286 -8.59435,-2.10384 -2.35646,0.50236 -2.88129,0.5232 -3.12423,0.1241 -0.16062,-0.2638 -3.69897,-4.94667 -7.86311,-10.40642 l -7.57112,-9.9268 0.92835,-1.75541 c 0.52028,-0.98387 1.00446,-2.62258 1.10156,-3.72836 0.14661,-1.6697 0.0123,-2.26904 -0.87424,-3.8997 -1.35803,-2.49809 -2.83856,-3.30918 -5.71357,-3.1301 -1.57127,0.0979 -2.54074,0.41559 -3.99316,1.30864 -1.05494,0.64867 -2.00598,1.09517 -2.1134,0.99223 -0.3625,-0.34733 0.57082,-2.92878 1.49094,-4.12383 2.59057,-3.36455 8.13595,-4.65279 13.1539,-3.05575 2.94426,0.93705 5.67827,3.61341 6.5077,6.37044 0.61722,2.05164 0.5982,5.65019 -0.047,8.89446 -0.18735,0.94211 0.25359,1.68606 3.61042,6.09156 3.71576,4.87652 3.85523,5.01162 4.93428,4.77905 0.61076,-0.13165 2.85941,-0.22857 4.99702,-0.21536 3.43586,0.0212 4.15413,0.13962 6.19417,1.02131 2.14871,0.92864 4.78941,3.16865 5.84746,4.96018 0.36588,0.61952 0.49642,0.61145 3.09888,-0.19168 1.49427,-0.46116 2.79265,-1.02765 2.88525,-1.25887 0.30191,-0.75391 -3.19198,-10.12602 -5.40028,-14.48595 -3.99274,-7.88287 -9.16586,-14.5502 -17.18848,-22.1531 -2.35886,-2.2354601 -4.23066,-4.1201801 -4.15959,-4.1882901 0.21403,-0.20509 6.87125,3.43127 9.68532,5.2904101 10.21154,6.74631 18.24416,16.7931 23.63648,29.56327 0.74134,1.75566 1.49456,3.51133 1.6738,3.90147 0.39462,0.8589 2.23631,8.63922 2.23166,9.42771 -0.003,0.40212 -2.2287,1.37847 -7.86895,3.45097 -12.81093,4.70728 -13.97873,5.08632 -14.14093,4.58956 z m -70.99953,-4.25645 c 0.19898,-0.24385 5.31861,-6.66796 11.37694,-14.27582 6.05833,-7.60786 11.28769,-14.10585 11.62082,-14.43997 0.56592,-0.56762 1.30964,0.27951 11.33993,12.91666 5.90385,7.43828 11.20675,14.13574 11.78421,14.8833 l 1.04992,1.35918 h -23.76681 c -18.95963,0 -23.69362,-0.0896 -23.40501,-0.44335 z m 22.24617,-2.38008 c -0.23964,-0.66171 -8.27024,-10.27071 -8.52205,-10.19706 -0.14046,0.0411 -2.10032,2.42891 -4.35523,5.30623 l -4.09982,5.2315 h 8.55023 c 5.30474,0 8.50343,-0.12935 8.42687,-0.34067 z m 19.30939,0.13897 c 0,-0.54556 -8.6193,-10.47457 -8.86441,-10.21136 -0.15607,0.16759 -2.06089,2.5791 -4.23292,5.35888 l -3.94919,5.05417 h 8.52328 c 4.68778,0 8.52324,-0.0908 8.52324,-0.20169 z m -9.88431,-12.30074 c -5.52127,-6.97156 -8.43647,-10.21432 -8.787,-9.7743 -3.58607,4.50153 -5.14682,6.48255 -6.44336,8.17825 l -1.55934,2.0394 h 8.57041 c 6.79681,0 8.49775,-0.0917 8.21929,-0.44335 z M 344.9717,1.0433799 c 0.93656,-1.63214996 0.94513,-1.70242996 0.29188,-2.39409 -0.80648,-0.85391 -3.20316,-0.97304 -3.87895,-0.19282 -0.29365,0.33905 -0.36238,1.01761004 -0.19769,1.95164004 0.21658,1.22843996 0.16745,1.40061996 -0.34576,1.21190996 -1.28212,-0.47143 -1.77496,-2.94879 -0.83234,-4.18404 0.41286,-0.54102 0.35415,-0.88316 -0.39217,-2.28453 -1.37667,-2.58507 -0.64302,-4.55474 2.00894,-5.3933799 1.46874,-0.46448 3.23836,0.0437 3.82788,1.0991599 0.31373,0.5617 0.19831,0.60671 -1.12104,0.43713 -0.90925,-0.11688 -1.6841,-0.0193 -2.02953,0.25533 -0.62343,0.49576 -0.73213,2.02836 -0.20096,2.83329 0.38268,0.57987 5.22834,1.85448 5.6348,1.48219 0.32679,-0.29927 8.07396,-14.6101499 8.07016,-14.9074899 -10e-4,-0.1226 -1.04261,-0.64436 -2.31343,-1.15948 -1.2708,-0.51511 -2.91669,-1.18817 -3.65751,-1.49568 l -1.34696,-0.55911 -0.91142,1.31834 c -0.5013,0.72509 -1.56084,1.64423 -2.35455,2.04252 -1.16703,0.58564 -1.46562,0.94629 -1.56088,1.88524 -0.0648,0.63858 0.0805,1.39004 0.32293,1.66991 0.58016,0.66983 2.19871,0.64814 3.2289,-0.0433 1.20735,-0.81032 1.03441,0.0491 -0.25932,1.28876 -1.53602,1.47185 -3.05097,1.40362 -4.73855,-0.21342 -1.22114,-1.17011 -1.29322,-1.36466 -1.12548,-3.03739 0.16132,-1.60783 0.073,-1.88896 -0.87916,-2.80133 -1.10836,-1.06204 -1.31911,-2.06721 -0.67522,-3.22011 0.57351,-1.0268 1.53684,-0.89662 1.25747,0.16992 -0.26776,1.02235 0.9072,2.33615 2.08932,2.33615 0.92754,0 3.17447,-2.0472 2.70636,-2.46579 -0.18088,-0.16175 -3.05163,-1.43136 -6.37947,-2.82138 l -6.05061,-2.5273 -5.42398,2.35059 c -2.9832,1.29283 -5.80684,2.54089 -6.27479,2.77347 l -0.85081,0.42288 0.78512,0.95642 c 1.52674,1.85982 4.79074,0.85004 4.22567,-1.30728 -0.3012,-1.14993 0.31654,-1.2278 1.11161,-0.14012 0.85772,1.1734 0.70273,2.22802 -0.49626,3.37691 -0.94969,0.91 -1.05081,1.21171 -0.88333,2.63544 0.2257,1.91889 -0.25752,2.92004 -1.86183,3.8574 -1.63938,0.95783 -2.72213,0.86403 -3.98395,-0.34506 -1.37333,-1.31594 -1.3959,-1.94032 -0.0432,-1.19645 1.3907,0.76479 2.9445,0.38884 3.25248,-0.78697 0.39227,-1.49763 -0.11528,-2.43467 -1.69264,-3.12538 -0.81399,-0.35642 -1.76756,-1.11455 -2.11908,-1.68473 -0.35151,-0.57017 -0.78485,-1.03669 -0.96302,-1.03669 -0.17815,0 -1.89261,0.66182 -3.8099,1.47071 l -3.48599,1.47071 3.93169,7.30761 c 2.16243,4.0191799 4.05079,7.4318499 4.19635,7.5836899 0.331,0.34528 4.68644,-0.60432 5.40963,-1.17945 0.70109,-0.55753 0.68624,-2.61306 -0.0229,-3.17704 -0.3705,-0.29464 -1.07971,-0.36307 -2.11656,-0.20419 l -1.55935,0.23892 0.88558,-0.90326 c 1.57996,-1.6115099 5.00131,-0.9434599 5.90781,1.15356 0.48769,1.12821 0.25956,2.53674 -0.65902,4.06866 -0.47884,0.79858 -0.50408,1.11327 -0.13472,1.67991 0.62452,0.95822 0.56965,2.51954004 -0.12172,3.46541 -0.92488,1.26526 -1.34685,0.96055 -1.07505,-0.77626996 0.21077,-1.34662004 0.13996,-1.61834004 -0.5082,-1.95074004 -1.16633,-0.59811 -2.5771,-0.45838 -3.40771,0.33752 l -0.75525,0.72369004 1.00215,1.76432996 1.00213,1.76432 10.69338,-0.094 10.69338,-0.094 z m -15.94056,-2.10418 c -1.89521,-1.01631 -1.26848,-3.48522 0.88473,-3.48522 0.82463,0 1.21819,0.22786 1.53148,0.88669 0.79371,1.66921 -0.8509,3.43792004 -2.41621,2.59853 z m 7.16079,0.14037004 c -0.75544,-0.21825004 -1.48059,-1.14621004 -1.48059,-1.89467004 0,-1.74738 3.01792,-2.42341 3.76883,-0.84424 0.75402,1.58575 -0.61361,3.22274004 -2.28824,2.73891004 z M 328.29111,-18.67244 c -0.76457,-0.80953 -0.7741,-1.45534 -0.0365,-2.46458 1.06544,-1.45756 3.49545,-0.58599 3.49545,1.25373 0,1.67571 -2.26966,2.47021 -3.45906,1.21085 z m 7.18059,0.13976 c -0.24241,-0.27986 -0.38772,-1.03511 -0.32294,-1.67832 0.23278,-2.31099 3.63421,-2.06195 3.63421,0.26608 0,1.6176 -2.28815,2.5935 -3.31127,1.41224 z"
       id="path901-1-1-1"
       inkscape:connector-curvature="0" />
  </g>
</svg>
