<?xml version="1.0" encoding="UTF-8" standalone="no"?>
<!-- Created with Inkscape (http://www.inkscape.org/) -->

<svg
   xmlns:osb="http://www.openswatchbook.org/uri/2009/osb"
   xmlns:dc="http://purl.org/dc/elements/1.1/"
   xmlns:cc="http://creativecommons.org/ns#"
   xmlns:rdf="http://www.w3.org/1999/02/22-rdf-syntax-ns#"
   xmlns:svg="http://www.w3.org/2000/svg"
   xmlns="http://www.w3.org/2000/svg"
   xmlns:sodipodi="http://sodipodi.sourceforge.net/DTD/sodipodi-0.dtd"
   xmlns:inkscape="http://www.inkscape.org/namespaces/inkscape"
   width="490mm"
   height="290mm"
   viewBox="0 0 490 290"
   version="1.1"
   id="svg8"
   inkscape:version="0.92.4 (5da689c313, 2019-01-14)"
   sodipodi:docname="shield.svg">
  <defs
     id="defs2">
    <linearGradient
       id="linearGradient4777"
       osb:paint="gradient">
      <stop
         style="stop-color:#000000;stop-opacity:1;"
         offset="0"
         id="stop4773" />
      <stop
         style="stop-color:#000000;stop-opacity:0;"
         offset="1"
         id="stop4775" />
    </linearGradient>
  </defs>
  <sodipodi:namedview
     id="base"
     pagecolor="#ffffff"
     bordercolor="#666666"
     borderopacity="1.0"
     inkscape:pageopacity="0.0"
     inkscape:pageshadow="2"
     inkscape:zoom="0.25875"
     inkscape:cx="721.47614"
     inkscape:cy="930.42986"
     inkscape:document-units="mm"
     inkscape:current-layer="layer1"
     showgrid="false"
     showguides="false"
     inkscape:window-width="1920"
     inkscape:window-height="1001"
     inkscape:window-x="-9"
     inkscape:window-y="-9"
     inkscape:window-maximized="1" />
  <metadata
     id="metadata5">
    <rdf:RDF>
      <cc:Work
         rdf:about="">
        <dc:format>image/svg+xml</dc:format>
        <dc:type
           rdf:resource="http://purl.org/dc/dcmitype/StillImage" />
        <dc:title></dc:title>
      </cc:Work>
    </rdf:RDF>
  </metadata>
  <g
     inkscape:label="Layer 1"
     inkscape:groupmode="layer"
     id="layer1"
     transform="translate(0,-7)">
    <path
       style="fill:none;stroke:#ff0000;stroke-width:0.16022167;stroke-opacity:1"
       d="M 40.547834,97.0317 C 33.395147,92.96721 25.716735,86.11253 19.296643,78.060282 7.8433741,63.695308 1.7134111,45.180078 2.5752361,27.554107 c 0.153891,-3.147335 0.347438,-4.806028 0.646597,-5.54128 0.179535,-0.441249 0.202888,-0.449017 4.482947,-1.491245 8.4080529,-2.04741 14.8854769,-4.221228 25.0278699,-8.399331 8.588149,-3.5378469 9.853991,-4.0336179 10.245344,-4.0126629 0.21085,0.01131 2.485735,0.969705 5.055301,2.1298109 2.569569,1.160104 5.678844,2.528143 6.909529,3.040077 7.039956,2.928482 14.561858,5.316798 23.058148,7.321313 2.06172,0.486415 3.8415,0.938063 3.95506,1.003646 0.35252,0.203587 0.52306,2.657873 0.53824,7.7461 0.015,5.026286 -0.15554,7.919883 -0.712,12.080636 -1.9734,14.755367 -7.72182,27.370651 -17.784695,39.029741 C 57.565255,87.91357 49.21137,94.97307 43.836099,97.49849 43.111752,97.83881 42.498807,98.1135 42.474,98.10892 42.44919,98.10392 41.582406,97.61959 40.547834,97.0317 Z"
       id="path992"
       inkscape:connector-curvature="0" />
    <path
       style="fill:#000000;stroke-width:0.16022167"
       d="M 40.547834,97.0317 C 33.395144,92.96721 25.716734,86.11253 19.296644,78.060276 7.8433741,63.695303 1.7134041,45.180071 2.5752341,27.554101 c 0.15389,-3.147335 0.34744,-4.806028 0.6466,-5.54128 0.17953,-0.441249 0.20288,-0.449017 4.48294,-1.491245 8.4080599,-2.04741 14.8854799,-4.221228 25.0278699,-8.399331 8.58815,-3.5378469 9.85399,-4.0336179 10.24535,-4.0126629 0.21085,0.01131 2.48573,0.969705 5.0553,2.1298099 2.56957,1.160105 5.67884,2.528144 6.90953,3.040078 7.03995,2.928482 14.56186,5.316798 23.05815,7.321313 2.06172,0.486415 3.84149,0.938063 3.95506,1.003646 0.35252,0.203587 0.52306,2.657873 0.53824,7.7461 0.015,5.026286 -0.15554,7.919884 -0.71201,12.080637 -1.9734,14.755365 -7.72182,27.370651 -17.78469,39.02974 -6.43232,7.452664 -14.78621,14.512154 -20.16148,17.037584 -0.72435,0.34032 -1.33729,0.61501 -1.3621,0.61043 -0.0248,-0.005 -0.89159,-0.48933 -1.92616,-1.07722 z m 4.29726,-9.38946 c 4.20957,-2.10037 6.53411,-3.711464 10.24293,-7.099174 3.94945,-3.60752 9.41683,-9.611769 11.67694,-12.823554 6.23212,-8.856321 9.56526,-21.12096 10.32224,-37.981782 l 0.11126,-2.478081 -4.04212,-1.144662 c -2.22317,-0.629564 -7.6539,-2.258495 -12.06831,-3.619848 -7.28998,-2.248138 -8.04474,-2.451476 -8.22845,-2.216722 -0.11123,0.142145 -0.92334,1.544442 -1.80465,3.116188 -0.88133,1.571767 -1.72829,2.919566 -1.88216,2.995131 -0.15386,0.07556 -3.05184,0.162818 -6.43997,0.193888 l -6.16023,0.05649 -0.43171,-0.378533 c -0.23745,-0.208198 -1.15107,-1.660321 -2.03026,-3.226923 -1.38997,-2.476745 -1.64362,-2.839347 -1.94406,-2.779118 -0.19003,0.03814 -2.39664,0.676601 -4.90356,1.418879 -2.50694,0.742285 -7.61468,2.171824 -11.35053,3.176751 l -6.7924799,1.827146 -0.13982,0.600417 c -0.2312,0.992797 -0.0246,8.730887 0.28888,10.822493 1.2902799,8.607586 4.2831899,17.365347 8.8656199,25.942377 5.46056,10.220653 10.43156,15.973193 18.13968,20.991587 1.57801,1.02736 6.11573,3.62997 6.33316,3.63237 0.0982,0.003 1.10515,-0.46032 2.2376,-1.02534 z m -10.34511,-7.590124 c -1.96661,-1.82659 -3.28526,-3.52913 -3.6693,-4.737559 -0.48481,-1.525471 -0.37985,-1.499629 1.86052,0.45806 2.16102,1.888329 2.79007,2.365109 3.12064,2.365109 0.10324,0 0.51158,-0.4356 0.90742,-0.96801 0.39584,-0.532391 0.79822,-1.0192 0.89419,-1.08179 0.28169,-0.18369 1.61399,-0.122341 2.29874,0.10586 1.27874,0.426169 1.60541,1.10284 0.90064,1.86568 -0.28999,0.31388 -0.57684,0.42319 -1.2897,0.49145 l -0.91678,0.0877 -0.82357,1.2287 c -0.45296,0.6758 -0.97764,1.36466 -1.16593,1.53079 -0.34217,0.30191 -0.34324,0.30124 -2.11687,-1.34608 z m 13.82302,0.71202 c -0.36564,-0.43225 -0.87177,-1.13025 -1.12474,-1.55111 -0.45659,-0.75966 -0.46606,-0.76524 -1.29911,-0.76539 -0.70294,-1.1e-4 -0.91147,-0.0707 -1.28453,-0.43456 -0.57952,-0.5652 -0.56308,-0.99432 0.0568,-1.481669 0.47669,-0.374811 1.05822,-0.549931 1.98409,-0.597471 1.08121,-0.0555 1.23118,0.02101 1.87569,0.95569 0.89453,1.29745 0.98573,1.34874 1.64059,0.92274 0.29949,-0.19483 1.43793,-1.15964 2.52988,-2.14404 1.73091,-1.560431 1.99266,-1.744679 2.04244,-1.437709 0.0872,0.538059 -0.41079,1.76838 -1.14626,2.831699 -0.64648,0.93464 -3.7603,4.06264 -4.32588,4.34557 -0.22761,0.11387 -0.41631,-0.0141 -0.94891,-0.64375 z m -6.05962,-4.822699 c -0.73818,-0.819751 -0.80796,-1.07704 -0.51263,-1.889901 0.35483,-0.97659 0.33492,-1.222869 -0.15323,-1.89503 -0.45217,-0.62262 -0.43319,-0.93635 0.0992,-1.64006 0.27857,-0.368188 0.29546,-0.51441 0.13837,-1.1988 -0.1668,-0.7268 -0.26061,-0.834533 -1.38822,-1.594104 -0.66513,-0.448051 -1.3468,-0.890619 -1.51482,-0.98347 -0.27654,-0.152831 -0.2392,-0.209849 0.39397,-0.601379 0.38473,-0.2379 0.69948,-0.515181 0.69948,-0.61617 0,-0.645551 0.5835,-1.845061 1.22062,-2.509289 0.39606,-0.412901 0.84476,-0.977231 0.99712,-1.25408 0.15234,-0.276853 0.33102,-0.500642 0.39705,-0.497322 0.066,0.004 0.36398,0.299519 0.66212,0.658231 0.29813,0.358719 0.79922,0.950931 1.11354,1.31605 0.39255,0.455988 0.63632,0.95722 0.77862,1.600999 0.16582,0.750181 0.2933,0.97881 0.63889,1.1458 0.93382,0.45122 0.90762,0.605141 -0.21984,1.29155 -1.44806,0.881592 -1.95004,1.409065 -2.05822,2.162744 -0.0703,0.489849 -0.013,0.71824 0.26191,1.04489 0.44004,0.522761 0.4464,1.081352 0.0198,1.735201 -0.397,0.608449 -0.42911,1.538689 -0.0696,2.018199 0.24115,0.321749 0.23446,0.400082 -0.0871,1.020731 -0.19154,0.369721 -0.48626,0.78894 -0.65494,0.931569 -0.29001,0.24526 -0.33142,0.23187 -0.76206,-0.246359 z m -8.7622,-2.90812 c -0.42269,-0.422281 -0.76854,-0.832991 -0.76854,-0.91272 0,-0.260721 0.49782,-0.33297 2.29458,-0.33297 h 1.77022 l 0.99737,-1.51007 0.99737,-1.51008 0.80574,-0.0482 0.80574,-0.0481 -0.0966,0.55621 c -0.0549,0.316301 -0.45819,1.02077 -0.93493,1.633252 -0.46108,0.592359 -0.83833,1.112938 -0.83833,1.156829 0,0.0438 0.2095,0.0798 0.46557,0.0798 0.25605,0 0.60488,0.0952 0.77517,0.211571 0.27358,0.18691 0.28514,0.26675 0.0994,0.685819 -0.23994,0.541282 -0.64451,0.7562 -0.78401,0.416501 -0.0766,-0.18652 -0.49417,-0.229729 -2.22015,-0.229729 -1.98024,0 -2.13301,0.02119 -2.23102,0.309758 -0.0579,0.170371 -0.16457,0.309772 -0.23711,0.309772 -0.0725,0 -0.47775,-0.345501 -0.90045,-0.767771 z m 17.21504,0.45788 c -0.098,-0.288491 -0.25102,-0.30964 -2.2405,-0.30964 -1.85685,0 -2.15799,0.0354 -2.30927,0.27104 -0.16093,0.25074 -0.19877,0.24366 -0.50547,-0.0946 -0.37372,-0.412181 -0.43107,-0.875069 -0.12996,-1.048951 0.11085,-0.0641 0.45209,-0.155249 0.75831,-0.20275 l 0.55675,-0.0863 -0.92406,-1.202852 c -0.63641,-0.828407 -0.92406,-1.349308 -0.92406,-1.673439 0,-0.463849 0.0111,-0.469929 0.77486,-0.42341 l 0.77486,0.0472 0.98733,1.510091 0.98735,1.51007 h 1.78781 c 2.14693,0 2.37729,0.0563 2.12314,0.51885 -0.23092,0.42027 -0.96695,1.16731 -1.33299,1.352931 -0.21143,0.107199 -0.30438,0.0665 -0.3841,-0.168211 z m -19.17466,-4.723339 c -0.0625,-0.0603 0.24989,-0.542005 0.69429,-1.070407 0.4444,-0.52841 1.15102,-1.479579 1.57027,-2.11369 l 0.76227,-1.152938 -0.44958,-0.33714 -0.44957,-0.33714 -1.40617,1.229368 c -0.77339,0.676151 -1.74864,1.443871 -2.16721,1.706052 -0.71578,0.44835 -0.83497,0.472811 -2.00415,0.411139 -1.83537,-0.0968 -3.99973,-1.143069 -3.02209,-1.46091 2.48907,-0.80926 7.16578,-2.897249 7.16578,-3.19927 0,-0.0858 -0.11064,-0.270259 -0.24587,-0.40989 -0.22732,-0.23471 -0.35556,-0.228029 -1.69989,0.0887 -1.60593,0.37832 -4.4117,0.6829 -6.29082,0.6829 -1.36593,0 -2.08585,-0.3083 -2.95017,-1.263361 -0.51507,-0.569159 -1.3314,-2.114241 -1.18788,-2.248339 0.0497,-0.0465 1.34401,0.0623 2.87614,0.241569 3.09249,0.36199 8.26122,0.69994 8.50977,0.556401 0.088,-0.0509 0.15998,-0.28756 0.15998,-0.526111 V 59.13107 l -2.77626,-0.34476 c -3.87226,-0.480838 -7.3322,-1.03518 -8.85047,-1.418 -1.21517,-0.306379 -1.3158,-0.36544 -1.7807,-1.045168 -0.5398,-0.789241 -0.77861,-1.59431 -0.91919,-3.098651 -0.0702,-0.751549 -0.0432,-0.964848 0.11449,-0.90196 0.11356,0.0454 1.32527,0.566489 2.69268,1.158201 1.36742,0.591719 3.324,1.36317 4.34797,1.714338 1.69088,0.579911 7.52551,2.227342 7.59844,2.145462 0.0167,-0.01871 0.23051,-0.406332 0.47508,-0.86123 0.42539,-0.791202 1.65231,-2.19307 1.9194,-2.19307 0.07,0 -0.0231,0.43561 -0.20689,0.96801 -0.20988,0.607999 -0.36352,1.572799 -0.41313,2.594239 -0.0759,1.56336 -0.0604,1.659081 0.4003,2.47568 0.65487,1.160672 1.55595,1.671579 3.37405,1.91303 1.34486,0.17862 1.37388,0.191752 1.69261,0.765651 0.27319,0.491908 0.29339,0.65363 0.12818,1.026319 -0.292,0.658741 -1.09988,1.004081 -2.13209,0.9114 l -0.852,-0.0765 -0.0997,0.5578 c -0.30141,1.68589 -0.69631,2.3407 -1.7281,2.865458 -0.83423,0.424276 -2.5994,0.721934 -2.84974,0.480566 z m 19.76171,-0.408805 c -0.9174,-0.428379 -1.08582,-0.57957 -1.42334,-1.277761 -0.21053,-0.435549 -0.43163,-1.108469 -0.49131,-1.49538 l -0.10853,-0.7035 -1.02794,0.0611 c -0.95643,0.0569 -1.06503,0.0288 -1.56095,-0.404109 -0.61247,-0.534601 -0.67063,-0.980022 -0.21846,-1.672899 0.27526,-0.421823 0.43118,-0.492752 1.28393,-0.584103 2.21559,-0.237328 3.62173,-1.141068 4.04565,-2.600158 0.26494,-0.91191 0.10643,-3.061711 -0.31743,-4.305321 -0.18748,-0.550029 -0.30614,-1.03251 -0.2637,-1.072171 0.17127,-0.160039 1.55348,1.396331 1.96903,2.217132 0.337,0.665638 0.51214,0.85766 0.72548,0.795398 0.15469,-0.0451 1.28817,-0.356777 2.51884,-0.692528 4.31212,-1.176401 7.06775,-2.150812 10.08916,-3.56761 0.92008,-0.431451 1.72089,-0.784461 1.77957,-0.784461 0.26217,0 -0.0574,2.587321 -0.411,3.32799 -0.68219,1.428721 -1.01523,1.595411 -4.47229,2.23815 -1.42879,0.26565 -8.63128,1.24858 -9.14902,1.24858 -0.0863,0 -0.15688,0.248131 -0.15688,0.55141 v 0.551399 l 2.0304,-0.100348 c 1.75552,-0.0868 5.86482,-0.459632 8.70258,-0.789631 l 0.871,-0.101279 -0.24274,0.642879 c -0.37399,0.990491 -1.20968,2.01595 -2.04755,2.51247 -0.66919,0.396571 -0.91177,0.45022 -2.03569,0.45022 -1.92509,0 -4.44639,-0.27899 -6.1515,-0.68068 l -1.5259,-0.35946 -0.28937,0.326461 c -0.27207,0.30697 -0.27252,0.33882 -0.008,0.533059 0.7534,0.552119 4.55519,2.18191 7.07754,3.034051 0.31657,0.10695 0.31133,0.128281 -0.11617,0.473858 -0.67784,0.547942 -2.16601,1.009351 -3.25543,1.009351 -1.1972,0 -1.94859,-0.416488 -3.88426,-2.152959 l -1.37131,-1.230191 -0.45165,0.25609 c -0.24841,0.14084 -0.45166,0.30775 -0.45166,0.370919 0,0.222772 1.53251,2.431762 2.32314,3.34858 0.44036,0.510662 0.75664,0.969584 0.70286,1.019855 -0.28884,0.269899 -1.71218,0.061 -2.6876,-0.394483 z m -9.17889,-8.923092 c -0.21534,-0.319439 -0.52044,-0.814369 -0.678,-1.099828 l -0.28646,-0.519012 -0.40145,0.352401 c -0.28823,0.253061 -0.40144,0.28901 -0.40144,0.12758 0,-0.12368 -0.12051,-0.385609 -0.26778,-0.582099 l -0.26779,-0.35727 -0.57883,0.516398 -0.57883,0.516393 0.11175,-0.542081 c 0.0615,-0.298141 0.32755,-0.963092 0.59129,-1.477651 0.40837,-0.79671 0.63712,-1.029449 1.54125,-1.568069 0.91215,-0.54338 1.07798,-0.713531 1.17721,-1.20782 0.15618,-0.77787 0.44629,-1.341781 0.65662,-1.27626 0.0952,0.0295 0.31477,0.467879 0.48798,0.973849 0.28301,0.826741 0.41295,0.982549 1.2824,1.537639 0.78548,0.501481 1.07807,0.81733 1.55531,1.679022 0.32331,0.58374 0.58783,1.234279 0.58783,1.445639 v 0.384299 l -0.66207,-0.489968 -0.66208,-0.490001 -0.14666,0.36082 c -0.0807,0.198451 -0.17498,0.498499 -0.20959,0.666779 -0.0548,0.266642 -0.10569,0.242862 -0.39557,-0.184959 l -0.33266,-0.490929 -0.63517,1.152959 c -0.34934,0.634129 -0.7388,1.152969 -0.86545,1.152969 -0.12666,0 -0.40647,-0.261368 -0.62181,-0.5808 z m -22.90265,-9.473229 c -2.18386,-0.74739 -7.58087,-2.668299 -7.67129,-2.73037 -0.17862,-0.122579 1.10099,-4.471046 1.72989,-5.878632 3.14406,-7.037043 7.31445,-11.576483 13.49902,-14.693606 0.78237,-0.394325 1.46212,-0.716954 1.51057,-0.716954 0.0485,0 -0.89389,0.923469 -2.09407,2.052159 -3.60787,3.392938 -5.65841,5.996008 -7.47281,9.486396 -0.95962,1.846046 -2.66766,6.228466 -2.49163,6.392958 0.0894,0.0836 2.27977,0.807328 2.44617,0.808289 0.064,2.64e-4 0.34932,-0.315741 0.63406,-0.702469 1.11997,-1.521074 3.25429,-2.332376 5.79035,-2.201032 0.77832,0.04029 1.53691,0.122145 1.68577,0.181864 0.20973,0.08414 0.66941,-0.398277 2.04262,-2.143691 1.2031,-1.529159 1.74263,-2.340266 1.68055,-2.5264 -0.0503,-0.150786 -0.16565,-0.762024 -0.25634,-1.358316 -0.32988,-2.168972 0.38105,-3.963994 1.9346,-4.884618 1.01949,-0.604156 1.8481,-0.810139 3.27828,-0.81493 1.88845,-0.0062 3.41145,0.791876 4.07808,2.137307 0.27999,0.565102 0.41832,1.316485 0.24237,1.316485 -0.0395,0 -0.45473,-0.222403 -0.92269,-0.494231 -1.16902,-0.679058 -2.48202,-0.777753 -3.31488,-0.249169 -1.37143,0.870417 -1.73553,2.562293 -0.91782,4.264914 l 0.45126,0.939633 -3.53389,4.517999 c -3.26943,4.179863 -3.5652,4.511415 -3.95186,4.430074 -2.30204,-0.484251 -2.76563,-0.46646 -3.91414,0.150281 -0.89404,0.480089 -1.52722,1.28098 -1.95831,2.477069 l -0.35163,0.97558 z m 44.76204,0.567759 c -0.59105,-1.765329 -0.68084,-1.927088 -1.48878,-2.682058 -1.15832,-1.08236 -2.04408,-1.293801 -3.84845,-0.918691 -1.05519,0.219371 -1.2902,0.22847 -1.39899,0.0542 -0.0719,-0.1152 -1.65635,-2.160101 -3.521,-4.54424 l -3.39025,-4.334801 0.4157,-0.766551 c 0.23298,-0.429633 0.44979,-1.145215 0.49327,-1.628079 0.0657,-0.729123 0.006,-0.990846 -0.39148,-1.702911 -0.60811,-1.090856 -1.27107,-1.44504 -2.55846,-1.366844 -0.7036,0.04279 -1.13771,0.181482 -1.78809,0.571452 -0.47239,0.283264 -0.89825,0.478239 -0.94635,0.433287 -0.16232,-0.15167 0.2556,-1.278927 0.66762,-1.800782 1.16003,-1.469215 3.64318,-2.031757 5.89015,-1.334367 1.3184,0.409188 2.54266,1.577886 2.91407,2.781816 0.27638,0.895902 0.26786,2.46731 -0.0211,3.884 -0.0839,0.411396 0.11355,0.736262 1.6167,2.660036 1.66387,2.129462 1.72632,2.188462 2.20951,2.086902 0.27349,-0.05746 1.2804,-0.09981 2.2376,-0.09404 1.53853,0.0093 1.86017,0.06099 2.77367,0.445976 0.96217,0.405519 2.14464,1.383678 2.61842,2.165998 0.16384,0.270529 0.22229,0.26701 1.38764,-0.0837 0.66911,-0.201369 1.25051,-0.448741 1.29197,-0.549709 0.1352,-0.329221 -1.42932,-4.421806 -2.41817,-6.325679 -1.7879,-3.442266 -4.10436,-6.353724 -7.69679,-9.673735 -1.05626,-0.976168 -1.89443,-1.799183 -1.86261,-1.828924 0.0958,-0.08957 3.07686,1.498354 4.33697,2.310196 4.5726,2.945957 8.1695,7.333151 10.58412,12.909578 0.33196,0.766654 0.66924,1.533316 0.7495,1.703684 0.1767,0.375068 1.00139,3.77254 0.9993,4.116859 -0.002,0.175601 -0.99797,0.60194 -3.52361,1.50695 -5.73657,2.055569 -6.25949,2.221079 -6.33213,2.00415 z m -31.7927,-1.85869 c 0.0891,-0.106479 2.38161,-2.91174 5.09445,-6.233909 2.71284,-3.322182 5.05449,-6.159696 5.20366,-6.3056 0.25341,-0.247867 0.58644,0.12206 5.07788,5.640403 2.64366,3.248118 5.01824,6.172737 5.27682,6.499188 l 0.47014,0.593519 h -10.64248 c -8.48988,0 -10.60971,-0.0391 -10.48047,-0.193601 z m 9.96155,-1.039318 c -0.1073,-0.288962 -3.7033,-4.484981 -3.81606,-4.452821 -0.0629,0.01791 -0.9405,1.060651 -1.95022,2.317099 l -1.83585,2.284482 h 3.82869 c 2.37539,0 3.80773,-0.0565 3.77344,-0.14876 z m 8.64651,0.0606 c 0,-0.23823 -3.85962,-4.574 -3.96938,-4.45906 -0.0699,0.0732 -0.92283,1.126228 -1.89544,2.3401 l -1.7684,2.20703 h 3.81662 c 2.09913,0 3.8166,-0.0397 3.8166,-0.0881 z m -4.42607,-5.371446 c -2.47236,-3.044317 -3.77775,-4.460359 -3.93471,-4.268208 -1.6058,1.965708 -2.30468,2.830782 -2.88526,3.571256 l -0.69825,0.890555 h 3.83772 c 3.04353,0 3.80519,-0.04001 3.6805,-0.193603 z m 1.56189,-18.429314 c 0.41938,-0.712723 0.42322,-0.743413 0.1307,-1.045446 -0.36113,-0.372883 -1.43434,-0.424903 -1.73694,-0.08419 -0.1315,0.148057 -0.16228,0.444365 -0.0885,0.852237 0.097,0.536436 0.075,0.61162 -0.15483,0.529215 -0.57412,-0.205865 -0.79481,-1.287672 -0.37271,-1.827077 0.18487,-0.23625 0.15858,-0.385656 -0.17561,-0.997601 -0.61646,-1.128835 -0.28794,-1.988946 0.89957,-2.355156 0.65769,-0.202832 1.4501,0.01911 1.71408,0.47997 0.14048,0.245286 0.0888,0.264941 -0.50199,0.19089 -0.40715,-0.05102 -0.75412,-0.0085 -0.9088,0.111497 -0.27916,0.216485 -0.32783,0.885731 -0.09,1.23723 0.17136,0.253211 2.34119,0.809806 2.5232,0.647239 0.14633,-0.130688 3.61541,-6.379907 3.61371,-6.509749 -5.3e-4,-0.05351 -0.46686,-0.281375 -1.03592,-0.506319 -0.56905,-0.224938 -1.30606,-0.518843 -1.63779,-0.65313 l -0.60315,-0.24415 -0.40812,0.575689 c -0.22448,0.316634 -0.69893,0.717999 -1.05434,0.891921 -0.52258,0.255738 -0.65629,0.413224 -0.69894,0.823244 -0.029,0.278848 0.036,0.606994 0.1446,0.729208 0.25979,0.2925 0.98456,0.283028 1.44586,-0.0189 0.54064,-0.353846 0.4632,0.02147 -0.11612,0.56277 -0.68781,0.642724 -1.36618,0.612927 -2.12186,-0.09319 -0.54681,-0.510965 -0.57909,-0.595918 -0.50398,-1.326358 0.0722,-0.702104 0.0327,-0.824865 -0.39368,-1.223273 -0.4963,-0.46377 -0.59068,-0.902707 -0.30235,-1.406146 0.25681,-0.448381 0.68818,-0.391535 0.56308,0.07421 -0.1199,0.446433 0.40623,1.020137 0.93557,1.020137 0.41534,0 1.42149,-0.893964 1.21188,-1.076754 -0.081,-0.07062 -1.36649,-0.625037 -2.85665,-1.232027 l -2.70939,-1.103613 -2.42879,1.026448 c -1.33584,0.564544 -2.60023,1.109544 -2.80977,1.211105 l -0.38098,0.184667 0.35157,0.41764 c 0.68365,0.812141 2.14523,0.371196 1.8922,-0.570854 -0.13488,-0.502146 0.14174,-0.536151 0.49776,-0.0612 0.38408,0.512397 0.31468,0.97292 -0.22222,1.474615 -0.42526,0.397378 -0.47054,0.529123 -0.39554,1.150836 0.10106,0.837935 -0.11532,1.275114 -0.83371,1.684434 -0.73409,0.418258 -1.21893,0.377301 -1.78396,-0.150681 -0.61496,-0.574636 -0.62506,-0.847288 -0.0193,-0.522463 0.62274,0.333969 1.31851,0.169801 1.45642,-0.343648 0.17565,-0.653982 -0.0516,-1.063163 -0.75794,-1.364781 -0.3645,-0.155639 -0.79149,-0.486701 -0.9489,-0.735681 -0.1574,-0.248982 -0.35144,-0.4527 -0.43123,-0.4527 -0.0798,0 -0.84748,0.289003 -1.70602,0.642226 l -1.56098,0.642226 1.76056,3.191061 c 0.96831,1.755077 1.81389,3.245311 1.87907,3.311613 0.14822,0.150778 2.09853,-0.263894 2.42236,-0.515036 0.31395,-0.243464 0.3073,-1.141061 -0.0103,-1.387336 -0.1659,-0.12867 -0.48348,-0.15855 -0.94777,-0.08917 l -0.69825,0.104331 0.39655,-0.394428 c 0.70749,-0.70371 2.23952,-0.411986 2.64544,0.50373 0.21838,0.49266 0.11623,1.107733 -0.2951,1.77669 -0.21442,0.348715 -0.22572,0.486138 -0.0603,0.733576 0.27965,0.418431 0.25508,1.100222 -0.0545,1.513253 -0.41415,0.552517 -0.6031,0.419456 -0.48139,-0.338968 0.0944,-0.588039 0.0627,-0.706694 -0.22757,-0.851843 -0.52227,-0.26118 -1.15399,-0.200167 -1.52593,0.147385 l -0.33819,0.316018 0.44875,0.770434 0.44874,0.770443 4.78836,-0.04106 4.78836,-0.04106 z m -7.13798,-0.918816 c -0.84865,-0.443797 -0.56801,-1.521907 0.39617,-1.521907 0.36926,0 0.54549,0.0995 0.68577,0.387193 0.35542,0.728904 -0.38102,1.501256 -1.08194,1.134714 z m 3.20651,0.06127 c -0.33828,-0.0953 -0.66299,-0.500518 -0.66299,-0.827356 0,-0.763041 1.35139,-1.058247 1.68763,-0.368661 0.33764,0.69246 -0.27476,1.407296 -1.02464,1.196017 z m -3.53789,-7.751879 c -0.34236,-0.353499 -0.34663,-0.635511 -0.0164,-1.07622 0.47709,-0.63648 1.56522,-0.255891 1.56522,0.54747 0,0.731748 -1.01632,1.078685 -1.54892,0.52875 z m 3.21538,0.06106 c -0.10855,-0.122214 -0.17362,-0.452008 -0.14461,-0.732885 0.10424,-1.009155 1.62735,-0.900401 1.62735,0.11619 0,0.706369 -1.0246,1.132519 -1.48274,0.616695 z"
       id="path901-1-1-9"
       inkscape:connector-curvature="0" />
    <path
       style="fill:none;stroke:#ff0000;stroke-width:0.16022167;stroke-opacity:1"
       d="m 40.215405,187.86256 c -7.15269,-4.06449 -14.8311,-10.91917 -21.25119,-18.97142 C 7.5109446,154.52616 1.3809846,136.01093 2.2428046,118.38496 c 0.15389,-3.14734 0.34744,-4.80603 0.6466,-5.54128 0.17953,-0.44125 0.20289,-0.44902 4.48295,-1.49125 8.4080504,-2.04741 14.8854704,-4.22123 25.0278704,-8.39933 8.58815,-3.537845 9.85399,-4.033615 10.24534,-4.012655 0.21085,0.0113 2.48573,0.9697 5.0553,2.129805 2.56957,1.1601 5.67884,2.52814 6.90953,3.04008 7.03996,2.92848 14.56186,5.31679 23.05815,7.32131 2.06172,0.48641 3.8415,0.93806 3.95506,1.00365 0.35252,0.20358 0.52306,2.65787 0.53824,7.7461 0.015,5.02628 -0.15554,7.91988 -0.712,12.08063 -1.9734,14.75537 -7.72182,27.37066 -17.7847,39.02975 -6.43232,7.45266 -14.78621,14.51216 -20.16148,17.03758 -0.72434,0.34032 -1.33729,0.61501 -1.3621,0.61043 -0.0248,-0.005 -0.89159,-0.48933 -1.92616,-1.07722 z"
       id="path992-8"
       inkscape:connector-curvature="0" />
    <path
       style="fill:#0000ff;fill-opacity:1;stroke-width:0.16022167"
       d="m 40.215405,187.86256 c -7.15269,-4.06449 -14.8311,-10.91917 -21.25119,-18.97142 C 7.5109446,154.52617 1.3809746,136.01094 2.2428046,118.38497 c 0.15389,-3.14733 0.34744,-4.80603 0.6466,-5.54128 0.17953,-0.44125 0.20288,-0.44902 4.48294,-1.49125 8.4080604,-2.04741 14.8854804,-4.22122 25.0278704,-8.39933 8.58815,-3.537835 9.85399,-4.033615 10.24535,-4.012655 0.21085,0.0113 2.48573,0.9697 5.0553,2.129805 2.56957,1.16011 5.67884,2.52814 6.90953,3.04008 7.03995,2.92848 14.56186,5.3168 23.05815,7.32131 2.06172,0.48642 3.84149,0.93807 3.95506,1.00365 0.35252,0.20359 0.52306,2.65787 0.53824,7.7461 0.015,5.02628 -0.15554,7.91988 -0.71201,12.08064 -1.9734,14.75536 -7.72182,27.37064 -17.78469,39.02973 -6.43232,7.45266 -14.78621,14.51215 -20.16148,17.03758 -0.72435,0.34032 -1.33729,0.61501 -1.3621,0.61043 -0.0248,-0.005 -0.89159,-0.48933 -1.92616,-1.07722 z m 4.29726,-9.38946 c 4.20957,-2.10037 6.53411,-3.71146 10.24293,-7.09917 3.94945,-3.60752 9.41683,-9.61177 11.67694,-12.82355 6.23212,-8.85632 9.56526,-21.12096 10.32224,-37.98178 l 0.11126,-2.47808 -4.04212,-1.14466 c -2.22317,-0.62957 -7.6539,-2.2585 -12.06831,-3.61985 -7.28998,-2.24814 -8.04474,-2.45148 -8.22845,-2.21672 -0.11123,0.14214 -0.92334,1.54444 -1.80465,3.11618 -0.88133,1.57177 -1.72829,2.91957 -1.88216,2.99514 -0.15386,0.0756 -3.05184,0.16281 -6.43997,0.19388 l -6.16023,0.0565 -0.43171,-0.37853 c -0.23745,-0.2082 -1.15107,-1.66032 -2.03026,-3.22692 -1.38997,-2.47675 -1.64362,-2.83935 -1.94406,-2.77912 -0.19003,0.0381 -2.39664,0.6766 -4.90356,1.41888 -2.50694,0.74228 -7.61468,2.17182 -11.35053,3.17675 l -6.7924804,1.82715 -0.13982,0.60041 c -0.2312,0.9928 -0.0246,8.73089 0.28888,10.8225 1.2902804,8.60758 4.2831904,17.36534 8.8656204,25.94237 5.46056,10.22065 10.43156,15.97319 18.13968,20.99158 1.57801,1.02736 6.11573,3.62997 6.33316,3.63237 0.0982,0.003 1.10515,-0.46032 2.2376,-1.02534 z m -10.34511,-7.59012 c -1.96661,-1.82659 -3.28526,-3.52913 -3.6693,-4.73756 -0.48481,-1.52547 -0.37985,-1.49963 1.86052,0.45806 2.16102,1.88833 2.79007,2.36511 3.12064,2.36511 0.10324,0 0.51158,-0.4356 0.90742,-0.96801 0.39584,-0.53239 0.79822,-1.0192 0.89419,-1.08179 0.28169,-0.18369 1.61399,-0.12234 2.29874,0.10586 1.27874,0.42617 1.60541,1.10284 0.90064,1.86568 -0.28999,0.31388 -0.57684,0.42319 -1.2897,0.49145 l -0.91678,0.0877 -0.82357,1.2287 c -0.45296,0.6758 -0.97764,1.36466 -1.16593,1.53079 -0.34217,0.30191 -0.34324,0.30124 -2.11687,-1.34608 z m 13.82302,0.71202 c -0.36564,-0.43225 -0.87177,-1.13025 -1.12474,-1.55111 -0.45659,-0.75966 -0.46606,-0.76524 -1.29911,-0.76539 -0.70294,-1.1e-4 -0.91147,-0.0707 -1.28453,-0.43456 -0.57952,-0.5652 -0.56308,-0.99432 0.0568,-1.48167 0.47669,-0.37481 1.05822,-0.54993 1.98409,-0.59747 1.08121,-0.0555 1.23118,0.021 1.87569,0.95569 0.89453,1.29745 0.98573,1.34874 1.64059,0.92274 0.29949,-0.19483 1.43793,-1.15964 2.52988,-2.14404 1.73091,-1.56043 1.99266,-1.74468 2.04244,-1.43771 0.0872,0.53806 -0.41079,1.76838 -1.14626,2.8317 -0.64648,0.93464 -3.7603,4.06264 -4.32588,4.34557 -0.22761,0.11387 -0.41631,-0.0141 -0.94891,-0.64375 z m -6.05962,-4.8227 c -0.73818,-0.81975 -0.80796,-1.07704 -0.51263,-1.8899 0.35483,-0.97659 0.33492,-1.22287 -0.15323,-1.89503 -0.45217,-0.62262 -0.43319,-0.93635 0.0992,-1.64006 0.27857,-0.36819 0.29546,-0.51441 0.13837,-1.1988 -0.1668,-0.7268 -0.26061,-0.83453 -1.38822,-1.5941 -0.66513,-0.44805 -1.3468,-0.89062 -1.51482,-0.98347 -0.27654,-0.15283 -0.2392,-0.20985 0.39397,-0.60138 0.38473,-0.2379 0.69948,-0.51518 0.69948,-0.61617 0,-0.64555 0.5835,-1.84506 1.22062,-2.50929 0.39606,-0.4129 0.84476,-0.97723 0.99712,-1.25408 0.15234,-0.27685 0.33102,-0.50064 0.39705,-0.49732 0.066,0.004 0.36398,0.29952 0.66212,0.65823 0.29813,0.35872 0.79922,0.95093 1.11354,1.31605 0.39255,0.45599 0.63632,0.95722 0.77862,1.601 0.16582,0.75018 0.2933,0.97881 0.63889,1.1458 0.93382,0.45122 0.90762,0.60514 -0.21984,1.29155 -1.44806,0.88159 -1.95004,1.40906 -2.05822,2.16274 -0.0703,0.48985 -0.013,0.71824 0.26191,1.04489 0.44004,0.52276 0.4464,1.08135 0.0198,1.7352 -0.397,0.60845 -0.42911,1.53869 -0.0696,2.0182 0.24115,0.32175 0.23446,0.40008 -0.0871,1.02073 -0.19154,0.36972 -0.48626,0.78894 -0.65494,0.93157 -0.29001,0.24526 -0.33142,0.23187 -0.76206,-0.24636 z m -8.7622,-2.90812 c -0.42269,-0.42228 -0.76854,-0.83299 -0.76854,-0.91272 0,-0.26072 0.49782,-0.33297 2.29458,-0.33297 h 1.77022 l 0.99737,-1.51007 0.99737,-1.51008 0.80574,-0.0482 0.80574,-0.0481 -0.0966,0.55621 c -0.0549,0.3163 -0.45819,1.02077 -0.93493,1.63326 -0.46108,0.59235 -0.83833,1.11293 -0.83833,1.15682 0,0.0438 0.2095,0.0798 0.46557,0.0798 0.25605,0 0.60488,0.0952 0.77517,0.21157 0.27358,0.18691 0.28514,0.26675 0.0994,0.68582 -0.23994,0.54128 -0.64451,0.7562 -0.78401,0.4165 -0.0766,-0.18652 -0.49417,-0.22973 -2.22015,-0.22973 -1.98024,0 -2.13301,0.0212 -2.23102,0.30976 -0.0579,0.17037 -0.16457,0.30977 -0.23711,0.30977 -0.0725,0 -0.47775,-0.3455 -0.90045,-0.76777 z m 17.21504,0.45788 c -0.098,-0.28849 -0.25102,-0.30964 -2.2405,-0.30964 -1.85685,0 -2.15799,0.0354 -2.30927,0.27104 -0.16093,0.25074 -0.19877,0.24366 -0.50547,-0.0946 -0.37372,-0.41218 -0.43107,-0.87507 -0.12996,-1.04895 0.11085,-0.0641 0.45209,-0.15525 0.75831,-0.20275 l 0.55675,-0.0863 -0.92406,-1.20285 c -0.63641,-0.82841 -0.92406,-1.34931 -0.92406,-1.67344 0,-0.46385 0.0111,-0.46993 0.77486,-0.42341 l 0.77486,0.0472 0.98733,1.51009 0.98735,1.51007 h 1.78781 c 2.14693,0 2.37729,0.0563 2.12314,0.51885 -0.23092,0.42027 -0.96695,1.16731 -1.33299,1.35293 -0.21143,0.1072 -0.30438,0.0665 -0.3841,-0.16821 z m -19.17466,-4.72334 c -0.0625,-0.0603 0.24989,-0.542 0.69429,-1.0704 0.4444,-0.52841 1.15102,-1.47958 1.57027,-2.11369 l 0.76227,-1.15294 -0.44958,-0.33714 -0.44957,-0.33714 -1.40617,1.22937 c -0.77339,0.67615 -1.74864,1.44387 -2.16721,1.70605 -0.71578,0.44835 -0.83497,0.47281 -2.00415,0.41114 -1.83537,-0.0968 -3.99973,-1.14307 -3.02209,-1.46091 2.48907,-0.80926 7.16578,-2.89725 7.16578,-3.19927 0,-0.0858 -0.11064,-0.27026 -0.24587,-0.40989 -0.22732,-0.23471 -0.35556,-0.22803 -1.69989,0.0887 -1.60593,0.37832 -4.4117,0.6829 -6.29082,0.6829 -1.36593,0 -2.08585,-0.3083 -2.95017,-1.26336 -0.51507,-0.56916 -1.3314,-2.11424 -1.18788,-2.24834 0.0497,-0.0465 1.34401,0.0623 2.87614,0.24157 3.09249,0.36199 8.26122,0.69994 8.50977,0.5564 0.088,-0.0509 0.15998,-0.28756 0.15998,-0.52611 v -0.43372 l -2.77626,-0.34476 c -3.87226,-0.48084 -7.3322,-1.03518 -8.85047,-1.418 -1.21517,-0.30638 -1.3158,-0.36544 -1.7807,-1.04517 -0.5398,-0.78924 -0.77861,-1.59431 -0.91919,-3.09865 -0.0702,-0.75155 -0.0432,-0.96485 0.11449,-0.90196 0.11356,0.0454 1.32527,0.56649 2.69268,1.1582 1.36742,0.59172 3.324,1.36317 4.34797,1.71434 1.69088,0.57991 7.52551,2.22734 7.59844,2.14546 0.0167,-0.0187 0.23051,-0.40633 0.47508,-0.86123 0.42539,-0.7912 1.65231,-2.19307 1.9194,-2.19307 0.07,0 -0.0231,0.43561 -0.20689,0.96801 -0.20988,0.608 -0.36352,1.5728 -0.41313,2.59424 -0.0759,1.56336 -0.0604,1.65908 0.4003,2.47568 0.65487,1.16067 1.55595,1.67158 3.37405,1.91303 1.34486,0.17862 1.37388,0.19175 1.69261,0.76565 0.27319,0.49191 0.29339,0.65363 0.12818,1.02632 -0.292,0.65874 -1.09988,1.00408 -2.13209,0.9114 l -0.852,-0.0765 -0.0997,0.5578 c -0.30141,1.68589 -0.69631,2.3407 -1.7281,2.86545 -0.83423,0.42428 -2.5994,0.72194 -2.84974,0.48057 z m 19.76171,-0.4088 c -0.9174,-0.42838 -1.08582,-0.57957 -1.42334,-1.27776 -0.21053,-0.43555 -0.43163,-1.10847 -0.49131,-1.49538 l -0.10853,-0.7035 -1.02794,0.0611 c -0.95643,0.0569 -1.06503,0.0288 -1.56095,-0.40411 -0.61247,-0.5346 -0.67063,-0.98002 -0.21846,-1.6729 0.27526,-0.42182 0.43118,-0.49275 1.28393,-0.5841 2.21559,-0.23733 3.62173,-1.14107 4.04565,-2.60016 0.26494,-0.91191 0.10643,-3.06171 -0.31743,-4.30532 -0.18748,-0.55003 -0.30614,-1.03251 -0.2637,-1.07217 0.17127,-0.16004 1.55348,1.39633 1.96903,2.21713 0.337,0.66564 0.51214,0.85766 0.72548,0.7954 0.15469,-0.0451 1.28817,-0.35678 2.51884,-0.69253 4.31212,-1.1764 7.06775,-2.15081 10.08916,-3.56761 0.92008,-0.43145 1.72089,-0.78446 1.77957,-0.78446 0.26217,0 -0.0574,2.58732 -0.411,3.32799 -0.68219,1.42872 -1.01523,1.59541 -4.47229,2.23815 -1.42879,0.26565 -8.63128,1.24858 -9.14902,1.24858 -0.0863,0 -0.15688,0.24813 -0.15688,0.55141 v 0.5514 l 2.0304,-0.10035 c 1.75552,-0.0868 5.86482,-0.45963 8.70258,-0.78963 l 0.871,-0.10128 -0.24274,0.64288 c -0.37399,0.99049 -1.20968,2.01595 -2.04755,2.51247 -0.66919,0.39657 -0.91177,0.45022 -2.03569,0.45022 -1.92509,0 -4.44639,-0.27899 -6.1515,-0.68068 l -1.5259,-0.35946 -0.28937,0.32646 c -0.27207,0.30697 -0.27252,0.33882 -0.008,0.53306 0.7534,0.55212 4.55519,2.18191 7.07754,3.03405 0.31657,0.10695 0.31133,0.12828 -0.11617,0.47386 -0.67784,0.54794 -2.16601,1.00935 -3.25543,1.00935 -1.1972,0 -1.94859,-0.41649 -3.88426,-2.15296 l -1.37131,-1.23019 -0.45165,0.25609 c -0.24841,0.14084 -0.45166,0.30775 -0.45166,0.37092 0,0.22277 1.53251,2.43176 2.32314,3.34858 0.44036,0.51066 0.75664,0.96958 0.70286,1.01985 -0.28884,0.2699 -1.71218,0.061 -2.6876,-0.39448 z m -9.17889,-8.92309 c -0.21534,-0.31944 -0.52044,-0.81437 -0.678,-1.09983 l -0.28646,-0.51901 -0.40145,0.3524 c -0.28823,0.25306 -0.40144,0.28901 -0.40144,0.12758 0,-0.12368 -0.12051,-0.38561 -0.26778,-0.5821 l -0.26779,-0.35727 -0.57883,0.5164 -0.57883,0.51639 0.11175,-0.54208 c 0.0615,-0.29814 0.32755,-0.96309 0.59129,-1.47765 0.40837,-0.79671 0.63712,-1.02945 1.54125,-1.56807 0.91215,-0.54338 1.07798,-0.71353 1.17721,-1.20782 0.15618,-0.77787 0.44629,-1.34178 0.65662,-1.27626 0.0952,0.0295 0.31477,0.46788 0.48798,0.97385 0.28301,0.82674 0.41295,0.98255 1.2824,1.53764 0.78548,0.50148 1.07807,0.81733 1.55531,1.67902 0.32331,0.58374 0.58783,1.23428 0.58783,1.44564 v 0.3843 l -0.66207,-0.48997 -0.66208,-0.49 -0.14666,0.36082 c -0.0807,0.19845 -0.17498,0.4985 -0.20959,0.66678 -0.0548,0.26664 -0.10569,0.24286 -0.39557,-0.18496 l -0.33266,-0.49093 -0.63517,1.15296 c -0.34934,0.63413 -0.7388,1.15297 -0.86545,1.15297 -0.12666,0 -0.40647,-0.26137 -0.62181,-0.5808 z m -22.90265,-9.47323 c -2.18386,-0.74739 -7.58087,-2.6683 -7.67129,-2.73037 -0.17862,-0.12258 1.10099,-4.47104 1.72989,-5.87863 3.14406,-7.03704 7.31445,-11.57648 13.49902,-14.69361 0.78237,-0.39432 1.46212,-0.71695 1.51057,-0.71695 0.0485,0 -0.89389,0.92347 -2.09407,2.05216 -3.60787,3.39294 -5.65841,5.99601 -7.47281,9.48639 -0.95962,1.84605 -2.66766,6.22847 -2.49163,6.39296 0.0894,0.0836 2.27977,0.80733 2.44617,0.80829 0.064,2.7e-4 0.34932,-0.31574 0.63406,-0.70247 1.11997,-1.52107 3.25429,-2.33237 5.79035,-2.20103 0.77832,0.0403 1.53691,0.12215 1.68577,0.18186 0.20973,0.0841 0.66941,-0.39827 2.04262,-2.14369 1.2031,-1.52916 1.74263,-2.34026 1.68055,-2.5264 -0.0503,-0.15078 -0.16565,-0.76202 -0.25634,-1.35831 -0.32988,-2.16897 0.38105,-3.964 1.9346,-4.88462 1.01949,-0.60416 1.8481,-0.81014 3.27828,-0.81493 1.88845,-0.006 3.41145,0.79188 4.07808,2.13731 0.27999,0.5651 0.41832,1.31648 0.24237,1.31648 -0.0395,0 -0.45473,-0.2224 -0.92269,-0.49423 -1.16902,-0.67906 -2.48202,-0.77775 -3.31488,-0.24917 -1.37143,0.87042 -1.73553,2.56229 -0.91782,4.26492 l 0.45126,0.93963 -3.53389,4.518 c -3.26943,4.17986 -3.5652,4.51141 -3.95186,4.43007 -2.30204,-0.48425 -2.76563,-0.46646 -3.91414,0.15028 -0.89404,0.48009 -1.52722,1.28098 -1.95831,2.47707 l -0.35163,0.97558 z m 44.76204,0.56776 c -0.59105,-1.76533 -0.68084,-1.92709 -1.48878,-2.68206 -1.15832,-1.08236 -2.04408,-1.2938 -3.84845,-0.91869 -1.05519,0.21937 -1.2902,0.22847 -1.39899,0.0542 -0.0719,-0.1152 -1.65635,-2.1601 -3.521,-4.54424 l -3.39025,-4.3348 0.4157,-0.76655 c 0.23298,-0.42963 0.44979,-1.14522 0.49327,-1.62808 0.0657,-0.72912 0.006,-0.99085 -0.39148,-1.70291 -0.60811,-1.09086 -1.27107,-1.44504 -2.55846,-1.36685 -0.7036,0.0428 -1.13771,0.18149 -1.78809,0.57146 -0.47239,0.28326 -0.89825,0.47824 -0.94635,0.43328 -0.16232,-0.15167 0.2556,-1.27892 0.66762,-1.80078 1.16003,-1.46921 3.64318,-2.03176 5.89015,-1.33437 1.3184,0.40919 2.54266,1.57789 2.91407,2.78182 0.27638,0.8959 0.26786,2.46731 -0.0211,3.884 -0.0839,0.4114 0.11355,0.73626 1.6167,2.66004 1.66387,2.12946 1.72632,2.18846 2.20951,2.0869 0.27349,-0.0575 1.2804,-0.0998 2.2376,-0.094 1.53853,0.009 1.86017,0.061 2.77367,0.44597 0.96217,0.40552 2.14464,1.38368 2.61842,2.166 0.16384,0.27053 0.22229,0.26701 1.38764,-0.0837 0.66911,-0.20137 1.25051,-0.44874 1.29197,-0.54971 0.1352,-0.32922 -1.42932,-4.4218 -2.41817,-6.32568 -1.7879,-3.44226 -4.10436,-6.35372 -7.69679,-9.67373 -1.05626,-0.97617 -1.89443,-1.79919 -1.86261,-1.82893 0.0958,-0.0896 3.07686,1.49836 4.33697,2.3102 4.5726,2.94596 8.1695,7.33315 10.58412,12.90958 0.33196,0.76665 0.66924,1.53331 0.7495,1.70368 0.1767,0.37507 1.00139,3.77254 0.9993,4.11686 -0.002,0.1756 -0.99797,0.60194 -3.52361,1.50695 -5.73657,2.05557 -6.25949,2.22108 -6.33213,2.00415 z m -31.7927,-1.85869 c 0.0891,-0.10648 2.38161,-2.91174 5.09445,-6.23391 2.71284,-3.32218 5.05449,-6.15969 5.20366,-6.3056 0.25341,-0.24787 0.58644,0.12206 5.07788,5.6404 2.64366,3.24812 5.01824,6.17274 5.27682,6.49919 l 0.47014,0.59352 h -10.64248 c -8.48988,0 -10.60971,-0.0391 -10.48047,-0.1936 z m 9.96155,-1.03932 c -0.1073,-0.28896 -3.7033,-4.48498 -3.81606,-4.45282 -0.0629,0.0179 -0.9405,1.06065 -1.95022,2.3171 l -1.83585,2.28448 h 3.82869 c 2.37539,0 3.80773,-0.0565 3.77344,-0.14876 z m 8.64651,0.0606 c 0,-0.23823 -3.85962,-4.574 -3.96938,-4.45906 -0.0699,0.0732 -0.92283,1.12623 -1.89544,2.3401 l -1.7684,2.20703 h 3.81662 c 2.09913,0 3.8166,-0.0397 3.8166,-0.0881 z m -4.42607,-5.37144 c -2.47236,-3.04432 -3.77775,-4.46036 -3.93471,-4.26821 -1.6058,1.96571 -2.30468,2.83078 -2.88526,3.57125 l -0.69825,0.89056 h 3.83772 c 3.04353,0 3.80519,-0.04 3.6805,-0.1936 z m 1.56189,-18.42932 c 0.41938,-0.71272 0.42322,-0.74341 0.1307,-1.04544 -0.36113,-0.37289 -1.43434,-0.42491 -1.73694,-0.0842 -0.1315,0.14805 -0.16228,0.44436 -0.0885,0.85223 0.097,0.53644 0.075,0.61162 -0.15483,0.52922 -0.57412,-0.20587 -0.79481,-1.28767 -0.37271,-1.82708 0.18487,-0.23625 0.15858,-0.38566 -0.17561,-0.9976 -0.61646,-1.12884 -0.28794,-1.98895 0.89957,-2.35516 0.65769,-0.20283 1.4501,0.0191 1.71408,0.47997 0.14048,0.24529 0.0888,0.26494 -0.50199,0.19089 -0.40715,-0.051 -0.75412,-0.008 -0.9088,0.1115 -0.27916,0.21649 -0.32783,0.88573 -0.09,1.23723 0.17136,0.25321 2.34119,0.80981 2.5232,0.64724 0.14633,-0.13069 3.61541,-6.37991 3.61371,-6.50975 -5.3e-4,-0.0535 -0.46686,-0.28137 -1.03592,-0.50632 -0.56905,-0.22494 -1.30606,-0.51884 -1.63779,-0.65313 l -0.60315,-0.24415 -0.40812,0.57569 c -0.22448,0.31663 -0.69893,0.718 -1.05434,0.89192 -0.52258,0.25574 -0.65629,0.41323 -0.69894,0.82325 -0.029,0.27884 0.036,0.60699 0.1446,0.7292 0.25979,0.2925 0.98456,0.28303 1.44586,-0.0189 0.54064,-0.35384 0.4632,0.0215 -0.11612,0.56277 -0.68781,0.64273 -1.36618,0.61293 -2.12186,-0.0932 -0.54681,-0.51096 -0.57909,-0.59591 -0.50398,-1.32635 0.0722,-0.70211 0.0327,-0.82487 -0.39368,-1.22328 -0.4963,-0.46377 -0.59068,-0.9027 -0.30235,-1.40614 0.25681,-0.44838 0.68818,-0.39154 0.56308,0.0742 -0.1199,0.44643 0.40623,1.02013 0.93557,1.02013 0.41534,0 1.42149,-0.89396 1.21188,-1.07675 -0.081,-0.0706 -1.36649,-0.62504 -2.85665,-1.23203 l -2.70939,-1.10361 -2.42879,1.02645 c -1.33584,0.56454 -2.60023,1.10954 -2.80977,1.2111 l -0.38098,0.18467 0.35157,0.41764 c 0.68365,0.81214 2.14523,0.3712 1.8922,-0.57085 -0.13488,-0.50215 0.14174,-0.53615 0.49776,-0.0612 0.38408,0.51239 0.31468,0.97292 -0.22222,1.47461 -0.42526,0.39738 -0.47054,0.52912 -0.39554,1.15084 0.10106,0.83793 -0.11532,1.27511 -0.83371,1.68443 -0.73409,0.41826 -1.21893,0.3773 -1.78396,-0.15068 -0.61496,-0.57464 -0.62506,-0.84729 -0.0193,-0.52246 0.62274,0.33397 1.31851,0.1698 1.45642,-0.34365 0.17565,-0.65398 -0.0516,-1.06316 -0.75794,-1.36478 -0.3645,-0.15564 -0.79149,-0.4867 -0.9489,-0.73568 -0.1574,-0.24898 -0.35144,-0.4527 -0.43123,-0.4527 -0.0798,0 -0.84748,0.289 -1.70602,0.64222 l -1.56098,0.64223 1.76056,3.19106 c 0.96831,1.75508 1.81389,3.24531 1.87907,3.31161 0.14822,0.15078 2.09853,-0.26389 2.42236,-0.51503 0.31395,-0.24347 0.3073,-1.14106 -0.0103,-1.38734 -0.1659,-0.12867 -0.48348,-0.15855 -0.94777,-0.0892 l -0.69825,0.10433 0.39655,-0.39443 c 0.70749,-0.70371 2.23952,-0.41198 2.64544,0.50373 0.21838,0.49266 0.11623,1.10774 -0.2951,1.77669 -0.21442,0.34872 -0.22572,0.48614 -0.0603,0.73358 0.27965,0.41843 0.25508,1.10022 -0.0545,1.51325 -0.41415,0.55252 -0.6031,0.41946 -0.48139,-0.33896 0.0944,-0.58804 0.0627,-0.7067 -0.22757,-0.85185 -0.52227,-0.26118 -1.15399,-0.20016 -1.52593,0.14739 l -0.33819,0.31602 0.44875,0.77043 0.44874,0.77044 4.78836,-0.0411 4.78836,-0.0411 z m -7.13798,-0.91881 c -0.84865,-0.4438 -0.56801,-1.52191 0.39617,-1.52191 0.36926,0 0.54549,0.0995 0.68577,0.38719 0.35542,0.72891 -0.38102,1.50126 -1.08194,1.13472 z m 3.20651,0.0613 c -0.33828,-0.0953 -0.66299,-0.50052 -0.66299,-0.82736 0,-0.76304 1.35139,-1.05825 1.68763,-0.36866 0.33764,0.69246 -0.27476,1.40729 -1.02464,1.19602 z m -3.53789,-7.75188 c -0.34236,-0.3535 -0.34663,-0.63551 -0.0164,-1.07622 0.47709,-0.63648 1.56522,-0.25589 1.56522,0.54747 0,0.73174 -1.01632,1.07868 -1.54892,0.52875 z m 3.21538,0.0611 c -0.10855,-0.12222 -0.17362,-0.45201 -0.14461,-0.73289 0.10424,-1.00915 1.62735,-0.9004 1.62735,0.11619 0,0.70637 -1.0246,1.13252 -1.48274,0.6167 z"
       id="path901-1-1-9-5"
       inkscape:connector-curvature="0" />
    <path
       style="fill:none;stroke:#ff0000;stroke-width:0.16022167;stroke-opacity:1"
       d="M 39.808693,278.92142 C 32.656003,274.85693 24.977593,268.00225 18.557503,259.95 7.1042331,245.58502 0.9742731,227.06979 1.8360931,209.44382 c 0.15389,-3.14734 0.34744,-4.80603 0.6466,-5.54128 0.17953,-0.44125 0.20289,-0.44902 4.48295,-1.49125 8.4080499,-2.04741 14.8854699,-4.22122 25.0278699,-8.39933 8.58815,-3.53784 9.85399,-4.03362 10.24534,-4.01266 0.21085,0.0113 2.48573,0.9697 5.0553,2.12981 2.56957,1.1601 5.67884,2.52814 6.90953,3.04008 7.03996,2.92848 14.56186,5.3168 23.05815,7.32131 2.06172,0.48642 3.8415,0.93806 3.95506,1.00365 0.35252,0.20358 0.52306,2.65787 0.53824,7.7461 0.015,5.02628 -0.15554,7.91988 -0.712,12.08063 -1.9734,14.75537 -7.72182,27.37066 -17.7847,39.02975 -6.43232,7.45266 -14.78621,14.51216 -20.16148,17.03758 -0.72434,0.34032 -1.33729,0.61501 -1.3621,0.61043 -0.0248,-0.005 -0.89159,-0.48933 -1.92616,-1.07722 z"
       id="path992-8-5"
       inkscape:connector-curvature="0" />
    <path
       style="fill:none;stroke:#ff0000;stroke-width:0.16022167;stroke-opacity:1"
       d="m 33.3536,263.61011 c -1.96661,-1.82659 -3.28526,-3.52913 -3.6693,-4.73756 -0.48481,-1.52547 -0.37985,-1.49963 1.86052,0.45806 2.16102,1.88833 2.79007,2.36512 3.12064,2.36512 0.10324,0 0.51158,-0.43561 0.90742,-0.96802 0.39584,-0.53239 0.79822,-1.0192 0.89419,-1.08179 0.28169,-0.18369 1.61399,-0.12234 2.29874,0.10586 1.27874,0.42617 1.60541,1.10284 0.90064,1.86568 -0.28999,0.31388 -0.57684,0.42319 -1.2897,0.49145 l -0.91678,0.0877 -0.82357,1.22871 c -0.45296,0.67579 -0.97764,1.36466 -1.16593,1.53078 -0.34217,0.30192 -0.34324,0.30125 -2.11687,-1.34608 z"
       id="path1633"
       inkscape:connector-curvature="0" />
    <path
       style="fill:none;stroke:#ff0000;stroke-width:0.16022167;stroke-opacity:1"
       d="m 47.17662,264.32213 c -0.36564,-0.43225 -0.87177,-1.13025 -1.12474,-1.55111 -0.45659,-0.75965 -0.46606,-0.76523 -1.29911,-0.76539 -0.70294,-1.1e-4 -0.91147,-0.0707 -1.28453,-0.43456 -0.57952,-0.5652 -0.56308,-0.99432 0.0568,-1.48167 0.47669,-0.37481 1.05822,-0.54993 1.98409,-0.59747 1.08121,-0.0555 1.23118,0.021 1.87569,0.95569 0.89453,1.29745 0.98573,1.34874 1.64059,0.92274 0.29949,-0.19483 1.43793,-1.15964 2.52988,-2.14404 1.73091,-1.56043 1.99266,-1.74468 2.04244,-1.43771 0.0872,0.53806 -0.41079,1.76839 -1.14626,2.8317 -0.64648,0.93464 -3.7603,4.06264 -4.32588,4.34558 -0.22761,0.11386 -0.41631,-0.0141 -0.94891,-0.64376 z"
       id="path1631"
       inkscape:connector-curvature="0" />
    <path
       style="fill:none;stroke:#ff0000;stroke-width:0.16022167;stroke-opacity:1"
       d="m 41.117,259.49943 c -0.73818,-0.81975 -0.80796,-1.07704 -0.51263,-1.8899 0.35483,-0.97659 0.33492,-1.22287 -0.15323,-1.89503 -0.45217,-0.62262 -0.43319,-0.93635 0.0992,-1.64006 0.27857,-0.36819 0.29546,-0.51441 0.13837,-1.1988 -0.1668,-0.7268 -0.26061,-0.83453 -1.38822,-1.5941 -0.66513,-0.44805 -1.3468,-0.89062 -1.51482,-0.98347 -0.27654,-0.15283 -0.2392,-0.20985 0.39397,-0.60138 0.38473,-0.2379 0.69948,-0.51518 0.69948,-0.61617 0,-0.64555 0.5835,-1.84506 1.22062,-2.50929 0.39606,-0.4129 0.84476,-0.97723 0.99712,-1.25408 0.15234,-0.27685 0.33102,-0.50064 0.39705,-0.49732 0.066,0.004 0.36398,0.29952 0.66212,0.65823 0.29813,0.35872 0.79922,0.95093 1.11354,1.31605 0.39255,0.45599 0.63632,0.95722 0.77862,1.601 0.16582,0.75018 0.2933,0.97881 0.63889,1.1458 0.93382,0.45122 0.90762,0.60514 -0.21984,1.29155 -1.44806,0.88159 -1.95004,1.40906 -2.05822,2.16274 -0.0703,0.48985 -0.013,0.71824 0.26191,1.04489 0.44004,0.52276 0.4464,1.08135 0.0198,1.7352 -0.397,0.60845 -0.42911,1.53869 -0.0696,2.0182 0.24115,0.32175 0.23446,0.40008 -0.0871,1.02073 -0.19154,0.36972 -0.48626,0.78894 -0.65494,0.93157 -0.29001,0.24526 -0.33142,0.23187 -0.76206,-0.24636 z"
       id="path1629"
       inkscape:connector-curvature="0" />
    <path
       style="fill:none;stroke:#fc0000;stroke-width:0.16022167;stroke-opacity:1"
       d="m 32.3548,256.59131 c -0.42269,-0.42228 -0.76854,-0.83299 -0.76854,-0.91272 0,-0.26072 0.49782,-0.33297 2.29458,-0.33297 h 1.77022 l 0.99737,-1.51006 0.99737,-1.51009 0.80574,-0.0482 0.80574,-0.0481 -0.0966,0.55621 c -0.0549,0.3163 -0.45819,1.02077 -0.93493,1.63326 -0.46108,0.59235 -0.83833,1.11293 -0.83833,1.15682 0,0.0438 0.2095,0.0798 0.46557,0.0798 0.25605,0 0.60488,0.0952 0.77517,0.21157 0.27358,0.18691 0.28514,0.26675 0.0994,0.68582 -0.23994,0.54128 -0.64451,0.7562 -0.78401,0.4165 -0.0766,-0.18652 -0.49417,-0.22973 -2.22015,-0.22973 -1.98024,0 -2.13301,0.0212 -2.23102,0.30976 -0.0579,0.17037 -0.16457,0.30977 -0.23711,0.30977 -0.0725,0 -0.47775,-0.3455 -0.90045,-0.76777 z"
       id="path1627"
       inkscape:connector-curvature="0" />
    <path
       style="fill:none;stroke:#dc0000;stroke-width:0.16022167;stroke-opacity:1"
       d="m 49.56984,257.04919 c -0.098,-0.28849 -0.25102,-0.30964 -2.2405,-0.30964 -1.85685,0 -2.15799,0.0354 -2.30927,0.27104 -0.16093,0.25075 -0.19877,0.24366 -0.50547,-0.0946 -0.37372,-0.41217 -0.43107,-0.87506 -0.12996,-1.04894 0.11085,-0.0641 0.45209,-0.15525 0.75831,-0.20275 l 0.55675,-0.0863 -0.92406,-1.20286 c -0.63641,-0.82841 -0.92406,-1.3493 -0.92406,-1.67343 0,-0.46386 0.0111,-0.46994 0.77486,-0.42341 l 0.77486,0.0472 0.98733,1.51009 0.98735,1.51007 h 1.78781 c 2.14693,0 2.37729,0.0563 2.12314,0.51885 -0.23092,0.42027 -0.96695,1.16731 -1.33299,1.35292 -0.21143,0.10721 -0.30438,0.0665 -0.3841,-0.1682 z"
       id="path1625"
       inkscape:connector-curvature="0" />
    <path
       style="fill:none;fill-opacity:1;stroke:#ff0000;stroke-width:0.16022167;stroke-opacity:1"
       d="m 30.39518,252.32585 c -0.0625,-0.0603 0.24989,-0.542 0.69429,-1.0704 0.4444,-0.52841 1.15102,-1.47958 1.57027,-2.11369 l 0.76227,-1.15294 -0.44958,-0.33714 -0.44957,-0.33714 -1.40617,1.22937 c -0.77339,0.67615 -1.74864,1.44387 -2.16721,1.70605 -0.71578,0.44835 -0.83497,0.47281 -2.00415,0.41114 -1.83537,-0.0968 -3.99973,-1.14307 -3.02209,-1.46091 2.48907,-0.80926 7.16578,-2.89725 7.16578,-3.19927 0,-0.0858 -0.11064,-0.27026 -0.24587,-0.40989 -0.22732,-0.23471 -0.35556,-0.22803 -1.69989,0.0887 -1.60593,0.37832 -4.4117,0.6829 -6.29082,0.6829 -1.36593,0 -2.08585,-0.3083 -2.95017,-1.26336 -0.51507,-0.56916 -1.3314,-2.11424 -1.18788,-2.24834 0.0497,-0.0465 1.34401,0.0623 2.87614,0.24157 3.09249,0.36199 8.26122,0.69994 8.50977,0.5564 0.088,-0.0509 0.15998,-0.28756 0.15998,-0.52611 v -0.43372 l -2.77626,-0.34476 c -3.87226,-0.48084 -7.3322,-1.03518 -8.85047,-1.418 -1.21517,-0.30638 -1.3158,-0.36544 -1.7807,-1.04517 -0.5398,-0.78924 -0.77861,-1.59431 -0.91919,-3.09865 -0.0702,-0.75155 -0.0432,-0.96485 0.11449,-0.90196 0.11356,0.0454 1.32527,0.56649 2.69268,1.1582 1.36742,0.59172 3.324,1.36317 4.34797,1.71434 1.69088,0.57991 7.52551,2.22734 7.59844,2.14546 0.0167,-0.0187 0.23051,-0.40633 0.47508,-0.86123 0.42539,-0.7912 1.65231,-2.19307 1.9194,-2.19307 0.07,0 -0.0231,0.43561 -0.20689,0.96801 -0.20988,0.608 -0.36352,1.5728 -0.41313,2.59424 -0.0759,1.56336 -0.0604,1.65908 0.4003,2.47568 0.65487,1.16067 1.55595,1.67158 3.37405,1.91303 1.34486,0.17862 1.37388,0.19175 1.69261,0.76565 0.27319,0.49191 0.29339,0.65363 0.12818,1.02632 -0.292,0.65874 -1.09988,1.00408 -2.13209,0.9114 l -0.852,-0.0765 -0.0997,0.5578 c -0.30141,1.68589 -0.69631,2.3407 -1.7281,2.86545 -0.83423,0.42428 -2.5994,0.72194 -2.84974,0.48057 z"
       id="path1623"
       inkscape:connector-curvature="0" />
    <path
       style="fill:none;stroke:#ff0000;stroke-width:0.16022167;stroke-opacity:1"
       d="m 50.15689,251.91705 c -0.9174,-0.42838 -1.08582,-0.57957 -1.42334,-1.27776 -0.21053,-0.43555 -0.43163,-1.10847 -0.49131,-1.49538 l -0.10853,-0.7035 -1.02794,0.0611 c -0.95643,0.0569 -1.06503,0.0288 -1.56095,-0.4041 -0.61247,-0.53461 -0.67063,-0.98002 -0.21846,-1.6729 0.27526,-0.42182 0.43118,-0.49275 1.28393,-0.5841 2.21559,-0.23733 3.62173,-1.14107 4.04565,-2.60016 0.26494,-0.91191 0.10643,-3.06171 -0.31743,-4.30532 -0.18748,-0.55003 -0.30614,-1.03251 -0.2637,-1.07217 0.17127,-0.16004 1.55348,1.39633 1.96903,2.21713 0.337,0.66564 0.51214,0.85766 0.72548,0.7954 0.15469,-0.0451 1.28817,-0.35678 2.51884,-0.69253 4.31212,-1.1764 7.06775,-2.15081 10.08916,-3.56761 0.92008,-0.43145 1.72089,-0.78446 1.77957,-0.78446 0.26217,0 -0.0574,2.58732 -0.411,3.32799 -0.68219,1.42872 -1.01523,1.59541 -4.47229,2.23815 -1.42879,0.26565 -8.63128,1.24858 -9.14902,1.24858 -0.0863,0 -0.15688,0.24813 -0.15688,0.55141 v 0.5514 l 2.0304,-0.10035 c 1.75552,-0.0868 5.86482,-0.45963 8.70258,-0.78963 l 0.871,-0.10128 -0.24274,0.64288 c -0.37399,0.99049 -1.20968,2.01595 -2.04755,2.51247 -0.66919,0.39657 -0.91177,0.45022 -2.03569,0.45022 -1.92509,0 -4.44639,-0.27899 -6.1515,-0.68068 l -1.5259,-0.35946 -0.28937,0.32646 c -0.27207,0.30697 -0.27252,0.33882 -0.008,0.53306 0.7534,0.55212 4.55519,2.18191 7.07754,3.03405 0.31657,0.10695 0.31133,0.12828 -0.11617,0.47386 -0.67784,0.54794 -2.16601,1.00935 -3.25543,1.00935 -1.1972,0 -1.94859,-0.41649 -3.88426,-2.15296 l -1.37131,-1.23019 -0.45165,0.25609 c -0.24841,0.14084 -0.45166,0.30775 -0.45166,0.37092 0,0.22277 1.53251,2.43176 2.32314,3.34858 0.44036,0.51066 0.75664,0.96958 0.70286,1.01985 -0.28884,0.2699 -1.71218,0.061 -2.6876,-0.39448 z"
       id="path1621"
       inkscape:connector-curvature="0" />
    <path
       style="fill:none;stroke:#ff0000;stroke-width:0.16022167;stroke-opacity:1"
       d="m 40.978,242.99396 c -0.21534,-0.31944 -0.52044,-0.81436 -0.678,-1.09982 l -0.28646,-0.51902 -0.40145,0.3524 c -0.28823,0.25307 -0.40144,0.28901 -0.40144,0.12758 0,-0.12368 -0.12051,-0.3856 -0.26778,-0.58209 l -0.26779,-0.35727 -0.57883,0.51639 -0.57883,0.5164 0.11175,-0.54208 c 0.0615,-0.29815 0.32755,-0.9631 0.59129,-1.47766 0.40837,-0.79671 0.63712,-1.02944 1.54125,-1.56806 0.91215,-0.54338 1.07798,-0.71354 1.17721,-1.20782 0.15618,-0.77787 0.44629,-1.34178 0.65662,-1.27626 0.0952,0.0295 0.31477,0.46788 0.48798,0.97384 0.28301,0.82675 0.41295,0.98255 1.2824,1.53764 0.78548,0.50148 1.07807,0.81733 1.55531,1.67903 0.32331,0.58374 0.58783,1.23427 0.58783,1.44563 v 0.3843 l -0.66207,-0.48996 -0.66208,-0.49001 -0.14666,0.36082 c -0.0807,0.19846 -0.17498,0.4985 -0.20959,0.66678 -0.0548,0.26665 -0.10569,0.24287 -0.39557,-0.18496 l -0.33266,-0.49092 -0.63517,1.15295 c -0.34934,0.63413 -0.7388,1.15297 -0.86545,1.15297 -0.12666,0 -0.40647,-0.26136 -0.62181,-0.5808 z"
       id="path1619"
       inkscape:connector-curvature="0" />
    <path
       style="fill:none;stroke:#ff0000;stroke-width:0.16022167;stroke-opacity:1"
       d="m 18.07535,233.52073 c -2.18386,-0.74738 -7.58087,-2.66829 -7.67129,-2.73036 -0.17862,-0.12258 1.10099,-4.47105 1.72989,-5.87863 3.14406,-7.03705 7.31445,-11.57649 13.49902,-14.69362 0.78237,-0.39431 1.46212,-0.71695 1.51057,-0.71695 0.0485,0 -0.89389,0.92348 -2.09407,2.05217 -3.60787,3.39293 -5.65841,5.996 -7.47281,9.48639 -0.95962,1.84605 -2.66766,6.22846 -2.49163,6.39296 0.0894,0.0836 2.27977,0.80732 2.44617,0.80829 0.064,2.6e-4 0.34932,-0.31575 0.63406,-0.70247 1.11997,-1.52107 3.25429,-2.33237 5.79035,-2.20104 0.77832,0.0403 1.53691,0.12215 1.68577,0.18187 0.20973,0.0841 0.66941,-0.39827 2.04262,-2.1437 1.2031,-1.52915 1.74263,-2.34025 1.68055,-2.5264 -0.0503,-0.15077 -0.16565,-0.76201 -0.25634,-1.35831 -0.32988,-2.16896 0.38105,-3.96399 1.9346,-4.88461 1.01949,-0.60417 1.8481,-0.81014 3.27828,-0.81493 1.88845,-0.006 3.41145,0.79188 4.07808,2.13731 0.27999,0.5651 0.41832,1.31648 0.24237,1.31648 -0.0395,0 -0.45473,-0.2224 -0.92269,-0.49423 -1.16902,-0.67906 -2.48202,-0.77775 -3.31488,-0.24917 -1.37143,0.87042 -1.73553,2.56229 -0.91782,4.26491 l 0.45126,0.93964 -3.53389,4.518 c -3.26943,4.17985 -3.5652,4.51141 -3.95186,4.43007 -2.30204,-0.48426 -2.76563,-0.46646 -3.91414,0.15028 -0.89404,0.48009 -1.52722,1.28098 -1.95831,2.47707 l -0.35163,0.97558 z"
       id="path1617"
       inkscape:connector-curvature="0" />
    <path
       style="fill:none;stroke:#ff0000;stroke-width:0.16022167;stroke-opacity:1"
       d="m 62.83739,234.08849 c -0.59105,-1.76533 -0.68084,-1.92708 -1.48878,-2.68205 -1.15832,-1.08236 -2.04408,-1.29381 -3.84845,-0.91869 -1.05519,0.21937 -1.2902,0.22847 -1.39899,0.0542 -0.0719,-0.1152 -1.65635,-2.1601 -3.521,-4.54424 l -3.39025,-4.3348 0.4157,-0.76654 c 0.23298,-0.42964 0.44979,-1.14522 0.49327,-1.62809 0.0657,-0.72911 0.006,-0.99085 -0.39148,-1.70291 -0.60811,-1.09086 -1.27107,-1.44504 -2.55846,-1.36685 -0.7036,0.0428 -1.13771,0.18149 -1.78809,0.57146 -0.47239,0.28326 -0.89825,0.47824 -0.94635,0.43328 -0.16232,-0.15167 0.2556,-1.27892 0.66762,-1.80078 1.16003,-1.46921 3.64318,-2.03176 5.89015,-1.33437 1.3184,0.40919 2.54266,1.57789 2.91407,2.78182 0.27638,0.8959 0.26786,2.46731 -0.0211,3.884 -0.0839,0.41141 0.11355,0.73626 1.6167,2.66004 1.66387,2.12947 1.72632,2.18846 2.20951,2.0869 0.27349,-0.0575 1.2804,-0.0998 2.2376,-0.094 1.53853,0.009 1.86017,0.061 2.77367,0.44598 0.96217,0.40551 2.14464,1.38368 2.61842,2.166 0.16384,0.27052 0.22229,0.26701 1.38764,-0.0837 0.66911,-0.20137 1.25051,-0.44874 1.29197,-0.54971 0.1352,-0.32922 -1.42932,-4.4218 -2.41817,-6.32568 -1.7879,-3.44226 -4.10436,-6.35372 -7.69679,-9.67373 -1.05626,-0.97617 -1.89443,-1.79919 -1.86261,-1.82893 0.0958,-0.0896 3.07686,1.49836 4.33697,2.3102 4.5726,2.94596 8.1695,7.33315 10.58412,12.90958 0.33196,0.76665 0.66924,1.53331 0.7495,1.70368 0.1767,0.37507 1.00139,3.77254 0.9993,4.11686 -0.002,0.1756 -0.99797,0.60194 -3.52361,1.50695 -5.73657,2.05557 -6.25949,2.22108 -6.33213,2.00415 z"
       id="path1615"
       inkscape:connector-curvature="0" />
    <path
       style="fill:none;fill-opacity:1;stroke:#ff0000;stroke-width:0.16022167;stroke-opacity:1"
       d="m 41.00624,231.19049 c -0.1073,-0.28897 -3.7033,-4.48499 -3.81606,-4.45282 -0.0629,0.0179 -0.9405,1.06065 -1.95022,2.31709 l -1.83585,2.28449 h 3.82869 c 2.37539,0 3.80773,-0.0565 3.77344,-0.14876 z"
       id="path1611"
       inkscape:connector-curvature="0" />
    <path
       style="fill:none;fill-opacity:1;stroke:#ff0000;stroke-width:0.16022167;stroke-opacity:1"
       d="m 49.65275,231.25109 c 0,-0.23823 -3.85962,-4.574 -3.96938,-4.45906 -0.0699,0.0732 -0.92283,1.12622 -1.89544,2.3401 l -1.7684,2.20703 h 3.81662 c 2.09913,0 3.8166,-0.0397 3.8166,-0.0881 z"
       id="path1609"
       inkscape:connector-curvature="0" />
    <path
       style="fill:none;fill-opacity:1;stroke:#ff0000;stroke-width:0.16022167;stroke-opacity:1"
       d="m 45.22668,225.87964 c -2.47236,-3.04431 -3.77775,-4.46035 -3.93471,-4.26821 -1.6058,1.96572 -2.30468,2.83078 -2.88526,3.57126 l -0.69825,0.89056 h 3.83772 c 3.04353,0 3.80519,-0.04 3.6805,-0.19361 z"
       id="path1607"
       inkscape:connector-curvature="0" />
    <path
       style="fill:none;stroke:#fc0000;stroke-width:0.16022167;stroke-opacity:1"
       d="m 46.78857,207.45032 c 0.41938,-0.71272 0.42322,-0.74341 0.1307,-1.04544 -0.36113,-0.37289 -1.43434,-0.42491 -1.73694,-0.0842 -0.1315,0.14805 -0.16228,0.44436 -0.0885,0.85223 0.097,0.53644 0.075,0.61162 -0.15483,0.52922 -0.57412,-0.20587 -0.79481,-1.28767 -0.37271,-1.82708 0.18487,-0.23625 0.15858,-0.38566 -0.17561,-0.9976 -0.61646,-1.12884 -0.28794,-1.98895 0.89957,-2.35516 0.65769,-0.20283 1.4501,0.0191 1.71408,0.47997 0.14048,0.24529 0.0888,0.26494 -0.50199,0.19089 -0.40715,-0.051 -0.75412,-0.008 -0.9088,0.1115 -0.27916,0.21649 -0.32783,0.88573 -0.09,1.23723 0.17136,0.25321 2.34119,0.80981 2.5232,0.64724 0.14633,-0.13069 3.61541,-6.37991 3.61371,-6.50975 -5.3e-4,-0.0535 -0.46686,-0.28137 -1.03592,-0.50632 -0.56905,-0.22494 -1.30606,-0.51884 -1.63779,-0.65313 l -0.60315,-0.24415 -0.40812,0.57569 c -0.22448,0.31664 -0.69893,0.718 -1.05434,0.89192 -0.52258,0.25574 -0.65629,0.41323 -0.69894,0.82325 -0.029,0.27884 0.036,0.60699 0.1446,0.7292 0.25979,0.2925 0.98456,0.28303 1.44586,-0.0189 0.54064,-0.35384 0.4632,0.0215 -0.11612,0.56277 -0.68781,0.64273 -1.36618,0.61293 -2.12186,-0.0932 -0.54681,-0.51096 -0.57909,-0.59591 -0.50398,-1.32635 0.0722,-0.70211 0.0327,-0.82487 -0.39368,-1.22328 -0.4963,-0.46377 -0.59068,-0.9027 -0.30235,-1.40614 0.25681,-0.44838 0.68818,-0.39154 0.56308,0.0742 -0.1199,0.44643 0.40623,1.02013 0.93557,1.02013 0.41534,0 1.42149,-0.89396 1.21188,-1.07675 -0.081,-0.0706 -1.36649,-0.62504 -2.85665,-1.23203 l -2.70939,-1.10361 -2.42879,1.02645 c -1.33584,0.56454 -2.60023,1.10954 -2.80977,1.2111 l -0.38098,0.18467 0.35157,0.41764 c 0.68365,0.81214 2.14523,0.3712 1.8922,-0.57085 -0.13488,-0.50215 0.14174,-0.53615 0.49776,-0.0612 0.38408,0.51239 0.31468,0.97292 -0.22222,1.47461 -0.42526,0.39738 -0.47054,0.52913 -0.39554,1.15084 0.10106,0.83793 -0.11532,1.27511 -0.83371,1.68443 -0.73409,0.41826 -1.21893,0.3773 -1.78396,-0.15068 -0.61496,-0.57463 -0.62506,-0.84729 -0.0193,-0.52246 0.62274,0.33397 1.31851,0.1698 1.45642,-0.34365 0.17565,-0.65398 -0.0516,-1.06316 -0.75794,-1.36478 -0.3645,-0.15564 -0.79149,-0.4867 -0.9489,-0.73568 -0.1574,-0.24898 -0.35144,-0.4527 -0.43123,-0.4527 -0.0798,0 -0.84748,0.289 -1.70602,0.64222 l -1.56098,0.64223 1.76056,3.19106 c 0.96831,1.75508 1.81389,3.24531 1.87907,3.31161 0.14822,0.15078 2.09853,-0.26389 2.42236,-0.51503 0.31395,-0.24347 0.3073,-1.14106 -0.0103,-1.38734 -0.1659,-0.12867 -0.48348,-0.15855 -0.94777,-0.0892 l -0.69825,0.10433 0.39655,-0.39443 c 0.70749,-0.7037 2.23952,-0.41198 2.64544,0.50373 0.21838,0.49266 0.11623,1.10774 -0.2951,1.77669 -0.21442,0.34872 -0.22572,0.48614 -0.0603,0.73358 0.27965,0.41843 0.25508,1.10022 -0.0545,1.51325 -0.41415,0.55252 -0.6031,0.41946 -0.48139,-0.33896 0.0944,-0.58804 0.0627,-0.7067 -0.22757,-0.85185 -0.52227,-0.26118 -1.15399,-0.20016 -1.52593,0.14739 l -0.33819,0.31602 0.44875,0.77043 0.44874,0.77044 4.78836,-0.0411 4.78836,-0.0411 z"
       id="path1605"
       inkscape:connector-curvature="0" />
  </g>
</svg>
